<svg width="489" height="256" viewBox="0 0 489 256" fill="none" xmlns="http://www.w3.org/2000/svg">
<path d="M194.558 164.893C194.625 164.946 194.693 165.001 194.759 165.054C195.307 164.964 195.854 164.874 196.402 164.784C196.393 164.657 196.383 164.532 196.374 164.405C195.875 164.405 195.371 164.373 194.878 164.428C194.755 164.441 194.663 164.73 194.558 164.893ZM196.253 127.269C195.727 126.568 194.399 126.381 193.655 126.946C193.475 127.084 193.398 127.349 193.273 127.557C193.527 127.661 193.806 127.889 194.031 127.848C194.763 127.713 195.475 127.48 196.253 127.269ZM235.497 196.612C235.838 196.256 236.066 195.806 236.386 195.732C236.837 195.628 237.166 195.558 237.125 195.057C237.098 194.724 236.991 194.397 236.919 194.068C236.607 194.246 236.286 194.412 235.986 194.608C235.838 194.705 235.71 194.848 235.605 194.992C235.23 195.501 235.194 196.024 235.497 196.612ZM277.531 179.492C277.498 179.422 277.466 179.353 277.433 179.284C277.178 179.273 276.907 179.308 276.669 179.238C276.277 179.125 275.907 178.934 275.523 178.79C275.197 178.669 274.861 178.569 274.529 178.46C274.551 178.849 274.486 179.274 274.629 179.617C274.711 179.82 275.114 179.916 275.389 180.024C275.725 180.154 276.075 180.248 276.451 180.368C276.758 180.118 277.145 179.805 277.531 179.492ZM245.881 205.906C246.225 205.37 246.639 204.86 246.886 204.282C247.01 203.993 246.95 203.376 246.759 203.268C246.387 203.06 245.853 203.057 245.671 203.678C245.625 203.841 245.461 203.968 245.383 204.126C245.049 204.802 245.274 205.626 245.881 205.906ZM261.014 183.057C261.377 182.908 261.745 182.853 261.951 182.646C262.266 182.33 262.507 181.925 262.695 181.521C262.741 181.424 262.411 181.013 262.329 181.033C261.738 181.178 261.143 181.354 260.614 181.633C260.523 181.681 260.729 182.274 260.815 182.612C260.851 182.75 260.933 182.88 261.014 183.057ZM251.873 142.062C253.227 142.488 254.843 141.294 255.226 139.578C254.817 139.72 254.443 139.753 254.21 139.948C253.433 140.596 252.705 141.301 251.873 142.062ZM251.303 122.189C250.434 121.733 249.781 121.409 249.147 121.05C248.663 120.777 247.655 120.922 247.558 121.31C247.345 122.154 248.009 122.784 248.862 122.536C249.411 122.374 249.926 122.102 250.521 122.505C250.649 122.592 251.047 122.3 251.303 122.189ZM240.129 196.565C240.397 196.865 240.649 197.361 241.215 196.748C241.343 196.608 241.658 196.622 241.89 196.582C242.693 196.446 243.535 195.437 243.417 194.678C243.381 194.449 243.159 194.249 243.022 194.034C242.833 194.15 242.617 194.241 242.455 194.388C241.689 195.089 240.937 195.806 240.129 196.565ZM252.063 180.125C252.353 180 252.61 179.912 252.843 179.784C253.278 179.546 253.669 179.181 254.13 179.06C254.883 178.861 255.117 178.233 255.491 177.729C255.566 177.628 255.271 177.092 255.215 177.102C254.643 177.205 253.993 177.256 253.546 177.568C252.863 178.045 252.314 178.709 251.733 179.316C251.609 179.444 251.494 179.702 251.549 179.833C251.605 179.97 251.871 180.025 252.063 180.125ZM262.001 157.332C262.001 157.837 261.853 158.302 262.03 158.554C262.411 159.094 262.917 159.574 263.449 159.984C264.035 160.437 264.742 160.746 265.33 161.198C265.59 161.397 265.673 161.804 265.865 162.098C265.985 162.281 266.159 162.429 266.309 162.594C266.61 162.116 267.571 162.616 267.606 161.772C267.611 161.672 267.449 161.54 267.334 161.464C266.743 161.07 266.059 160.773 265.565 160.29C264.599 159.352 263.235 158.829 262.566 157.582C262.523 157.502 262.358 157.485 262.001 157.332ZM247.815 142.89C247.738 142.933 247.659 142.976 247.581 143.018C247.581 144.261 247.583 145.504 247.581 146.746C247.579 147.49 247.531 148.237 247.591 148.974C247.607 149.165 247.957 149.329 248.153 149.505C248.55 148.733 249.066 147.994 249.303 147.18C249.487 146.548 249.246 145.81 249.329 145.137C249.482 143.885 248.421 143.564 247.815 142.89ZM268.291 142.796C268.143 143.165 268.049 143.504 267.881 143.802C267.235 144.945 266.563 146.072 265.911 147.209C265.858 147.302 265.843 147.445 265.87 147.55C266.033 148.194 265.73 148.608 265.245 149.013C264.733 149.441 264.777 149.716 265.429 150.164C266.565 148.668 267.721 147.185 268.831 145.67C269.838 144.3 269.747 143.906 268.291 142.796ZM242.135 185.68C240.618 183.493 238.762 183.796 236.741 184.617C236.898 184.836 237.023 184.998 237.135 185.169C237.585 185.85 237.982 186.573 238.506 187.194C238.671 187.39 239.263 187.474 239.506 187.342C240.425 186.842 241.281 186.233 242.135 185.68ZM260.955 159.784C260.397 160.665 259.775 161.616 259.206 162.596C259.154 162.686 259.402 163.081 259.566 163.121C259.913 163.206 260.297 163.13 260.663 163.156C261.523 163.216 262.357 163.068 263.245 163.46C263.974 163.782 264.985 163.734 265.567 163.049C264.05 161.974 262.563 160.922 260.955 159.784ZM258.823 184.021C259.605 184 259.789 183.49 259.383 182.778C259.019 182.141 258.959 181.533 259.406 180.896C259.75 180.406 259.198 179.304 258.585 179.244C258.039 179.189 257.487 179.16 256.942 179.189C256.627 179.206 256.278 179.298 256.015 179.462C255.002 180.098 254.017 180.776 253.023 181.442C252.81 181.585 252.614 181.752 252.41 181.908C252.679 182.026 252.938 182.186 253.221 182.256C254.367 182.538 255.539 182.738 256.666 183.08C257.451 183.317 258.179 183.733 258.823 184.021ZM238.477 194.056C239.31 195.153 239.619 195.165 240.542 194.317C241.215 193.698 241.659 192.78 242.757 192.678C242.866 192.668 243.033 192.41 243.034 192.268C243.054 190.62 243.047 188.972 243.047 187.324C242.926 187.26 242.805 187.196 242.683 187.13C241.742 187.785 240.774 188.408 239.878 189.116C239.629 189.313 239.486 189.757 239.473 190.094C239.418 191.506 239.899 193.018 238.477 194.056ZM271.785 127.257C271.434 127.032 271.159 126.844 270.874 126.674C270.701 126.572 270.497 126.514 270.327 126.405C269.542 125.901 268.782 125.358 267.979 124.884C267.053 124.336 266.229 123.718 264.946 124.42C264.098 124.885 262.918 124.78 261.889 124.94C261.775 124.957 261.654 125.021 261.571 125.098C261.237 125.412 260.917 125.74 260.557 126.096C260.734 126.468 262.298 126.874 262.879 126.553C263.641 126.132 264.365 125.649 265.195 125.137C265.455 125.497 265.714 125.784 265.885 126.113C266.035 126.404 266.081 126.745 266.183 127.06C266.519 128.089 267.585 128.42 268.297 129.133C269.405 128.537 270.519 127.937 271.785 127.257ZM260.066 147.049C259.851 146.446 259.774 145.945 259.513 145.562C258.931 144.713 259.082 143.952 259.486 143.085C259.663 142.704 259.769 142.078 259.03 141.848C258.354 141.637 257.699 141.362 256.977 141.093C256.542 141.409 256.042 141.788 255.527 142.149C254.673 142.746 254.014 143.673 252.747 143.582C252.521 143.566 252.221 143.981 252.039 144.25C251.991 144.321 252.221 144.7 252.386 144.753C253.063 144.972 253.763 145.262 254.457 145.268C256.078 145.278 257.254 146.326 258.673 146.785C259.167 146.945 259.703 146.984 260.066 147.049ZM262.003 152.226C262.306 151.774 262.478 151.286 262.829 151.033C263.893 150.262 263.573 148.825 264.475 148.004C264.117 146.686 265.589 145.988 265.611 144.696C265.629 143.744 265.567 143.156 264.505 143.173C263.431 143.19 262.39 143.166 261.305 143.553C260.523 143.832 260.382 144.176 260.499 144.737C260.603 145.234 260.802 145.846 261.179 146.126C262.015 146.748 261.951 147.541 261.929 148.365C261.897 149.494 261.839 150.624 261.813 151.753C261.809 151.894 261.925 152.04 262.003 152.226ZM273.981 143.036C274.382 143.254 274.895 143.524 275.398 143.81C276.891 144.666 278.426 144.546 279.966 143.973C280.633 143.726 281.246 143.312 281.927 143.145C283.237 142.824 284.422 142.389 285.113 141.161C284.638 140.789 284.047 140.794 283.478 141.129C282.398 141.766 281.262 141.46 280.159 141.238C279.431 141.092 278.753 140.694 278.025 140.58C277.563 140.508 276.95 140.613 276.579 140.873C275.683 141.5 274.89 142.264 273.981 143.036ZM267.218 196.409C267.091 196.294 267.047 196.221 267.003 196.221C266.319 196.21 265.941 195.822 265.827 195.225C265.818 195.172 266.494 195.013 266.838 194.872C266.987 194.812 267.206 194.674 267.209 194.568C267.213 194.397 267.111 194.153 266.971 194.062C265.709 193.241 264.439 192.429 263.142 191.66C262.865 191.494 262.459 191.446 262.134 191.489C262.026 191.504 261.933 191.97 261.918 192.234C261.889 192.769 261.977 193.314 261.913 193.844C261.683 195.762 262.606 197.19 263.923 198.462C264.439 198.961 264.993 199.066 265.503 198.492C266.091 197.828 266.633 197.124 267.218 196.409ZM219.65 128.996H219.697C219.697 128.461 219.701 127.926 219.695 127.392C219.69 126.828 219.727 126.254 219.646 125.7C219.594 125.357 219.394 124.797 219.191 124.765C218.811 124.708 218.317 124.877 217.985 125.108C217.233 125.63 216.579 126.286 215.834 126.818C214.525 127.753 214.361 128.618 215.386 129.8C215.897 130.389 216.329 131.032 216.903 131.592C217.357 132.034 217.958 132.345 218.373 132.846C218.543 133.053 219.045 133.094 219.369 133.044C219.501 133.024 219.63 132.56 219.637 132.294C219.667 131.196 219.65 130.096 219.65 128.996ZM198.909 182.27C198.345 182.668 197.722 183.014 197.227 183.486C196.837 183.86 196.638 184.413 196.293 184.841C195.687 185.593 195.018 186.296 194.407 187.045C193.333 188.364 192.278 189.698 191.23 191.037C191.115 191.184 191.01 191.437 191.066 191.578C191.118 191.71 191.389 191.825 191.567 191.833C192.211 191.864 192.859 191.877 193.499 191.826C193.705 191.809 194.079 191.532 194.058 191.444C193.915 190.836 194.297 190.534 194.662 190.161C194.863 189.956 194.887 189.59 195.001 189.3C195.151 188.914 195.298 188.526 195.473 188.152C195.582 187.917 195.725 187.696 195.881 187.488C196.083 187.216 196.263 186.884 196.542 186.718C197.373 186.225 198.227 185.756 199.113 185.364C199.667 185.118 200.305 184.865 200.886 184.902C201.91 184.966 202.591 184.646 203.102 183.617C202.685 183.47 202.258 183.165 201.883 183.217C200.757 183.37 199.949 182.729 198.909 182.27ZM219.933 189.016C219.847 188.988 219.761 188.96 219.674 188.932C219.674 188.484 219.71 188.032 219.658 187.59C219.635 187.404 219.466 187.149 219.298 187.08C218.809 186.882 216.829 187.674 216.637 188.148C216.509 188.465 216.567 188.85 216.453 189.177C216.217 189.846 215.791 190.474 215.678 191.157C215.426 192.686 214.833 194.053 213.975 195.336C213.622 195.865 213.795 196.224 214.441 196.172C214.965 196.129 215.47 195.82 215.993 195.79C216.726 195.749 217.402 195.804 217.678 194.91C217.791 194.546 218.215 194.278 218.353 193.916C218.646 193.141 218.834 192.33 219.087 191.541C219.357 190.696 219.65 189.857 219.933 189.016ZM213.359 164.657C212.375 164.16 211.498 163.746 210.651 163.281C209.863 162.848 209.115 162.344 208.327 161.909C208.185 161.829 207.909 161.876 207.741 161.956C206.899 162.356 206.071 162.784 205.241 163.206C204.501 163.582 203.935 164.057 204.009 164.988C204.058 165.61 204.022 166.238 204.019 166.864C204.017 167.826 204.81 168.281 205.674 167.789C206.538 167.297 207.379 166.77 208.238 166.27C208.362 166.198 208.529 166.196 208.674 166.158C209.981 165.833 211.177 165.084 212.619 165.256C212.826 165.28 213.085 164.888 213.359 164.657ZM210.923 186.11C210.065 186.03 209.715 186.35 209.895 187.153C210.01 187.662 210.185 188.16 210.321 188.666C210.485 189.278 210.699 189.886 210.777 190.509C210.871 191.27 210.813 192.048 210.879 192.813C210.935 193.444 211.286 194.12 211.13 194.678C210.917 195.448 211.411 195.71 211.806 196.068C211.887 196.141 212.402 195.978 212.462 195.829C212.843 194.858 213.033 193.8 213.521 192.889C214.162 191.692 214.642 190.486 214.747 189.138C214.758 188.989 214.939 188.857 215.025 188.706C215.215 188.372 215.395 188.029 215.579 187.69C215.149 187.478 214.729 187.114 214.285 187.086C213.433 187.03 212.607 187.097 211.913 186.445C211.685 186.23 211.258 186.216 210.923 186.11ZM219.142 170.204C219.345 169.634 219.617 169.218 219.622 168.8C219.657 165.817 219.639 162.836 219.633 159.853C219.631 159.649 219.63 159.417 219.533 159.249C219.446 159.1 219.229 159.02 219.07 158.91C218.986 159.052 218.891 159.188 218.821 159.334C218.667 159.653 218.557 159.994 218.373 160.294C217.95 160.985 217.503 161.662 217.05 162.336C216.389 163.316 215.746 164.312 215.03 165.254C214.619 165.797 214.613 166.426 215.161 166.882C216.411 167.922 217.661 168.968 219.142 170.204ZM228.494 184.77C228.357 184.88 228.221 184.989 228.083 185.098C228.235 185.341 228.351 185.614 228.545 185.82C228.998 186.3 229.537 186.709 229.954 187.214C230.843 188.29 231.675 189.413 232.535 190.513C233.075 191.204 233.658 191.866 234.155 192.584C234.59 193.213 234.942 193.32 235.545 192.77C236.305 192.078 237.031 191.352 237.746 190.614C238.299 190.044 238.163 188.849 237.627 188.238C236.927 187.442 236.074 186.756 235.807 185.636C235.633 184.9 234.551 184.36 233.738 184.494C233.047 184.609 232.366 184.784 231.693 184.969C231.55 185.009 231.409 185.202 231.361 185.353C231.333 185.444 231.463 185.672 231.561 185.697C232.845 186.036 233.358 187.249 234.295 187.976C234.445 188.092 234.499 188.588 234.383 188.702C234.185 188.9 233.726 189.1 233.535 189.004C232.966 188.712 232.439 188.314 231.955 187.893C230.783 186.872 229.646 185.813 228.494 184.77ZM206.663 183.418C207.249 183.793 207.729 184.129 208.239 184.413C208.582 184.604 208.958 184.798 209.339 184.85C210.087 184.954 210.875 184.856 211.598 185.03C212.589 185.269 213.453 185.96 214.573 185.764C214.778 185.728 215.038 185.857 215.241 185.965C216.561 186.669 218.682 186.005 219.143 184.664C219.269 184.297 219.183 183.729 218.958 183.413C218.622 182.942 218.102 182.578 217.607 182.24C217.365 182.072 217.005 181.994 216.698 181.994C214.981 181.993 213.262 182.058 211.545 182.028C211.085 182.02 210.638 181.682 210.169 181.624C209.738 181.57 209.201 181.557 208.858 181.76C208.122 182.198 207.479 182.788 206.663 183.418ZM282.787 155.024C283.345 154.262 283.763 153.632 284.246 153.052C284.513 152.73 284.85 152.426 285.222 152.233C285.75 151.96 286.091 151.681 286.07 151.02C286.022 149.533 285.982 148.038 286.077 146.554C286.162 145.192 285.031 144.606 284.575 143.684C283.571 144.22 282.719 144.674 281.723 145.208C282.661 145.89 282.666 146.602 282.446 147.349C282.337 147.718 282.193 148.081 282.035 148.436C281.637 149.329 281.357 150.313 280.777 151.081C280.053 152.045 279.929 152.614 280.841 153.473C281.374 153.976 281.99 154.396 282.787 155.024ZM279.359 175.81C279.515 175.789 279.695 175.726 279.867 175.744C281.881 175.945 283.434 175.086 284.749 173.722C285.043 173.416 285.129 172.885 285.458 172.649C286.126 172.169 286.09 171.546 286.047 170.894C285.999 170.166 285.705 170.038 285.026 170.297C284.306 170.572 283.685 170.949 283.058 171.397C282.366 171.89 281.471 172.105 280.699 172.504C279.766 172.986 278.882 173.561 277.946 174.04C277.514 174.261 277.018 174.408 276.535 174.482C275.331 174.669 274.297 174.102 273.215 173.724C272.925 173.622 272.545 173.761 272.205 173.789C272.25 174.122 272.173 174.553 272.359 174.772C273.037 175.564 273.801 176.285 274.537 177.037C274.934 176.682 275.217 176.43 275.625 176.065C275.889 176.489 276.139 176.805 276.297 177.16C276.562 177.761 278.214 178.25 278.721 177.841C278.785 177.789 278.835 177.701 278.858 177.621C279.025 177.036 279.185 176.446 279.359 175.81ZM213.335 177.062C213.819 177.062 214.233 177.165 214.545 177.037C214.943 176.874 215.511 176.561 215.559 176.249C215.646 175.676 215.445 175.046 215.29 174.458C215.147 173.914 214.961 173.368 214.694 172.873C214.558 172.62 214.217 172.333 213.946 172.31C213.045 172.232 212.223 172.277 211.474 173.046C210.781 173.758 209.717 174.117 208.93 174.762C207.879 175.625 206.926 176.6 205.959 177.553C205.161 178.342 205.189 178.768 205.957 179.614C206.175 179.854 206.357 180.133 206.518 180.416C206.913 181.104 207.553 181.205 208.133 180.642C208.846 179.948 209.491 179.174 210.271 178.562C211.198 177.837 211.927 176.622 213.335 177.062ZM237.977 196.266C237.646 196.518 237.454 196.649 237.281 196.801C236.829 197.193 236.417 197.878 235.933 197.928C235.111 198.012 234.719 198.473 234.203 198.929C233.41 199.63 232.631 200.458 231.679 200.842C230.87 201.169 229.826 200.949 228.885 200.952C228.806 200.952 228.721 200.797 228.651 200.706C228.295 200.233 227.962 199.741 227.582 199.286C227.339 198.994 227.039 198.744 226.747 198.494C226.389 198.19 226.225 198.34 226.001 198.717C225.355 199.802 224.718 200.912 223.922 201.892C223.202 202.777 222.286 203.505 223.307 204.706C223.357 204.765 223.322 204.884 223.35 204.968C223.726 206.093 223.901 207.348 225.323 207.833C226.522 207.112 227.751 206.377 228.971 205.63C229.15 205.522 229.314 205.37 229.443 205.208C229.803 204.754 229.634 203.632 229.194 203.576C228.078 203.436 226.958 203.312 225.835 203.229C225.354 203.193 224.985 203.146 224.983 202.56C224.982 202.017 225.13 201.724 225.791 201.806C226.537 201.898 227.443 201.645 228.015 201.974C228.902 202.485 229.79 202.344 230.566 202.196C231.638 201.993 232.65 201.42 233.649 200.932C235.082 200.233 236.482 199.47 237.89 198.725C237.979 198.677 238.069 198.532 238.066 198.433C238.053 197.764 238.014 197.094 237.977 196.266ZM260.435 152.485H260.438C260.438 151.798 260.511 151.102 260.414 150.429C260.338 149.904 260.199 149.212 259.823 148.938C259.009 148.345 258.046 147.924 257.102 147.522C256.211 147.142 255.245 146.93 254.354 146.549C252.155 145.608 251.483 146.389 251.19 148.513C251.159 148.737 251.131 148.99 251.009 149.169C250.607 149.753 250.643 150.506 251.235 150.818C252.169 151.31 253.169 151.81 254.111 152.124C254.951 152.402 255.743 152.714 256.506 153.133C257.581 153.722 258.83 154.048 259.606 155.094C259.706 155.228 260.055 155.354 260.142 155.292C260.298 155.178 260.414 154.924 260.422 154.724C260.454 153.978 260.435 153.232 260.435 152.485ZM286.71 173.689C286.346 174.196 286.077 174.72 285.667 175.104C285.221 175.521 284.674 175.865 284.117 176.138C283.315 176.533 282.445 176.794 281.645 177.189C281.057 177.478 280.174 177.46 280.194 178.517C280.198 178.768 279.477 179.092 279.041 179.27C278.711 179.405 278.305 179.361 277.821 179.406C278.077 179.854 278.21 180.189 278.434 180.45C278.661 180.716 279.029 180.869 279.245 181.14C280.073 182.174 281.121 182.99 282.313 183.497C283.001 183.789 284.005 183.985 284.614 183.053C284.707 182.912 284.885 182.816 285.038 182.72C286.515 181.79 287.35 180.27 287.782 178.81C288.293 177.082 287.969 175.181 286.71 173.689ZM221.319 190.637C220.834 191.486 220.199 192.096 220.198 192.706C220.195 193.77 219.742 194.513 219.137 195.282C218.953 195.518 218.855 195.874 218.851 196.177C218.823 198.173 218.811 200.169 218.845 202.165C218.853 202.598 219.066 203.029 219.195 203.502C219.903 203.272 220.533 203.22 220.933 202.9C221.603 202.362 222.157 201.676 222.703 201.01C223.185 200.422 223.582 199.769 224.033 199.157C224.677 198.281 225.335 197.414 225.929 196.624C225.323 195.505 224.879 194.376 224.162 193.444C223.407 192.465 222.391 191.676 221.319 190.637ZM205.002 176.8C205.593 175.993 205.927 175.389 206.406 174.924C206.882 174.462 207.491 174.125 208.063 173.764C209.502 172.852 210.949 171.952 212.403 171.066C212.57 170.964 212.811 170.941 213.019 170.94C214.125 170.929 215.23 170.938 216.335 170.94H217.371C217.455 170.828 217.538 170.714 217.622 170.602C217.383 170.48 217.114 170.393 216.911 170.23C215.862 169.381 214.817 168.526 213.793 167.648C213.093 167.045 210.879 166.72 210.049 167.13C209.27 167.516 208.486 167.894 207.702 168.27C206.859 168.676 206.015 169.076 205.17 169.476C204.225 169.922 203.729 171.136 204.086 171.948C204.302 172.437 204.441 172.98 204.495 173.51C204.562 174.16 204.457 174.825 204.521 175.476C204.558 175.853 204.781 176.214 205.002 176.8ZM249.901 142.726C250.185 141.677 251.323 139.997 252.222 139.558C253.021 139.168 253.447 138.674 253.269 137.736C253.17 137.224 253.149 136.618 253.339 136.15C253.95 134.653 254.041 133.086 254.173 131.521C254.235 130.786 254.102 130.008 254.309 129.32C254.518 128.621 254.203 128.358 253.69 128.39C252.726 128.452 251.597 128.421 250.859 128.9C249.938 129.497 248.689 129.968 248.446 131.302C248.398 131.569 248.135 131.792 248.017 132.053C247.841 132.441 247.581 132.844 247.574 133.244C247.535 135.417 247.563 137.592 247.574 139.765C247.575 139.968 247.539 140.237 247.653 140.362C248.381 141.168 249.147 141.942 249.901 142.726ZM204.879 139.684C205.429 139.397 205.859 139.278 206.133 139.008C206.741 138.405 207.227 137.682 207.845 137.088C208.575 136.386 209.549 135.878 210.133 135.088C210.909 134.038 211.917 133.657 213.115 133.498C214.086 133.37 215.061 133.266 216.219 133.129C215.459 132.306 214.813 131.75 214.355 131.074C213.795 130.249 213.369 129.281 212.374 128.922C211.781 128.708 211.051 128.789 210.391 128.844C210.195 128.86 210.058 129.266 209.843 129.433C209.673 129.565 209.43 129.624 209.211 129.68C208.987 129.737 208.703 129.681 208.531 129.796C207.517 130.47 206.501 131.149 205.537 131.888C204.678 132.546 203.665 133.174 204.021 134.506C204.145 134.972 204.405 135.416 204.45 135.882C204.531 136.709 204.458 137.548 204.523 138.377C204.557 138.805 204.749 139.222 204.879 139.684ZM261.007 156.966C261.549 156.064 262.57 155.854 263.337 156.498C264.158 157.188 264.983 157.877 265.831 158.534C266.299 158.898 266.821 159.197 267.318 159.524C267.994 159.969 268.633 160.489 269.363 160.824C269.715 160.985 270.322 160.934 270.667 160.738C271.45 160.29 272.173 159.726 272.866 159.149C273.795 158.378 274.674 157.55 275.573 156.749C274.839 156.444 274.01 156.001 273.123 155.75C271.914 155.41 270.718 155.184 269.535 154.622C268.287 154.029 267.025 153.549 265.961 152.641C265.411 152.173 264.743 151.837 264.105 151.425C263.774 152.136 263.447 152.816 263.139 153.504C262.682 154.524 262.503 155.77 261.007 155.821V156.966ZM237.727 206.644C237.855 205.561 238.019 204.542 238.083 203.517C238.133 202.746 238.037 201.968 238.045 201.194C238.047 200.988 238.145 200.686 238.298 200.604C238.447 200.524 238.825 200.593 238.927 200.724C239.162 201.026 239.422 201.401 239.439 201.756C239.498 202.946 239.506 204.145 239.435 205.334C239.383 206.196 240.025 206.434 240.594 206.598C241.121 206.75 241.831 206.93 242.121 206.097C242.167 205.964 242.427 205.889 242.601 205.812C243.949 205.21 244.677 203.062 244.097 201.793C243.711 200.949 242.957 200.346 242.879 199.24C242.797 198.04 241.785 197.881 240.743 198.598C239.95 199.145 239.089 199.602 238.245 200.076C237.405 200.546 236.554 201.002 235.695 201.441C234.506 202.048 233.283 202.593 232.123 203.248C231.785 203.438 231.534 203.884 231.407 204.264C231.361 204.408 231.769 204.704 231.982 204.918C232.129 205.065 232.283 205.212 232.459 205.321C233.183 205.77 233.867 206.389 234.661 206.594C235.519 206.814 236.483 206.644 237.727 206.644ZM260.445 186.416C259.469 186.113 258.918 184.925 257.687 185.338C257.645 185.352 257.559 185.308 257.525 185.266C256.674 184.249 255.298 184.27 254.221 183.694C253.397 183.254 252.003 183.594 251.534 184.336C251.154 184.934 250.85 185.616 250.695 186.3C250.597 186.737 250.654 187.441 250.945 187.686C252.294 188.824 253.751 189.838 255.163 190.905C255.545 191.193 255.879 191.541 256.275 191.806C257.049 192.326 257.834 192.83 258.643 193.293C259.045 193.521 259.502 193.705 259.954 193.765C260.081 193.782 260.418 193.288 260.423 193.024C260.461 190.821 260.445 188.618 260.445 186.416ZM278.549 182.644C278.33 183.524 278.202 184.112 278.033 184.689C277.903 185.124 277.733 185.549 277.558 185.969C277.134 186.993 276.695 188.012 276.262 189.032C276.165 189.261 276.085 189.501 275.959 189.716C275.773 190.038 275.565 190.352 275.345 190.654C274.766 191.452 274.177 192.241 273.593 193.034C273.281 193.46 272.943 193.874 272.683 194.329C272.634 194.416 272.891 194.816 273.021 194.822C273.873 194.866 274.742 194.937 275.578 194.816C276.874 194.628 278.162 194.344 279.422 193.994C279.881 193.868 280.417 193.521 280.627 193.128C281.205 192.053 281.475 190.801 282.153 189.804C282.906 188.696 282.981 187.562 282.866 186.366C282.833 186.021 282.497 185.652 282.206 185.392C281.745 184.982 281.198 184.664 280.701 184.29C280.002 183.768 279.314 183.23 278.549 182.644ZM246.729 187.881C247.035 187.469 247.243 187.162 247.478 186.877C248.309 185.873 249.358 184.954 249.403 183.569C249.425 182.912 249.558 182.133 248.815 181.614C247.939 181.004 247.103 180.337 246.261 179.681C245.783 179.309 243.197 179.065 242.661 179.353C240.881 180.309 239.175 181.421 237.146 181.866C236.479 182.013 235.813 182.349 235.158 182.322C233.153 182.238 231.018 182.905 229.198 181.454C229.043 181.332 228.297 181.558 228.27 181.702C228.187 182.13 228.177 182.882 228.409 182.998C229.019 183.304 229.775 183.462 230.47 183.454C231.505 183.444 232.535 183.217 233.573 183.122C235.311 182.962 237.053 182.833 238.793 182.69C238.823 182.688 238.865 182.692 238.882 182.674C239.549 181.982 240.209 182.486 240.857 182.702C241.105 182.785 241.305 182.994 241.549 183.097C242.955 183.686 244.385 185.774 244.375 187.24C244.369 188.522 244.326 189.808 244.389 191.088C244.407 191.484 244.721 191.866 244.939 192.342C245.239 191.802 245.33 191.416 245.579 191.237C246.289 190.726 246.185 190.157 245.865 189.516C245.242 188.269 245.427 187.956 246.729 187.881ZM251.435 180.332C251.331 180.334 251.227 180.337 251.123 180.34C250.873 179.988 250.337 179.532 250.426 179.304C250.726 178.529 251.183 177.788 251.706 177.128C252.127 176.596 252.738 176.206 253.253 175.741C254.259 174.829 254.285 173.64 254.17 172.442C254.026 170.921 254.789 169.197 253.233 167.977C252.746 167.596 252.177 167.238 251.585 167.078C251.047 166.934 250.429 167.089 249.847 167.081C248.565 167.065 248.141 167.64 248.61 168.826C248.83 169.384 249.203 169.9 249.331 170.472C249.541 171.408 249.601 172.376 249.737 173.328C249.765 173.522 249.787 173.769 249.914 173.89C250.487 174.437 250.266 175.002 250.035 175.765C249.378 175.106 248.514 174.816 248.414 173.866C248.346 173.217 248.358 172.558 248.245 171.917C248.19 171.608 247.93 171.332 247.746 171.012C247.486 171.449 247.315 171.71 247.171 171.984C246.981 172.348 246.633 172.736 246.662 173.089C246.791 174.629 245.434 175.468 244.951 176.709C244.822 177.044 244.519 177.316 244.297 177.616C244.647 177.71 244.998 177.806 245.349 177.902C245.437 177.925 245.539 177.926 245.613 177.972C246.753 178.674 248.238 178.666 249.241 179.672C249.726 180.158 250.306 180.556 250.898 181.038C251.129 180.737 251.282 180.534 251.435 180.332ZM269.881 148.89C270.317 148.398 271.025 147.912 271.595 148.516C272.413 149.381 273.567 149.402 274.499 149.961C275.547 150.589 276.819 150.87 278.006 151.269C278.233 151.345 278.626 151.366 278.75 151.237C279.15 150.822 279.541 150.362 279.785 149.852C280.273 148.832 280.781 147.826 280.766 146.618C280.761 146.134 280.955 145.58 280.459 145.402C280.043 145.254 279.419 145.35 279.006 145.558C278.277 145.928 277.653 145.98 276.981 145.505C276.822 145.393 276.607 145.34 276.41 145.297C275.165 145.03 273.849 145.104 272.671 144.497C272.482 144.4 272.057 144.45 271.915 144.594C271.219 145.305 270.562 146.054 269.933 146.821C269.509 147.338 269.229 147.981 268.754 148.44C267.863 149.298 266.879 150.065 265.863 150.929C265.839 150.873 265.853 151.034 265.933 151.078C267.734 152.05 269.47 153.198 271.378 153.905C272.594 154.354 273.902 154.621 275.098 155.19C276.063 155.652 277.907 154.474 278.002 153.422C278.063 152.74 277.533 152.773 277.151 152.596C276.295 152.197 275.449 151.774 274.579 151.405C273.605 150.993 272.575 150.693 271.635 150.222C271.022 149.914 270.523 149.39 269.881 148.89ZM218.245 149.293C217.891 149.746 217.611 150.07 217.375 150.421C217.235 150.628 217.155 150.874 217.062 151.108C216.947 151.393 216.839 151.682 216.742 151.973C216.379 153.061 216.039 154.157 215.65 155.236C215.514 155.61 215.258 155.944 215.058 156.296C214.915 156.273 214.771 156.25 214.629 156.229C214.542 155.469 214.277 154.678 214.414 153.96C214.569 153.148 215.261 152.428 215.402 151.617C215.599 150.474 216.114 149.616 217.238 148.918C216.865 148.816 216.701 148.732 216.539 148.733C214.974 148.75 213.409 148.805 211.843 148.79C211.423 148.786 211.01 148.528 210.583 148.492C210.361 148.473 209.907 148.697 209.914 148.79C209.965 149.566 209.933 150.409 210.246 151.094C210.69 152.065 210.853 153.016 210.807 154.053C210.763 155.096 210.886 156.15 210.775 157.182C210.669 158.177 211.241 158.702 211.961 159.093C213.05 159.684 213.899 160.501 214.626 161.45C214.721 161.573 214.615 161.945 214.479 162.097C214.37 162.22 213.998 162.285 213.873 162.198C213.278 161.788 212.729 161.317 212.165 160.865C211.261 160.142 210.654 160.108 209.822 160.872C210.497 161.34 211.137 161.805 211.803 162.233C212.107 162.429 212.533 162.484 212.782 162.722C213.453 163.368 214.158 163.45 214.787 162.786C215.37 162.173 215.95 161.534 216.402 160.828C217.222 159.546 217.983 158.225 218.699 156.884C219.098 156.138 219.529 155.344 219.635 154.533C219.793 153.33 219.689 152.093 219.671 150.87C219.658 149.896 219.207 149.448 218.245 149.293ZM220.815 185.665C220.861 185.906 220.989 186.37 221.026 186.84C221.066 187.342 220.969 187.858 221.033 188.357C221.069 188.638 221.245 188.965 221.465 189.15C222.29 189.841 223.315 190.362 223.973 191.172C224.793 192.182 225.886 192.988 226.327 194.33C226.765 195.658 228.026 196.634 228.254 198.105C228.281 198.276 228.542 198.404 228.667 198.57C228.825 198.778 228.927 199.028 229.101 199.218C229.27 199.406 229.481 199.642 229.707 199.684C230.555 199.838 231.278 199.661 231.906 198.978C232.909 197.889 234.138 196.917 234.017 195.282C233.981 194.8 233.398 194.377 233.257 193.877C232.915 192.662 231.811 192.018 231.153 191.049C230.877 190.644 230.395 190.377 230.059 190.002C229.19 189.034 228.398 187.997 227.487 187.066C226.322 185.876 225.537 185.905 224.191 186.864C223.89 187.078 223.337 186.957 222.899 186.992C222.886 186.744 222.759 186.386 222.879 186.269C223.391 185.772 223.914 185.208 224.553 184.929C225.301 184.604 225.229 184.364 224.717 183.964C224.041 183.433 223.374 182.888 222.655 182.416C222.054 182.02 221.035 182.648 221.007 183.356C220.979 184.033 220.898 184.709 220.815 185.665ZM284.713 157.648C284.231 157.282 283.85 156.789 283.367 156.666C282.087 156.344 281.178 155.532 280.195 154.776C279.961 154.594 279.217 154.608 279.211 154.633C279.059 155.349 277.867 155.373 278.041 156.301C278.066 156.437 277.822 156.64 277.677 156.786C277.014 157.45 276.375 158.142 275.663 158.754C274.85 159.452 273.993 160.109 273.106 160.717C272.458 161.162 271.719 161.48 271.042 161.888C270.138 162.43 269.259 163.012 268.359 163.56C268.245 163.63 268.063 163.617 267.915 163.609C267.167 163.573 266.939 164.052 266.786 164.638C266.482 165.805 267.614 166.3 268.063 167.096C268.378 167.656 269.195 167.933 269.743 168.388C270.457 168.976 271.291 168.994 271.957 168.561C273.479 167.572 274.927 166.469 276.358 165.354C277.606 164.381 278.706 163.204 280.037 162.365C280.657 161.973 280.707 161.584 280.695 161.098C280.683 160.612 280.533 160.114 280.361 159.65C280.274 159.417 279.815 159.204 279.853 159.062C279.958 158.66 280.21 158.282 280.465 157.938C280.501 157.89 281.057 158.062 281.069 158.166C281.19 159.193 281.942 159.617 282.57 159.938C283.298 159.158 283.947 158.465 284.713 157.648ZM206.279 182.974C206.175 182.757 206.073 182.501 205.931 182.266C205.739 181.944 205.511 181.641 205.313 181.322C205.153 181.066 205.047 180.77 204.858 180.537C203.877 179.33 202.758 178.278 203.037 176.438C203.337 174.46 202.906 172.46 202.689 170.468C202.502 168.758 202.659 167.013 202.694 165.285C202.706 164.684 202.509 164.373 201.847 164.452C200.695 164.588 199.358 163.996 198.49 165.258C198.462 165.3 198.366 165.29 198.325 165.328C197.693 165.912 196.886 166.405 196.485 167.114C196.086 167.817 196.094 168.737 195.935 169.564C195.921 169.638 195.998 169.728 196.021 169.812C196.167 170.334 196.39 170.852 196.438 171.384C196.609 173.266 195.958 175.265 197.323 176.972C197.354 177.012 197.35 177.09 197.341 177.146C197.221 177.85 197.602 178.172 198.243 178.37C198.663 178.5 199.065 178.714 199.441 178.942C199.926 179.237 200.383 179.478 200.075 180.264C199.726 181.154 200.345 181.854 201.309 181.834C202.202 181.817 203.07 181.79 203.738 182.522C203.843 182.637 204.066 182.673 204.241 182.7C204.838 182.792 205.439 182.862 206.279 182.974ZM218.121 204.029C217.713 203.462 217.329 202.722 217.415 201.742C217.529 200.44 217.425 199.121 217.439 197.809C217.446 197.282 217.261 197.002 216.686 197.098C215.922 197.225 215.157 197.497 214.399 197.476C212.011 197.41 209.625 197.262 207.242 197.092C206.335 197.026 205.437 196.824 204.539 196.66C204.171 196.593 203.819 196.404 203.453 196.377C202.911 196.34 202.29 196.245 201.83 196.448C200.907 196.854 200.099 197.496 199.193 197.946C197.822 198.629 197.622 198.918 197.805 200.46C198.518 200.689 199.245 200.917 199.969 201.154C200.286 201.258 200.598 201.381 200.913 201.494C201.027 201.185 201.221 200.88 201.243 200.565C201.299 199.75 201.111 198.87 201.985 198.333C202.262 198.162 202.601 198.082 202.911 197.961C202.953 198.292 203.057 198.628 203.023 198.95C202.897 200.157 202.725 201.357 202.566 202.585C203.026 202.638 203.237 202.661 203.446 202.686C206.185 203.025 208.969 202.282 211.706 203.128C212.858 203.484 214.145 203.409 215.362 203.585C216.325 203.725 216.822 204.493 216.53 205.297C216.282 205.98 216.011 206.654 215.751 207.333C215.803 207.4 215.855 207.466 215.907 207.533C216.113 207.389 216.329 207.257 216.521 207.1C216.705 206.949 216.859 206.766 217.035 206.608C217.158 206.496 217.371 206.425 217.417 206.294C217.659 205.593 217.861 204.878 218.121 204.029ZM202.734 192.396C202.723 192.512 202.713 192.628 202.702 192.744C202.374 192.78 202.029 192.897 201.718 192.84C200.885 192.686 200.077 192.374 199.239 192.282C198.362 192.186 197.462 192.26 196.573 192.281C195.869 192.298 195.753 192.569 196.029 193.198C196.233 193.666 196.385 194.18 196.434 194.685C196.501 195.365 196.445 196.054 196.443 196.741C196.441 197.396 197.015 197.768 197.573 197.373C198.625 196.632 199.643 195.897 200.905 195.469C201.755 195.18 202.501 194.656 203.478 194.924C204.579 195.228 205.686 195.529 206.807 195.745C207.335 195.846 207.906 195.721 208.454 195.744C209.397 195.784 209.818 195.372 209.881 194.452C209.979 193.018 208.993 191.733 209.338 190.252C209.422 189.893 209.123 189.444 208.978 189.044C208.81 188.581 208.482 188.132 208.459 187.666C208.375 185.848 207.869 185.321 205.991 185.404C204.89 185.452 203.718 185.106 202.715 185.796C201.985 186.298 201.194 186.221 200.385 186.2C200.154 186.194 199.873 186.249 199.695 186.38C198.769 187.066 197.893 187.82 196.949 188.485C196.258 188.972 196.303 189.644 196.477 190.241C196.659 190.873 197.275 191.062 197.961 190.99C198.386 190.946 198.825 190.936 199.249 190.986C200.55 191.144 201.682 191.688 202.734 192.396ZM247.882 166.078C249.635 165.501 251.171 165.532 252.659 165.96C253.454 166.19 254.006 166.234 254.615 165.6C255.702 164.468 256.815 163.389 257.477 161.926C257.913 160.965 257.83 160.678 256.77 160.56C256.462 160.526 256.151 160.388 255.875 160.237C254.761 159.626 253.717 158.653 252.535 158.462C251.283 158.26 250.962 157.305 250.097 156.74C250.43 156.504 250.825 156.24 251.071 156.334C252.333 156.82 253.601 157.317 254.777 157.965C255.97 158.621 257.47 158.973 257.959 160.476C258.253 160.341 258.55 160.209 258.842 160.069C259.598 159.706 260.281 158.137 259.954 157.562C259.131 156.122 257.666 155.394 256.335 154.548C255.563 154.056 254.641 153.782 253.778 153.426C252.181 152.768 250.578 152.12 248.919 151.444C248.857 151.765 248.809 151.858 248.83 151.933C248.869 152.073 248.931 152.212 249.013 152.333C249.698 153.349 249.651 154.661 249.233 155.493C248.55 156.846 248.777 158.486 247.671 159.661C247.523 159.818 247.582 160.177 247.581 160.441C247.573 161.962 247.553 163.485 247.587 165.005C247.595 165.378 247.787 165.749 247.882 166.078ZM199.722 144.837C200.039 144.682 200.297 144.47 200.574 144.44C201.459 144.342 201.881 143.788 202.191 143.072C202.269 142.889 202.429 142.742 202.518 142.564C202.718 142.165 203.074 141.746 203.051 141.35C202.942 139.326 203.239 137.314 202.741 135.257C202.427 133.964 202.382 132.454 203.001 131.008C203.37 130.145 203.077 129.008 203.039 127.996C203.034 127.846 202.819 127.624 202.658 127.574C201.541 127.241 200.419 126.917 199.282 126.661C199.069 126.613 198.738 126.84 198.534 127.018C197.895 127.573 197.369 128.297 196.65 128.706C196.019 129.066 195.905 129.454 195.91 130.061C195.929 132.566 195.911 135.072 195.923 137.577C195.925 137.86 196.019 138.145 196.089 138.425C196.202 138.872 196.457 139.322 196.43 139.758C196.331 141.418 197.102 142.7 198.214 143.82C198.638 144.248 199.233 144.514 199.722 144.837ZM215.594 139.049C215.737 138.238 215.462 137.62 214.954 136.986C214.734 136.712 214.905 136.14 214.898 135.704C215.275 135.733 215.85 135.628 215.989 135.82C216.297 136.249 216.487 136.816 216.545 137.344C216.634 138.172 216.539 139.014 216.589 139.848C216.623 140.453 216.389 140.628 215.79 140.614C214.826 140.592 213.834 140.453 212.958 141.06C212.698 141.24 212.325 141.264 212.061 141.441C211.741 141.656 211.482 141.958 211.198 142.222C211.566 142.524 211.899 143.013 212.31 143.084C213.114 143.22 213.965 143.168 214.789 143.098C215.074 143.074 215.474 142.829 215.582 142.584C216.163 141.272 217.115 141.618 217.787 142.346C218.178 142.77 218.085 143.202 217.547 143.525C216.026 144.44 214.367 144.576 212.63 144.473C211.849 144.428 211.097 144.509 210.631 143.714C210.567 143.605 210.313 143.601 210.143 143.553C208.989 143.221 208.59 144.422 207.733 144.728C207.574 144.784 207.581 145.897 207.683 145.925C208.558 146.164 208.939 147.209 210.062 147.097C211.522 146.952 213.01 147 214.481 147.061C215.307 147.097 216.129 147.306 216.943 147.48C217.361 147.569 217.761 147.741 218.161 147.897C218.45 148.01 218.881 148.337 218.979 148.257C219.277 148.014 219.629 147.622 219.634 147.285C219.683 143.676 219.683 140.065 219.65 136.456C219.647 136.144 219.377 135.745 219.106 135.542C218.422 135.029 217.629 134.801 216.73 134.902C216.155 134.966 215.561 134.932 214.982 134.88C213.767 134.77 212.565 134.549 211.589 135.61C211.319 135.902 210.635 135.8 210.686 136.466C210.69 136.508 210.414 136.546 210.295 136.625C210.146 136.722 210.018 136.854 209.891 136.981C209.269 137.6 208.653 138.225 208.025 138.84C207.913 138.95 207.742 139.005 207.625 139.113C207.093 139.606 206.605 140.15 206.033 140.594C205.626 140.909 205.218 141.81 205.517 142.161C205.934 142.653 206.421 143.092 206.807 143.481C207.873 142.716 208.847 142.036 209.795 141.324C210.09 141.102 210.263 140.646 210.577 140.544C212.206 140.01 213.863 139.556 215.594 139.049ZM255.223 167.657C255.39 168.5 255.581 169.066 255.601 169.64C255.65 171.01 255.695 172.389 255.597 173.754C255.519 174.804 255.783 175.577 256.709 176.153C257.642 176.734 257.885 178.28 259.443 178.002C259.479 177.996 259.538 178.072 259.578 178.116C260.418 179.044 261.646 178.925 262.723 179.181C263.103 179.272 263.55 179.144 263.957 179.066C264.839 178.896 265.609 178.473 266.294 177.926C266.771 177.545 267.237 177.13 267.622 176.665C268.771 175.276 268.53 173.608 268.549 171.994C268.557 171.261 268.179 170.981 267.463 170.994C266.45 171.013 265.437 170.998 264.423 171.018C264.191 171.024 263.938 171.068 263.737 171.17C263.034 171.534 262.067 171.425 261.625 172.278C261.589 172.348 261.329 172.285 261.187 172.33C260.915 172.418 260.625 172.498 260.391 172.653C259.751 173.08 259.181 173.632 258.494 173.958C258.105 174.144 257.538 174.009 257.058 173.962C256.943 173.95 256.777 173.713 256.773 173.576C256.769 173.444 256.914 173.261 257.045 173.177C257.91 172.625 258.785 172.085 259.666 171.557C260.486 171.064 261.269 170.445 262.162 170.149C263.131 169.826 264.209 169.8 265.241 169.666C265.635 169.616 266.047 169.67 266.434 169.592C266.701 169.537 267.091 169.38 267.147 169.19C267.219 168.949 267.069 168.59 266.907 168.352C266.51 167.768 265.933 167.277 265.642 166.654C264.883 165.032 263.422 164.68 261.846 164.456C260.666 164.288 259.393 164.858 258.287 164.038C258.229 163.994 258.026 164.05 257.954 164.121C257.478 164.582 256.961 165.02 256.573 165.545C256.026 166.285 255.578 167.093 255.223 167.657ZM243.89 198.389C244.062 198.697 244.371 198.99 244.347 199.256C244.282 199.993 244.709 200.381 245.258 200.665C246.914 201.522 248.579 202.365 250.269 203.156C250.755 203.384 251.341 203.409 251.874 203.553C252.067 203.606 252.227 203.769 252.421 203.824C253.111 204.017 253.873 204.445 254.49 204.304C255.369 204.102 256.465 203.812 256.506 202.552C256.509 202.474 256.586 202.393 256.643 202.324C257.201 201.646 257.829 201.013 258.302 200.285C258.675 199.709 258.877 199.022 259.123 198.374C259.257 198.026 259.395 197.654 259.403 197.292C259.419 196.64 259.602 195.73 259.246 195.382C258.346 194.508 257.193 193.877 256.129 193.166C254.826 192.296 253.513 191.44 252.198 190.588C251.855 190.365 251.413 190.244 251.15 189.96C250.435 189.192 249.794 188.361 249.111 187.541C248.233 188.105 248.071 188.884 247.855 189.829C247.563 191.101 246.63 192.222 246.134 193.468C245.582 194.854 243.954 195.801 244.362 197.594C244.413 197.818 244.053 198.13 243.89 198.389ZM270.118 174.286C269.882 174.862 269.634 175.364 269.471 175.89C269.303 176.437 269.237 177.013 269.083 177.564C269.033 177.748 268.879 177.933 268.721 178.053C268.187 178.453 267.671 178.904 267.075 179.19C265.926 179.744 264.795 180.252 264.266 181.522C263.962 182.252 263.667 183.06 263.127 183.606C261.841 184.912 261.81 186.454 261.906 188.072C261.917 188.249 261.855 188.44 261.901 188.605C261.975 188.873 262.035 189.234 262.235 189.366C263.555 190.236 264.91 191.056 266.255 191.888C266.953 192.32 267.703 192.684 268.342 193.184C269.051 193.74 270.745 193.901 271.382 193.246C272.257 192.348 273.045 191.366 273.827 190.386C274.19 189.932 274.506 189.422 274.746 188.896C275.163 187.984 275.422 186.994 275.905 186.12C276.331 185.346 276.695 184.614 276.629 183.709C276.61 183.446 276.87 183.169 276.879 182.896C276.886 182.697 276.642 182.305 276.591 182.317C275.845 182.5 275.567 182.145 275.446 181.601C274.541 181.232 273.69 180.781 272.873 180.28C271.877 179.668 271.749 178.798 272.421 177.869C272.538 177.706 272.558 177.349 272.453 177.185C271.894 176.308 271.291 175.457 270.677 174.616C270.57 174.469 270.337 174.41 270.118 174.286ZM192.437 149.161C192.518 149.112 192.601 149.064 192.683 149.014C193.157 149.3 193.599 149.677 194.114 149.845C194.622 150.009 195.447 150.206 195.706 149.962C196.585 149.132 197.498 148.434 198.633 147.961C199.625 147.546 200.499 146.833 201.687 147.01C201.818 147.029 201.995 146.957 202.103 146.87C202.859 146.257 203.737 146.137 204.693 146.117C205.321 146.102 205.433 146.353 205.442 146.841C205.453 147.365 205.242 147.66 204.671 147.549C203.87 147.394 203.238 147.69 202.659 148.184C202.55 148.278 202.411 148.358 202.273 148.397C201.181 148.692 200.062 148.906 199.001 149.28C197.818 149.696 196.874 150.436 196.285 151.576C195.809 152.497 196.146 153.065 197.227 153.141C197.779 153.18 198.325 153.344 198.865 153.48C199.497 153.64 200.119 153.836 200.749 154.008C201.287 154.156 201.846 154.253 202.362 154.456C202.531 154.522 202.738 154.968 202.682 155.029C202.441 155.294 202.059 155.706 201.819 155.656C200.957 155.474 200.145 155.076 199.286 154.858C198.513 154.661 197.703 154.497 196.909 154.492C196.113 154.488 195.713 155.316 196.018 155.965C196.233 156.424 196.402 156.936 196.434 157.434C196.495 158.385 196.469 159.345 196.431 160.298C196.413 160.778 196.613 161.006 197.066 160.912C197.929 160.73 198.35 161.229 198.555 161.872C198.878 162.88 199.627 163.062 200.566 163.184C202.047 163.374 203.091 162.325 204.405 162.028C205.439 161.794 206.379 161.162 207.139 160.809C207.879 160.078 208.493 159.47 209.362 158.612C209.362 156.83 209.363 154.625 209.359 152.42C209.358 152.276 209.355 152.094 209.271 151.993C208.529 151.096 208.343 150.076 208.425 148.953C208.474 148.286 208.149 147.809 207.483 147.466C206.997 147.216 206.634 146.73 206.235 146.33C206.087 146.181 206.014 145.838 205.877 145.824C205.222 145.748 205.297 145.345 205.335 144.908C205.379 144.389 204.633 143.278 204.161 143.177C204.013 143.145 203.771 143.198 203.679 143.302C203.063 144.005 202.501 144.754 201.87 145.444C201.311 146.052 200.083 146.218 199.311 145.864C198.169 145.338 197.395 145.525 196.334 146.53C196.209 146.65 195.946 146.633 195.747 146.68C195.525 146.733 195.263 146.733 195.085 146.852C194.418 147.293 193.777 147.653 192.886 147.55C192.386 147.493 191.806 147.737 192.246 148.489C192.361 148.685 192.375 148.936 192.437 149.161ZM260.383 133.965C261.03 133.47 261.498 133.072 262.01 132.736C262.337 132.521 262.722 132.277 263.091 132.261C264.534 132.196 265.979 132.188 267.422 132.228C267.802 132.238 268.367 132.406 268.502 132.67C268.673 133.002 268.517 133.509 268.451 133.933C268.399 134.261 268.254 134.576 268.178 134.902C268.126 135.129 268.149 135.373 268.086 135.596C267.967 136.018 267.673 136.442 267.705 136.846C267.763 137.589 268.227 138.349 268.121 139.044C267.949 140.173 268.663 140.705 269.271 141.385C269.561 141.709 269.777 142.098 269.99 142.478C270.299 143.029 271.118 143.369 271.539 143.038C272.598 142.209 273.622 141.337 274.667 140.492C274.87 140.328 275.13 140.229 275.318 140.053C275.485 139.898 275.705 139.674 275.697 139.489C275.675 138.984 275.71 138.208 275.419 138.042C275.007 137.809 274.423 137.469 273.739 137.88C273.194 138.206 272.446 138.244 271.778 138.345C271.391 138.404 270.97 138.385 270.591 138.294C270.462 138.264 270.314 137.741 270.347 137.721C271.053 137.309 271.745 136.782 272.519 136.597C273.405 136.386 273.903 135.708 273.375 134.952C272.806 134.137 272.581 133.278 272.597 132.297C272.605 131.769 272.315 131.244 272.239 130.705C272.199 130.428 272.335 130.128 272.383 129.837C272.433 129.537 272.471 129.234 272.514 128.933C272.13 128.913 271.685 128.761 271.377 128.9C270.837 129.142 270.375 129.554 269.891 129.908C268.329 131.049 266.647 130.626 265.625 128.961C265.257 128.362 264.603 127.588 264.013 127.528C262.321 127.356 260.622 127.693 258.899 127.121C257.939 126.802 257.231 126.328 256.554 125.697C256.018 125.198 255.581 124.568 254.973 124.184C254.403 123.825 253.771 123.496 252.967 123.601C251.381 123.809 249.771 123.858 248.183 124.054C247.95 124.084 247.617 124.549 247.601 124.826C247.535 126.046 247.559 127.272 247.575 128.496C247.578 128.712 247.702 128.925 247.769 129.141C247.979 129.056 248.21 129.001 248.395 128.881C249.121 128.413 249.771 127.713 250.565 127.494C251.758 127.164 253.047 127.113 254.301 127.038C255.389 126.974 256.063 127.892 255.785 128.91C255.746 129.052 255.751 129.204 255.735 129.352C255.529 131.242 255.322 133.134 255.11 135.025C255.097 135.138 255.014 135.245 254.999 135.358C254.901 136.109 254.745 136.861 254.759 137.61C254.765 137.848 255.261 138.293 255.49 138.268C256.295 138.181 256.611 138.753 257.081 139.149C257.487 139.493 257.938 139.786 258.359 140.116C259.051 140.658 260.173 140.378 260.694 141.278C260.757 141.385 261.101 141.324 261.307 141.366C261.773 141.461 262.229 141.618 262.698 141.668C263.257 141.725 263.829 141.74 264.387 141.689C264.782 141.654 265.166 141.386 265.553 141.39C266.353 141.4 266.699 140.973 266.711 140.314C266.75 138.293 266.739 136.269 266.706 134.246C266.703 134.032 266.407 133.625 266.281 133.637C264.759 133.778 263.051 133.112 261.813 134.564C261.671 134.728 261.413 134.798 261.125 134.958C260.83 134.564 260.567 134.212 260.383 133.965ZM287.175 126.653C287.855 127.58 288.833 128.29 288.805 129.513C288.779 130.606 288.971 131.724 288.725 132.796H288.378C288.327 132.672 288.207 132.53 288.235 132.426C288.607 131.048 287.866 129.988 287.267 128.845C286.895 128.136 286.231 127.932 285.691 127.497C284.069 126.189 282.187 126.681 280.425 126.714C279.35 126.736 278.289 127.321 277.217 127.638C276.829 127.753 276.422 127.813 276.03 127.918C275.634 128.024 275.211 128.096 274.859 128.285C274.223 128.628 273.807 129.086 273.915 129.92C274.021 130.74 273.806 131.608 273.969 132.41C274.159 133.35 274.543 134.269 274.962 135.144C275.282 135.814 276.014 135.773 276.666 135.726C277.226 135.686 277.778 135.878 278.094 135.026C278.313 134.434 279.173 134.078 279.711 133.582C280.194 133.137 280.637 132.648 281.087 132.17C281.374 131.866 281.617 131.516 281.929 131.241C282.739 130.528 283.567 129.83 284.418 129.16C284.557 129.05 284.838 129.113 285.054 129.096C285.066 129.548 285.278 130.164 285.054 130.421C284.086 131.53 282.993 132.537 281.938 133.577C281.451 134.056 280.959 134.533 280.454 134.993C279.713 135.666 278.933 136.237 277.842 136.313C277.578 136.332 277.161 136.741 277.131 137.005C277.059 137.625 276.969 138.35 277.761 138.696C278.059 138.826 278.381 138.909 278.853 139.068C278.674 138.664 278.551 138.392 278.353 137.946C278.719 137.772 279.326 137.358 279.433 137.456C279.798 137.792 280.203 138.313 280.193 138.754C280.175 139.378 280.374 139.822 280.887 139.941C281.477 140.076 282.143 140.046 282.745 139.932C283.623 139.765 284.477 139.469 285.335 139.209C285.618 139.124 285.885 138.986 286.153 138.861C286.662 138.621 287.166 138.373 287.842 138.046C287.985 137.553 288.185 136.86 288.401 136.114C288.539 136.192 288.759 136.252 288.765 136.328C288.891 137.798 289.034 139.28 287.799 140.45C287.514 140.721 287.23 140.994 286.947 141.268C285.809 142.369 285.873 143.03 286.942 144.201C288.595 146.009 289.209 148.142 288.731 150.529C288.629 150.565 288.525 150.6 288.422 150.636C288.21 149.876 287.998 149.116 287.786 148.356C287.655 148.373 287.525 148.39 287.394 148.406C287.394 149.273 287.379 150.141 287.41 151.006C287.415 151.124 287.63 151.298 287.778 151.338C288.609 151.561 288.505 151.99 287.99 152.397C287.435 152.836 286.798 153.177 286.205 153.57C285.834 153.817 285.434 154.041 285.123 154.348C284.517 154.949 284.665 155.67 285.407 156.086C285.742 156.274 286.029 156.556 286.379 156.704C286.77 156.87 287.222 157.044 287.621 156.996C287.833 156.969 287.978 156.477 288.166 156.204C288.282 156.033 288.423 155.877 288.553 155.716C288.65 155.909 288.853 156.118 288.826 156.294C288.681 157.261 289.149 158.296 288.381 159.216C288.197 159.437 288.403 160.057 288.563 160.44C289.003 161.489 288.818 162.52 288.741 163.558L288.475 163.604C288.291 163.114 288.077 162.634 287.931 162.134C287.641 161.137 286.651 160.368 286.914 159.168C286.937 159.064 286.434 158.737 286.162 158.721C285.891 158.704 285.545 158.889 285.334 159.086C283.713 160.61 282.119 162.16 280.514 163.698C279.943 164.244 279.398 164.821 278.779 165.309C277.73 166.137 276.526 166.805 275.578 167.725C274.346 168.922 272.826 169.61 271.357 170.409C271.179 170.506 270.947 170.505 270.753 170.578C270.457 170.688 270.173 170.822 269.882 170.946C270.197 171.236 270.481 171.569 270.837 171.798C271.065 171.945 271.477 171.853 271.667 172.02C272.115 172.408 272.397 172.282 272.738 171.904C273.393 171.18 273.901 171.17 274.649 171.82C274.695 171.86 274.745 171.894 274.79 171.936C276.567 173.512 276.199 173.258 278.359 172.226C279.581 171.644 280.698 170.944 281.803 170.184C282.507 169.701 283.382 169.417 284.218 169.16C285.674 168.713 286.43 167.662 286.985 166.394C286.997 166.368 287.007 166.338 287.025 166.314C287.559 165.59 288.094 164.868 288.67 164.089C288.573 164.041 288.71 164.07 288.717 164.116C288.861 165.229 289.135 166.402 288.269 167.334C287.574 168.08 287.313 168.862 287.399 169.846C287.479 170.76 287.126 171.774 288.209 172.381C288.269 172.414 288.295 172.537 288.305 172.621C288.474 174.106 288.657 175.59 288.791 177.077C288.847 177.7 288.717 178.344 288.821 178.954C288.97 179.84 288.717 180.668 288.202 181.266C287.29 182.326 286.765 183.721 285.253 184.325C284.77 184.518 284.511 185.425 284.315 186.053C284.17 186.517 284.283 187.06 284.299 187.566C284.325 188.362 284.441 189.162 283.687 189.777C283.513 189.92 283.522 190.268 283.422 190.512C283.266 190.893 283.174 191.344 282.901 191.624C282.343 192.194 282.479 192.844 282.591 193.464C282.615 193.597 283.198 193.713 283.518 193.704C284.419 193.676 285.322 193.493 286.215 193.533C287.053 193.57 287.534 194.048 287.425 194.973C287.351 195.585 287.41 196.213 287.41 197.064C286.525 196.588 285.969 196.272 286.049 195.478C286.101 194.965 285.813 194.894 285.371 194.9C283.713 194.92 282.054 194.912 280.394 194.92C280.213 194.92 279.977 194.885 279.857 194.977C278.503 196.03 276.909 195.764 275.366 195.778C274.382 195.788 273.395 195.84 272.417 195.772C271.535 195.709 270.666 195.502 269.789 195.38C269.59 195.352 269.378 195.408 269.101 195.432C269.101 195.8 269.165 196.137 269.082 196.436C269.011 196.688 268.822 196.992 268.597 197.106C268.021 197.398 266.669 199.42 266.739 200.033C266.755 200.168 266.813 200.393 266.893 200.413C267.737 200.613 268.591 200.932 269.435 200.913C270.293 200.894 270.551 199.974 270.187 199.108C269.977 198.606 269.922 198.032 269.877 197.484C269.865 197.337 270.133 197.06 270.298 197.038C270.455 197.018 270.751 197.221 270.809 197.384C271.131 198.306 272.006 199.042 271.753 200.18C271.709 200.381 272.134 200.798 272.43 200.934C274.983 202.101 277.718 201.894 280.425 201.84C280.761 201.833 281.089 201.581 281.427 201.458C282.943 200.91 284.514 200.489 285.529 199.074C285.786 198.716 286.394 198.593 286.862 198.352C286.691 199.578 286.525 200.764 286.359 201.948C286.317 201.953 286.275 201.958 286.233 201.964C286.126 201.638 286.021 201.313 285.914 200.988C285.783 201.008 285.653 201.026 285.523 201.046C285.594 201.694 285.666 202.341 285.75 203.096C285.255 203.524 284.655 204.044 284.057 204.564C283.951 204.534 283.846 204.505 283.739 204.477C283.739 204.032 283.769 203.585 283.729 203.142C283.705 202.872 283.653 202.48 283.471 202.378C283.265 202.262 282.898 202.389 282.609 202.448C282.213 202.526 281.825 202.722 281.431 202.726C279.311 202.75 277.19 202.704 275.071 202.749C274.687 202.757 274.311 203.072 273.955 203.334C274.965 203.677 275.527 204.29 275.793 205.245C274.863 205.681 274.143 205.146 273.605 204.72C272.83 204.105 272.282 203.224 271.587 202.502C271.477 202.388 271.101 202.497 270.851 202.53C270.582 202.565 270.246 202.76 270.059 202.664C268.919 202.077 267.749 202.178 266.582 202.35C266.655 202.854 266.818 203.313 266.77 203.75C266.557 205.688 267.665 206.977 269.094 207.985C269.747 208.446 270.703 208.6 271.546 208.688C272.647 208.804 273.771 208.717 274.886 208.717C274.902 208.844 274.917 208.972 274.933 209.098C274.658 209.19 274.383 209.361 274.11 209.36C272.143 209.357 270.178 209.33 268.213 209.273C268.001 209.268 267.754 209.056 267.597 208.878C267.146 208.369 266.786 207.773 266.282 207.326C266.049 207.121 265.485 207.026 265.209 207.157C264.611 207.44 264.031 207.834 263.573 208.302C262.839 209.048 262.035 209.338 260.963 209.304C259.154 209.245 257.341 209.352 255.529 209.365C255.165 209.368 254.799 209.258 254.434 209.201C254.43 209.109 254.426 209.017 254.422 208.925C254.685 208.858 254.945 208.76 255.211 208.733C256.507 208.608 257.847 208.657 259.093 208.346C260.495 207.998 261.786 207.241 263.178 206.833C264.373 206.481 264.637 205.368 265.325 204.63C265.622 204.31 265.275 203.418 265.203 202.788C265.179 202.574 265.026 202.356 265.059 202.161C265.114 201.838 265.463 201.413 265.35 201.242C265.063 200.81 264.646 200.292 264.181 200.169C262.433 199.705 261.895 198.28 261.151 197.005C260.309 197.893 260.318 199.021 260.805 200.184C261.025 200.709 260.73 201.56 260.425 202.142C259.931 203.08 259.426 204.28 258.575 204.701C257.581 205.193 256.603 206.348 255.191 205.717C255.109 205.681 254.99 205.621 254.931 205.652C253.834 206.206 253.07 205.248 252.141 205.102C251.13 204.945 250.067 204.925 249.051 205.041C248.405 205.114 248.173 206.286 248.65 206.95C249.258 207.798 249.773 208.816 251.122 208.736C251.243 208.728 251.378 208.929 251.506 209.033C251.389 209.149 251.27 209.366 251.154 209.364C250.142 209.349 249.129 209.32 248.122 209.232C247.885 209.21 247.654 208.964 247.449 208.79C245.395 207.045 245.398 207.044 243.167 207.109C242.001 207.98 241.185 209.002 240.179 209.229C239.113 209.47 237.805 209.496 236.653 209.172C236.654 209.09 236.657 209.008 236.658 208.926C237.115 208.716 237.573 208.505 238.03 208.293C238.007 208.206 237.986 208.118 237.963 208.032H235.47C235.445 208.081 235.397 208.156 235.37 208.237C235.254 208.589 235.234 209.168 235.014 209.252C234.398 209.485 233.95 209.08 233.571 208.585C232.998 207.84 232.438 207.061 231.731 206.45C231.423 206.185 230.685 206.122 230.283 206.289C229.619 206.564 229.075 207.104 228.471 207.521C228.233 207.686 227.967 207.816 227.721 207.972C227.566 208.07 227.425 208.189 227.278 208.3C227.414 208.434 227.546 208.572 227.686 208.702C227.85 208.856 228.022 209.002 228.19 209.152C227.975 209.218 227.759 209.341 227.545 209.341C226.533 209.341 225.517 209.348 224.51 209.262C224.189 209.236 223.762 209.009 223.607 208.749C223.143 207.969 222.866 207.078 222.37 206.322C221.893 205.593 221.233 204.977 220.463 204.096C219.981 205.253 218.85 205.518 218.754 206.777C218.707 207.389 217.611 207.877 217.135 208.522C216.554 209.313 215.809 209.318 214.953 209.296C213.819 209.266 212.682 209.35 211.546 209.354C211.254 209.356 210.962 209.246 210.67 209.188C210.674 209.066 210.679 208.944 210.683 208.822C211.214 208.794 211.745 208.74 212.275 208.745C213.357 208.758 214.193 208.03 214.331 206.969C214.374 206.642 214.647 206.326 214.629 206.016C214.606 205.668 214.462 205.13 214.214 205.026C213.514 204.734 212.695 204.71 211.993 204.42C210.598 203.844 209.161 204.128 207.741 204.08C207.006 204.054 206.271 204.076 205.387 204.281C205.707 204.49 206.026 204.88 206.345 204.878C207.559 204.874 207.746 205.992 208.541 206.416C208.493 206.544 208.443 206.672 208.395 206.8C207.793 206.674 207.163 206.62 206.594 206.408C205.73 206.085 204.875 205.71 204.078 205.254C203.141 204.718 202.298 204.025 201.362 203.486C200.359 202.912 199.329 202.353 198.247 201.95C197.597 201.709 197.381 202.369 197.338 202.86C197.278 203.57 197.35 204.29 197.338 205.006C197.333 205.314 197.258 205.621 197.201 206.025C196.298 205.521 195.778 205.02 195.875 204.012C195.979 202.946 195.926 201.864 195.873 200.792C195.861 200.565 195.595 200.24 195.369 200.15C193.859 199.557 192.329 199.014 190.701 198.417C190.586 198.564 190.399 198.804 190.098 199.19C189.207 197.902 189.91 196.576 189.674 195.286C190.997 197.016 192.757 197.965 195.01 198.498C195.01 197.616 195.009 196.744 195.01 195.872C195.01 195.305 195.057 194.734 195.003 194.172C194.945 193.545 194.607 193.128 193.881 193.15C193.511 193.161 193.139 193.132 192.775 193.173C191.89 193.272 191.129 193.15 190.802 192.165C190.467 192.565 190.187 192.901 189.906 193.236C189.817 193.204 189.727 193.173 189.638 193.141C189.638 192.24 189.598 191.334 189.665 190.437C189.682 190.201 190.003 189.821 190.223 189.792C191.01 189.69 191.113 188.988 191.333 188.536C191.483 188.228 191.17 187.601 190.887 187.25C190.778 187.114 190.185 187.346 189.721 187.426V186.004C190.266 185.614 190.835 185.208 191.413 184.796C190.767 184.152 189.962 183.67 189.686 182.988C189.399 182.278 189.622 181.374 189.622 180.377C189.93 180.586 190.177 180.685 190.17 180.76C190.022 182.309 191.318 182.594 192.338 183.092C192.929 183.378 193.326 183.685 193.311 184.421C193.299 185.054 193.159 185.424 192.37 185.322V186.569C192.445 186.61 192.521 186.65 192.597 186.692C193.086 186.037 193.553 185.365 194.075 184.736C194.473 184.256 194.917 183.805 195.382 183.386C196.143 182.701 197.002 182.108 197.691 181.362C197.998 181.032 198.205 180.358 198.067 179.969C197.95 179.634 197.289 179.464 196.851 179.257C196.445 179.065 195.942 179.005 195.609 178.738C194.214 177.624 193.129 176.21 192.537 174.589C192.175 173.604 192.377 172.425 192.325 171.301C193.138 171.23 193.33 171.581 193.279 172.197C193.161 173.62 194.155 174.584 194.65 175.754C194.742 175.732 194.833 175.709 194.925 175.686C194.947 175.504 194.991 175.32 194.993 175.136C195.001 173.704 195.021 172.27 194.99 170.838C194.982 170.446 194.767 170.06 194.742 169.664C194.713 169.225 194.791 168.781 194.825 168.338C194.853 167.976 194.998 167.564 194.865 167.269C194.79 167.101 194.263 167.121 193.938 167.064C193.505 166.986 193.059 166.953 192.639 166.833C192.126 166.686 191.846 166.417 191.393 167.19C190.385 168.912 190.125 170.688 190.195 172.588C190.202 172.766 190.002 172.953 189.898 173.136C189.798 172.949 189.613 172.764 189.611 172.577C189.598 170.638 189.607 168.698 189.635 166.758C189.638 166.549 189.751 166.3 189.898 166.145C190.353 165.662 190.862 165.226 191.326 164.753C191.825 164.245 192.305 163.742 193.138 164.024C193.238 164.058 193.438 164.036 193.481 163.972C194.038 163.116 194.909 163.01 196.017 163.186C195.813 162.87 195.766 162.7 195.658 162.648C194.853 162.254 194.038 161.84 193.233 161.493C192.093 161.002 190.925 160.513 190.031 159.737C189.559 159.328 189.641 158.318 189.598 157.517C191.27 158.646 192.494 160.466 194.979 159.994C194.979 158.768 195.015 157.525 194.943 156.288C194.933 156.092 194.461 155.796 194.175 155.764C193.509 155.686 192.815 155.809 192.154 155.713C191.813 155.664 191.517 155.321 191.199 155.11C191.494 154.886 191.758 154.586 192.091 154.452C192.718 154.198 193.487 154.173 194.006 153.801C194.442 153.489 194.981 152.906 194.298 152.209C193.871 151.773 193.623 150.884 193.182 150.806C192.089 150.614 191.445 149.381 190.181 149.684C190.043 149.717 189.701 149.394 189.646 149.188C189.557 148.853 189.566 148.464 189.65 148.125C189.71 147.878 189.929 147.645 190.129 147.46C190.379 147.23 190.683 147.057 191.01 146.826C189.587 146.236 189.251 145.294 189.793 143.418C189.955 143.617 190.113 143.734 190.167 143.886C190.531 144.917 191.038 145.313 192.083 145.3C192.637 145.293 193.161 145.262 193.574 145.758C193.679 145.884 194.137 145.896 194.301 145.781C194.987 145.3 195.63 144.76 196.27 144.22C196.361 144.144 196.425 143.917 196.374 143.821C196.029 143.154 195.647 142.506 195.285 141.849C195.175 141.649 195.025 141.442 195.003 141.229C194.85 139.638 194.67 138.048 194.603 136.453C194.535 134.844 194.589 133.229 194.589 131.617C194.589 131.229 194.593 130.841 194.587 130.453C194.575 129.558 193.907 129.109 193.003 129.298C192.226 129.462 191.429 129.525 190.529 129.649C190.358 130.892 190.195 132.073 190.033 133.256C189.937 133.253 189.842 133.252 189.747 133.249C189.698 132.988 189.609 132.726 189.607 132.465C189.601 131.153 189.607 129.84 189.634 128.526C189.639 128.31 189.705 128.024 189.855 127.896C190.701 127.178 191.518 126.397 192.471 125.844C193.103 125.477 193.939 125.344 194.697 125.301C196.135 125.22 197.594 125.174 199.025 125.309C200.327 125.432 201.603 125.817 202.893 126.08C203.07 126.116 203.259 126.096 203.435 126.136C204.083 126.285 204.531 126.608 204.519 127.333C204.507 128.109 204.513 128.885 204.513 129.661C204.513 130.552 204.747 130.704 205.511 130.261C206.21 129.857 206.905 129.441 207.557 128.97C209.058 127.888 210.649 127.161 212.595 127.442C212.893 127.485 213.305 127.32 213.541 127.116C214.249 126.501 214.79 125.621 215.594 125.216C216.603 124.708 217.13 123.542 218.406 123.42C218.699 123.392 218.946 122.922 219.219 122.661C219.391 122.498 219.575 122.348 219.754 122.192C219.897 122.416 220.151 122.634 220.163 122.865C220.222 123.997 220.229 125.132 220.229 126.265C220.233 133.218 220.233 140.172 220.23 147.125C220.227 154.316 220.203 161.508 220.23 168.698C220.237 170.317 220.415 171.936 220.525 173.714C219.647 173.314 218.765 172.852 217.834 172.514C217.365 172.344 216.805 172.35 216.297 172.396C216.183 172.406 215.951 173.064 216.055 173.173C217.166 174.354 217.125 175.78 217.086 177.221C217.066 177.982 216.657 178.396 215.915 178.394C215.357 178.394 214.79 178.121 214.245 178.166C213.571 178.221 212.894 178.425 212.263 178.672C211.902 178.813 211.63 179.168 211.217 179.51C211.201 179.59 211.185 179.833 211.099 180.052C210.871 180.641 211.131 180.925 211.71 180.941C212.815 180.973 213.925 181.004 215.027 180.949C215.665 180.918 216.073 180.537 216.081 179.848C216.089 179.129 216.357 178.954 216.934 179.382C217.349 179.689 217.651 180.153 217.957 180.58C218.426 181.233 218.839 181.973 219.834 181.806C220.107 181.761 220.349 181.498 220.587 181.314C220.694 181.232 220.757 181.001 220.842 181C221.602 180.988 222.457 180.801 223.103 181.073C224.121 181.501 224.987 182.26 225.942 182.84C226.138 182.958 226.441 182.908 226.695 182.934C226.701 182.629 226.819 182.268 226.693 182.025C225.545 179.809 223.675 178.164 221.923 176.424C221.674 176.174 221.551 175.805 221.369 175.492C221.478 175.41 221.587 175.329 221.697 175.248C222.211 175.76 222.718 176.278 223.242 176.78C224.269 177.764 225.254 178.797 226.353 179.7C227.794 180.882 229.599 181.218 231.418 181.376C232.731 181.489 234.057 181.47 235.377 181.502C235.59 181.508 235.821 181.517 236.017 181.45C237.545 180.924 239.095 180.442 240.579 179.812C241.227 179.536 241.778 178.99 242.294 178.49C244.282 176.566 245.447 174.117 246.725 171.749C246.997 171.244 247.121 170.605 247.119 170.028C247.103 160.598 247.046 151.17 247.019 141.741C246.999 134.46 247.009 127.18 247.017 119.898C247.017 119.661 247.151 119.422 247.225 119.185C247.461 119.276 247.691 119.426 247.934 119.445C249.023 119.529 249.905 120.218 250.902 120.434C251.675 120.602 252.338 120.67 253.027 121.185C253.535 121.565 254.346 121.569 254.87 122.137C255.513 122.837 256.245 123.461 256.959 124.097C257.218 124.326 257.513 124.578 257.835 124.665C258.095 124.736 258.422 124.516 258.718 124.521C259.913 124.545 260.866 123.673 261.945 123.594C263.217 123.5 264.415 123.417 265.53 122.769C265.719 122.66 266.046 122.625 266.246 122.706C267.267 123.118 268.287 123.544 269.271 124.033C270.29 124.541 271.35 125.025 272.238 125.709C273.173 126.429 274.142 126.78 275.285 126.621C275.927 126.532 276.609 126.401 277.167 126.104C278.747 125.264 280.431 125.274 282.151 125.257C283.653 125.242 285.026 125.445 286.233 126.389C286.469 126.573 286.859 126.57 287.175 126.653Z" fill="black"/>
<path d="M281.297 165.161C281.565 165.303 281.902 165.378 281.985 165.561C282.061 165.727 281.925 166.075 281.767 166.234C280.513 167.499 279.235 168.743 277.947 169.977C277.819 170.099 277.522 170.213 277.403 170.15C277.233 170.059 277.087 169.818 277.043 169.619C276.761 168.326 277.926 167.838 278.614 167.123C279.207 166.505 279.958 166.029 280.65 165.505C280.831 165.367 281.057 165.286 281.297 165.161Z" fill="black"/>
<path d="M192.781 132.163C192.947 132.625 193.226 133.078 193.257 133.547C193.33 134.641 193.263 135.742 193.293 136.839C193.306 137.318 193.171 137.586 192.639 137.559C192.17 137.537 191.819 137.449 191.841 136.847C191.879 135.691 191.806 134.53 191.878 133.377C191.905 132.965 192.215 132.569 192.397 132.166C192.525 132.165 192.653 132.163 192.781 132.163Z" fill="black"/>
<path d="M268.098 179.439C269.033 179.958 269.697 180.4 270.42 180.708C271.386 181.12 272.422 181.378 273.385 181.796C274.281 182.186 275.132 182.682 275.973 183.178C276.12 183.264 276.226 183.623 276.161 183.783C276.098 183.938 275.762 184.115 275.594 184.078C275.096 183.966 274.626 183.732 274.133 183.583C272.954 183.227 271.833 182.719 270.677 182.304C269.718 181.962 268.892 181.239 268.066 180.61C267.921 180.499 268.072 180.023 268.098 179.439Z" fill="black"/>
<path d="M245.928 198.364C244.922 197.609 245.084 197.704 245.644 196.81C246.128 196.036 247.022 195.497 247.025 194.349C247.028 193.629 247.664 192.912 248.004 192.188C248.125 191.928 248.169 191.626 248.326 191.392C248.45 191.204 248.701 190.968 248.88 190.98C249.05 190.992 249.334 191.294 249.336 191.472C249.349 192.361 249.366 193.206 248.885 194.086C248.053 195.602 247.449 197.234 245.928 198.364Z" fill="black"/>
<path d="M203.024 192.964C203.65 192.884 204.347 192.596 204.887 192.769C205.868 193.085 206.763 193.663 207.67 194.173C207.754 194.221 207.731 194.703 207.634 194.752C207.224 194.961 206.964 195.668 206.327 195.225C205.98 194.984 205.702 194.645 205.342 194.428C205.026 194.237 204.636 194.16 204.283 194.025C203.843 193.857 203.407 193.683 202.968 193.509C202.987 193.328 203.006 193.145 203.024 192.964Z" fill="black"/>
<path d="M247.913 132.733C248.294 132.553 248.793 132.158 248.972 132.266C249.321 132.477 249.504 132.961 249.734 133.343C249.878 133.583 249.986 133.845 250.106 134.098C250.286 134.477 250.441 134.867 250.646 135.233C250.982 135.829 251.372 136.398 251.697 137.001C251.902 137.381 252.033 137.801 252.074 138.283C251.269 138.03 250.452 137.918 250.145 137.027C250.057 136.771 249.794 136.577 249.642 136.334C249.493 136.095 249.38 135.835 249.257 135.581C249.116 135.289 248.981 134.993 248.842 134.699C248.554 134.089 248.266 133.479 247.913 132.733Z" fill="black"/>
<path d="M363.069 87.8299H390.534V105.002H363.069V87.8299Z" stroke="black" stroke-width="1.33333" stroke-miterlimit="3.864"/>
<path d="M176.822 104.915C183.559 104.915 189.019 110.377 189.019 117.114L189.074 117.995L189.067 138.019V191.986C189.067 201.61 196.868 209.413 206.492 209.413H271.643C281.27 209.413 289.071 201.61 289.071 191.986L289.147 138.019L289.076 119.225V117.114C289.076 110.377 294.538 104.915 301.276 104.915" stroke="black" stroke-width="1.33333" stroke-miterlimit="3.864"/>
<path d="M419.142 118.546L390.846 118.595L390.88 97.5074C390.616 95.6568 392.255 94.0714 394.106 94.0714M358.287 94.9701C359.979 94.2301 362.41 95.2341 362.568 97.0834V194.746C362.568 202.507 368.859 208.798 376.619 208.798C384.379 208.798 390.67 202.507 390.67 194.746L390.838 124.679H419.142" stroke="black" stroke-width="1.33333" stroke-miterlimit="3.864"/>
<path d="M390.313 170.934C389.842 171.889 388.858 172.546 387.722 172.546H365.498C364.171 172.546 363.053 171.651 362.714 170.431" stroke="black" stroke-width="0.666667" stroke-miterlimit="3.864"/>
<path d="M218.758 37.1632H246.224V54.3352H218.758V37.1632Z" stroke="black" stroke-width="1.33333" stroke-miterlimit="3.864"/>
<path d="M118.348 89.4391V119.64C118.348 121.624 116.877 123.234 115.064 123.234H77.6133" stroke="black" stroke-width="1.33333" stroke-miterlimit="3.864"/>
<path d="M238.477 231.043V195.057" stroke="black" stroke-width="0.666667" stroke-miterlimit="3.864"/>
<path d="M0 127.203H63.16" stroke="black" stroke-miterlimit="3.864"/>
<path d="M61.1782 130.109L72.0196 127.206L61.1782 124.298V130.109Z" fill="black"/>
<path d="M405.745 121.75H428.525" stroke="black" stroke-miterlimit="3.864"/>
<path d="M426.543 124.655L437.384 121.752L426.543 118.844V124.655Z" fill="black"/>
<path d="M379.374 200.214H414.229" stroke="black" stroke-width="0.666667" stroke-miterlimit="3.864"/>
<text fill="black" xml:space="preserve" style="white-space: pre" font-family="Trebuchet MS" font-size="12" font-weight="bold" letter-spacing="0em"><tspan x="21.8125" y="120.301">X</tspan></text>
<text fill="black" xml:space="preserve" style="white-space: pre" font-family="Trebuchet MS" font-size="12" letter-spacing="0em"><tspan x="1" y="120.301">gas </tspan></text>
<text fill="black" xml:space="preserve" style="white-space: pre" font-family="Trebuchet MS" font-size="12" letter-spacing="0em"><tspan x="218" y="242.301">ice bath</tspan></text>
<text fill="black" xml:space="preserve" style="white-space: pre" font-family="Trebuchet MS" font-size="12" letter-spacing="0em"><tspan x="418" y="204.301">limewater</tspan></text>
<text fill="black" xml:space="preserve" style="white-space: pre" font-family="Trebuchet MS" font-size="12" letter-spacing="0em"><tspan x="439.484" y="118.301">to water </tspan><tspan x="447.547" y="132.301">pump</tspan></text>
<path d="M363.069 87.8302H390.534V105.002H363.069V87.8302Z" fill="#333333"/>
<path d="M213.977 44.3036C215.667 43.5623 218.099 44.5663 218.258 46.4169V166.746C218.258 174.506 224.549 180.798 232.309 180.798C240.067 180.798 246.358 174.506 246.358 166.746L246.526 74.0116H369.125C372.965 74.0116 373.41 75.7956 374.215 78.6289L373.689 191.582L379.915 191.372L379.677 74.0116C378.631 69.7956 375.465 67.8796 373.498 67.8796L246.535 67.9289L246.569 46.8396C246.306 44.9903 247.943 43.4049 249.794 43.4049" fill="white"/>
<path d="M213.977 44.3036C215.667 43.5623 218.099 44.5663 218.258 46.4169V166.746C218.258 174.506 224.549 180.798 232.309 180.798C240.067 180.798 246.358 174.506 246.358 166.746L246.526 74.0116H369.125C372.965 74.0116 373.41 75.7956 374.215 78.6289L373.689 191.582L379.915 191.372L379.677 74.0116C378.631 69.7956 375.465 67.8796 373.498 67.8796L246.535 67.9289L246.569 46.8396C246.306 44.9903 247.943 43.4049 249.794 43.4049" stroke="black" stroke-width="1.33333" stroke-miterlimit="3.864"/>
<path d="M218.758 37.1635H246.223V54.3355H218.758V37.1635Z" fill="#333333"/>
<path d="M145.853 64.908L123.298 37.3333V10.3467C123.298 8.53334 124.906 7.06268 126.89 7.06268H225.048C227.032 7.06268 228.64 8.53334 228.64 10.3467V167.383H235.272V6.43068C235.272 3.43201 232.612 1.00002 229.33 1.00002H122.858C119.577 1.00002 116.917 3.43201 116.917 6.43068V37.1627L93.2568 64.908" fill="white"/>
<path d="M145.853 64.908L123.298 37.3333V10.3467C123.298 8.53334 124.906 7.06268 126.89 7.06268H225.048C227.032 7.06268 228.64 8.53334 228.64 10.3467V167.383H235.272V6.43068C235.272 3.43201 232.612 1.00002 229.33 1.00002H122.858C119.577 1.00002 116.917 3.43201 116.917 6.43068V37.1627L93.2568 64.908" stroke="black" stroke-width="1.33333" stroke-miterlimit="3.864"/>
<path d="M77.6133 129.865H118.98C121.979 129.865 124.411 127.205 124.411 123.924V89.4385" stroke="black" stroke-width="1.33333" stroke-miterlimit="3.864"/>
<path d="M130.093 77.4239C130.093 72.3359 123.844 62.0545 119.71 60.1079C118.877 59.7145 119.725 63.6612 119.132 64.4505C116.922 67.3959 112.486 72.8212 112.486 77.4239C112.486 83.1225 116.428 87.7425 121.29 87.7425C126.152 87.7425 130.093 83.1225 130.093 77.4239Z" stroke="black" stroke-width="0.666667" stroke-miterlimit="3.864"/>
<path d="M124.563 82.4794C124.563 86.3834 123.098 88.146 121.29 88.146C119.483 88.146 118.018 86.3834 118.018 82.4794C118.018 78.5754 121.29 73.8127 121.29 73.8127C121.29 73.8127 124.563 78.5754 124.563 82.4794Z" stroke="black" stroke-width="0.666667" stroke-miterlimit="3.864"/>
</svg>
