<svg width="234" height="410" viewBox="0 0 234 410" fill="none" xmlns="http://www.w3.org/2000/svg">
<text fill="black" xml:space="preserve" style="white-space: pre" font-family="Trebuchet MS" font-size="14.6666" letter-spacing="0em"><tspan x="55.333" y="48.2896">H</tspan></text>
<path d="M66.3862 44.6237H85.2261V43.3171H66.3862V44.6237Z" fill="black"/>
<text fill="black" xml:space="preserve" style="white-space: pre" font-family="Trebuchet MS" font-size="14.6666" letter-spacing="0em"><tspan x="118.666" y="48.2896">C</tspan></text>
<text fill="black" xml:space="preserve" style="white-space: pre" font-family="Trebuchet MS" font-size="14.6666" letter-spacing="0em"><tspan x="86.5461" y="48.2896">C</tspan></text>
<path d="M97.8928 44.6237H116.733V43.3171H97.8928V44.6237Z" fill="black"/>
<text fill="black" xml:space="preserve" style="white-space: pre" font-family="Trebuchet MS" font-size="14.6666" letter-spacing="0em"><tspan x="150.199" y="48.2896">C</tspan></text>
<path d="M129.413 44.6237H148.252V43.3171H129.413V44.6237Z" fill="black"/>
<text fill="black" xml:space="preserve" style="white-space: pre" font-family="Trebuchet MS" font-size="14.6666" letter-spacing="0em"><tspan x="86.5461" y="13.7565">H</tspan></text>
<path d="M90.6926 36.1305H91.986V17.2906H90.6926V36.1305Z" fill="black"/>
<text fill="black" xml:space="preserve" style="white-space: pre" font-family="Trebuchet MS" font-size="14.6666" letter-spacing="0em"><tspan x="118.666" y="13.7565">H</tspan></text>
<path d="M122.812 36.1305H124.106V17.2906H122.812V36.1305Z" fill="black"/>
<text fill="black" xml:space="preserve" style="white-space: pre" font-family="Trebuchet MS" font-size="14.6666" letter-spacing="0em"><tspan x="118.666" y="83.0093">H</tspan></text>
<text fill="black" xml:space="preserve" style="white-space: pre" font-family="Trebuchet MS" font-size="14.6666" letter-spacing="0em"><tspan x="86.5461" y="83.0093">H</tspan></text>
<path d="M90.6926 70.8502H91.986V52.0103H90.6926V70.8502Z" fill="black"/>
<path d="M122.812 70.8502H124.106V52.0103H122.812V70.8502Z" fill="black"/>
<text fill="black" xml:space="preserve" style="white-space: pre" font-family="Trebuchet MS" font-size="14.6666" letter-spacing="0em"><tspan x="181.735" y="48.2896">C</tspan></text>
<path d="M160.946 44.6237H179.785V43.3171H160.946V44.6237Z" fill="black"/>
<text fill="black" xml:space="preserve" style="white-space: pre" font-family="Trebuchet MS" font-size="14.6666" letter-spacing="0em"><tspan x="150.199" y="13.7565">H</tspan></text>
<path d="M154.346 36.1305H155.639V17.2906H154.346V36.1305Z" fill="black"/>
<text fill="black" xml:space="preserve" style="white-space: pre" font-family="Trebuchet MS" font-size="14.6666" letter-spacing="0em"><tspan x="150.199" y="83.0093">H</tspan></text>
<path d="M154.346 70.8502H155.639V52.0103H154.346V70.8502Z" fill="black"/>
<text fill="black" xml:space="preserve" style="white-space: pre" font-family="Trebuchet MS" font-size="14.6666" letter-spacing="0em"><tspan x="213.269" y="48.2896">H</tspan></text>
<path d="M192.479 44.6237H211.319V43.3171H192.479V44.6237Z" fill="black"/>
<text fill="black" xml:space="preserve" style="white-space: pre" font-family="Trebuchet MS" font-size="14.6666" letter-spacing="0em"><tspan x="181.735" y="13.7565">H</tspan></text>
<path d="M185.879 36.1305H187.172V17.2906H185.879V36.1305Z" fill="black"/>
<text fill="black" xml:space="preserve" style="white-space: pre" font-family="Trebuchet MS" font-size="14.6666" letter-spacing="0em"><tspan x="181.735" y="83.0093">H</tspan></text>
<path d="M185.879 70.8502H187.172V52.0103H185.879V70.8502Z" fill="black"/>
<text fill="black" xml:space="preserve" style="white-space: pre" font-family="Trebuchet MS" font-size="14.6666" letter-spacing="0em"><tspan x="55.333" y="156.502">H</tspan></text>
<path d="M66.3862 152.836H85.2261V151.53H66.3862V152.836Z" fill="black"/>
<text fill="black" xml:space="preserve" style="white-space: pre" font-family="Trebuchet MS" font-size="14.6666" letter-spacing="0em"><tspan x="118.666" y="156.502">C</tspan></text>
<text fill="black" xml:space="preserve" style="white-space: pre" font-family="Trebuchet MS" font-size="14.6666" letter-spacing="0em"><tspan x="86.5461" y="156.502">C</tspan></text>
<path d="M97.8928 152.836H116.733V151.53H97.8928V152.836Z" fill="black"/>
<text fill="black" xml:space="preserve" style="white-space: pre" font-family="Trebuchet MS" font-size="14.6666" letter-spacing="0em"><tspan x="150.199" y="156.502">C</tspan></text>
<path d="M129.413 152.836H148.252V151.53H129.413V152.836Z" fill="black"/>
<text fill="black" xml:space="preserve" style="white-space: pre" font-family="Trebuchet MS" font-size="14.6666" letter-spacing="0em"><tspan x="86.5461" y="121.983">H</tspan></text>
<path d="M90.6926 144.343H91.986V125.503H90.6926V144.343Z" fill="black"/>
<text fill="black" xml:space="preserve" style="white-space: pre" font-family="Trebuchet MS" font-size="14.6666" letter-spacing="0em"><tspan x="118.666" y="121.983">H</tspan></text>
<path d="M122.812 144.343H124.106V125.503H122.812V144.343Z" fill="black"/>
<text fill="black" xml:space="preserve" style="white-space: pre" font-family="Trebuchet MS" font-size="14.6666" letter-spacing="0em"><tspan x="118.666" y="191.222">H</tspan></text>
<text fill="black" xml:space="preserve" style="white-space: pre" font-family="Trebuchet MS" font-size="14.6666" letter-spacing="0em"><tspan x="86.5461" y="191.222">H</tspan></text>
<path d="M90.6926 179.063H91.986V160.223H90.6926V179.063Z" fill="black"/>
<path d="M122.812 179.063H124.106V160.223H122.812V179.063Z" fill="black"/>
<text fill="black" xml:space="preserve" style="white-space: pre" font-family="Trebuchet MS" font-size="14.6666" letter-spacing="0em"><tspan x="181.735" y="156.502">C</tspan></text>
<path d="M160.946 154.503H179.785V153.196H160.946V154.503Z" fill="black"/>
<path d="M160.946 151.183H179.785V149.863H160.946V151.183Z" fill="black"/>
<text fill="black" xml:space="preserve" style="white-space: pre" font-family="Trebuchet MS" font-size="14.6666" letter-spacing="0em"><tspan x="150.199" y="121.983">H</tspan></text>
<text fill="black" xml:space="preserve" style="white-space: pre" font-family="Trebuchet MS" font-size="14.6666" letter-spacing="0em"><tspan x="197.396" y="124.582">H</tspan></text>
<text fill="black" xml:space="preserve" style="white-space: pre" font-family="Trebuchet MS" font-size="14.6666" letter-spacing="0em"><tspan x="197.763" y="186.662">H</tspan></text>
<path d="M154.346 144.343H155.639V125.503H154.346V144.343Z" fill="black"/>
<path d="M188.545 144.73L189.679 145.37L199.105 129.063L197.972 128.41L188.545 144.73Z" fill="black"/>
<path d="M199.105 175.21L197.972 175.863L188.545 159.543L189.679 158.89L199.105 175.21Z" fill="black"/>
<text fill="black" xml:space="preserve" style="white-space: pre" font-family="Trebuchet MS" font-size="14.6666" letter-spacing="0em"><tspan x="55.333" y="263.382">H</tspan></text>
<path d="M66.3862 259.729H85.2261V258.409H66.3862V259.729Z" fill="black"/>
<text fill="black" xml:space="preserve" style="white-space: pre" font-family="Trebuchet MS" font-size="14.6666" letter-spacing="0em"><tspan x="118.666" y="263.382">C</tspan></text>
<text fill="black" xml:space="preserve" style="white-space: pre" font-family="Trebuchet MS" font-size="14.6666" letter-spacing="0em"><tspan x="86.5461" y="263.382">C</tspan></text>
<path d="M97.8928 259.729H116.733V258.409H97.8928V259.729Z" fill="black"/>
<text fill="black" xml:space="preserve" style="white-space: pre" font-family="Trebuchet MS" font-size="14.6666" letter-spacing="0em"><tspan x="150.199" y="263.382">C</tspan></text>
<path d="M129.413 259.729H148.252V258.409H129.413V259.729Z" fill="black"/>
<text fill="black" xml:space="preserve" style="white-space: pre" font-family="Trebuchet MS" font-size="14.6666" letter-spacing="0em"><tspan x="86.5461" y="228.862">H</tspan></text>
<path d="M90.6926 251.222H91.986V232.383H90.6926V251.222Z" fill="black"/>
<text fill="black" xml:space="preserve" style="white-space: pre" font-family="Trebuchet MS" font-size="14.6666" letter-spacing="0em"><tspan x="118.666" y="228.862">H</tspan></text>
<path d="M122.812 251.222H124.106V232.383H122.812V251.222Z" fill="black"/>
<text fill="black" xml:space="preserve" style="white-space: pre" font-family="Trebuchet MS" font-size="14.6666" letter-spacing="0em"><tspan x="118.666" y="298.101">H</tspan></text>
<text fill="black" xml:space="preserve" style="white-space: pre" font-family="Trebuchet MS" font-size="14.6666" letter-spacing="0em"><tspan x="86.5461" y="298.101">H</tspan></text>
<path d="M90.6926 285.942H91.986V267.102H90.6926V285.942Z" fill="black"/>
<path d="M122.812 285.942H124.106V267.102H122.812V285.942Z" fill="black"/>
<text fill="black" xml:space="preserve" style="white-space: pre" font-family="Trebuchet MS" font-size="14.6666" letter-spacing="0em"><tspan x="181.733" y="263.382">C</tspan></text>
<path d="M160.946 259.729H179.785V258.409H160.946V259.729Z" fill="black"/>
<text fill="black" xml:space="preserve" style="white-space: pre" font-family="Trebuchet MS" font-size="14.6666" letter-spacing="0em"><tspan x="150.199" y="228.862">H</tspan></text>
<path d="M154.346 251.222H155.639V232.383H154.346V251.222Z" fill="black"/>
<text fill="black" xml:space="preserve" style="white-space: pre" font-family="Trebuchet MS" font-size="14.6666" letter-spacing="0em"><tspan x="150.199" y="298.101">H</tspan></text>
<path d="M154.346 285.942H155.639V267.102H154.346V285.942Z" fill="black"/>
<text fill="black" xml:space="preserve" style="white-space: pre" font-family="Trebuchet MS" font-size="14.6666" letter-spacing="0em"><tspan x="213.269" y="263.382">OH</tspan></text>
<path d="M192.479 259.729H211.319V258.409H192.479V259.729Z" fill="black"/>
<text fill="black" xml:space="preserve" style="white-space: pre" font-family="Trebuchet MS" font-size="14.6666" letter-spacing="0em"><tspan x="181.733" y="228.862">O</tspan></text>
<path d="M184.785 251.222H186.079V232.383H184.785V251.222Z" fill="black"/>
<path d="M187.839 251.222H189.132V232.383H187.839V251.222Z" fill="black"/>
<text fill="black" xml:space="preserve" style="white-space: pre" font-family="Trebuchet MS" font-size="14.6666" letter-spacing="0em"><tspan x="55.333" y="371.141">H</tspan></text>
<path d="M66.3862 367.475H85.2261V366.155H66.3862V367.475Z" fill="black"/>
<text fill="black" xml:space="preserve" style="white-space: pre" font-family="Trebuchet MS" font-size="14.6666" letter-spacing="0em"><tspan x="118.666" y="371.141">C</tspan></text>
<text fill="black" xml:space="preserve" style="white-space: pre" font-family="Trebuchet MS" font-size="14.6666" letter-spacing="0em"><tspan x="86.5461" y="371.141">C</tspan></text>
<path d="M97.8928 367.475H116.733V366.155H97.8928V367.475Z" fill="black"/>
<text fill="black" xml:space="preserve" style="white-space: pre" font-family="Trebuchet MS" font-size="14.6666" letter-spacing="0em"><tspan x="150.199" y="371.141">C</tspan></text>
<path d="M129.413 367.475H148.252V366.155H129.413V367.475Z" fill="black"/>
<text fill="black" xml:space="preserve" style="white-space: pre" font-family="Trebuchet MS" font-size="14.6666" letter-spacing="0em"><tspan x="86.5461" y="336.608">H</tspan></text>
<path d="M90.6926 358.982H91.986V340.128H90.6926V358.982Z" fill="black"/>
<text fill="black" xml:space="preserve" style="white-space: pre" font-family="Trebuchet MS" font-size="14.6666" letter-spacing="0em"><tspan x="118.666" y="336.608">H</tspan></text>
<path d="M122.812 358.982H124.106V340.128H122.812V358.982Z" fill="black"/>
<text fill="black" xml:space="preserve" style="white-space: pre" font-family="Trebuchet MS" font-size="14.6666" letter-spacing="0em"><tspan x="118.666" y="405.861">H</tspan></text>
<text fill="black" xml:space="preserve" style="white-space: pre" font-family="Trebuchet MS" font-size="14.6666" letter-spacing="0em"><tspan x="86.5461" y="405.861">H</tspan></text>
<path d="M90.6926 393.702H91.986V374.862H90.6926V393.702Z" fill="black"/>
<path d="M122.812 393.702H124.106V374.862H122.812V393.702Z" fill="black"/>
<text fill="black" xml:space="preserve" style="white-space: pre" font-family="Trebuchet MS" font-size="14.6666" letter-spacing="0em"><tspan x="181.733" y="371.141">C</tspan></text>
<path d="M160.946 367.475H179.785V366.155H160.946V367.475Z" fill="black"/>
<text fill="black" xml:space="preserve" style="white-space: pre" font-family="Trebuchet MS" font-size="14.6666" letter-spacing="0em"><tspan x="150.199" y="336.608">OH</tspan></text>
<path d="M154.346 358.982H155.639V340.128H154.346V358.982Z" fill="black"/>
<text fill="black" xml:space="preserve" style="white-space: pre" font-family="Trebuchet MS" font-size="14.6666" letter-spacing="0em"><tspan x="150.199" y="405.861">H</tspan></text>
<path d="M154.346 393.702H155.639V374.862H154.346V393.702Z" fill="black"/>
<text fill="black" xml:space="preserve" style="white-space: pre" font-family="Trebuchet MS" font-size="14.6666" letter-spacing="0em"><tspan x="213.269" y="371.141">H</tspan></text>
<path d="M192.479 367.475H211.319V366.155H192.479V367.475Z" fill="black"/>
<text fill="black" xml:space="preserve" style="white-space: pre" font-family="Trebuchet MS" font-size="14.6666" letter-spacing="0em"><tspan x="181.733" y="336.608">H</tspan></text>
<path d="M185.879 358.982H187.172V340.128H185.879V358.982Z" fill="black"/>
<text fill="black" xml:space="preserve" style="white-space: pre" font-family="Trebuchet MS" font-size="14.6666" letter-spacing="0em"><tspan x="181.735" y="405.861">H</tspan></text>
<path d="M185.879 393.702H187.172V374.862H185.879V393.702Z" fill="black"/>
<text fill="black" xml:space="preserve" style="white-space: pre" font-family="Trebuchet MS" font-size="14.6666" letter-spacing="0em"><tspan x="0" y="13.7832">A</tspan></text>
<text fill="black" xml:space="preserve" style="white-space: pre" font-family="Trebuchet MS" font-size="14.6666" letter-spacing="0em"><tspan x="0" y="121.943">B</tspan></text>
<text fill="black" xml:space="preserve" style="white-space: pre" font-family="Trebuchet MS" font-size="14.6666" letter-spacing="0em"><tspan x="0" y="228.808">C</tspan></text>
<text fill="black" xml:space="preserve" style="white-space: pre" font-family="Trebuchet MS" font-size="14.6666" letter-spacing="0em"><tspan x="0" y="336.594">D</tspan></text>
</svg>
