<svg width="293" height="564" viewBox="0 0 293 564" fill="none" xmlns="http://www.w3.org/2000/svg">
<path d="M95.4453 37.014H96.6186V19.6008H95.4453V37.014Z" fill="black"/>
<path d="M95.4453 71.4271H96.6186V54.1739H95.4453V71.4271Z" fill="black"/>
<text fill="black" xml:space="preserve" style="white-space: pre" font-family="Trebuchet MS" font-size="14.6666" letter-spacing="0em"><tspan x="61.0054" y="49.3732">H</tspan></text>
<text fill="black" xml:space="preserve" style="white-space: pre" font-family="Trebuchet MS" font-size="14.6666" letter-spacing="0em"><tspan x="92.2454" y="49.3732">C</tspan></text>
<text fill="black" xml:space="preserve" style="white-space: pre" font-family="Trebuchet MS" font-size="14.6666" letter-spacing="0em"><tspan x="91.6587" y="14.9867">H</tspan></text>
<path d="M126.098 37.014H127.285V19.6008H126.098V37.014Z" fill="black"/>
<text fill="black" xml:space="preserve" style="white-space: pre" font-family="Trebuchet MS" font-size="14.6666" letter-spacing="0em"><tspan x="122.312" y="14.9734">H</tspan></text>
<text fill="black" xml:space="preserve" style="white-space: pre" font-family="Trebuchet MS" font-size="14.6666" letter-spacing="0em"><tspan x="91.6587" y="84.0929">H</tspan></text>
<path d="M101.552 46.174H118.792V44.9873H101.552V46.174Z" fill="black"/>
<path d="M153.458 37.014H154.632V19.6008H153.458V37.014Z" fill="black"/>
<path d="M153.458 71.4271H154.632V54.1739H153.458V71.4271Z" fill="black"/>
<text fill="black" xml:space="preserve" style="white-space: pre" font-family="Trebuchet MS" font-size="14.6666" letter-spacing="0em"><tspan x="121.405" y="49.3732">C</tspan></text>
<text fill="black" xml:space="preserve" style="white-space: pre" font-family="Trebuchet MS" font-size="14.6666" letter-spacing="0em"><tspan x="150.25" y="49.3732">C</tspan></text>
<text fill="black" xml:space="preserve" style="white-space: pre" font-family="Trebuchet MS" font-size="14.6666" letter-spacing="0em"><tspan x="149.664" y="14.9867">H</tspan></text>
<text fill="black" xml:space="preserve" style="white-space: pre" font-family="Trebuchet MS" font-size="14.6666" letter-spacing="0em"><tspan x="149.664" y="84.0929">H</tspan></text>
<path d="M159.552 46.174H176.805V44.9873H159.552V46.174Z" fill="black"/>
<text fill="black" xml:space="preserve" style="white-space: pre" font-family="Trebuchet MS" font-size="14.6666" letter-spacing="0em"><tspan x="179.714" y="49.3732">C</tspan></text>
<path d="M183.498 37.014H184.685V19.6008H183.498V37.014Z" fill="black"/>
<path d="M183.498 71.4271H184.685V54.1739H183.498V71.4271Z" fill="black"/>
<text fill="black" xml:space="preserve" style="white-space: pre" font-family="Trebuchet MS" font-size="14.6666" letter-spacing="0em"><tspan x="179.715" y="14.9734">H</tspan></text>
<text fill="black" xml:space="preserve" style="white-space: pre" font-family="Trebuchet MS" font-size="14.6666" letter-spacing="0em"><tspan x="179.715" y="84.0929">H</tspan></text>
<path d="M123.405 71.4271H124.592V54.1739H123.405V71.4271Z" fill="black"/>
<text fill="black" xml:space="preserve" style="white-space: pre" font-family="Trebuchet MS" font-size="14.6666" letter-spacing="0em"><tspan x="119.632" y="84.0795">H</tspan></text>
<path d="M153.458 71.4271H154.632V54.1739H153.458V71.4271Z" fill="black"/>
<path d="M189.605 46.174H206.858V44.9873H189.605V46.174Z" fill="black"/>
<text fill="black" xml:space="preserve" style="white-space: pre" font-family="Trebuchet MS" font-size="14.6666" letter-spacing="0em"><tspan x="209.758" y="49.3732">C</tspan></text>
<path d="M252.578 46.174H269.831V44.9873H252.578V46.174Z" fill="black"/>
<text fill="black" xml:space="preserve" style="white-space: pre" font-family="Trebuchet MS" font-size="14.6666" letter-spacing="0em"><tspan x="272.739" y="49.3732">OH</tspan></text>
<path d="M213.538 37.014H214.725V19.6008H213.538V37.014Z" fill="black"/>
<path d="M213.538 71.4271H214.725V54.1739H213.538V71.4271Z" fill="black"/>
<text fill="black" xml:space="preserve" style="white-space: pre" font-family="Trebuchet MS" font-size="14.6666" letter-spacing="0em"><tspan x="209.759" y="14.9734">H</tspan></text>
<text fill="black" xml:space="preserve" style="white-space: pre" font-family="Trebuchet MS" font-size="14.6666" letter-spacing="0em"><tspan x="209.759" y="84.0929">H</tspan></text>
<path d="M219.645 46.174H236.898V44.9873H219.645V46.174Z" fill="black"/>
<text fill="black" xml:space="preserve" style="white-space: pre" font-family="Trebuchet MS" font-size="14.6666" letter-spacing="0em"><tspan x="239.803" y="49.3732">C</tspan></text>
<text fill="black" xml:space="preserve" style="white-space: pre" font-family="Trebuchet MS" font-size="14.6666" letter-spacing="0em"><tspan x="240.038" y="14.9867">O</tspan></text>
<path d="M242.338 36.934H243.511V19.6807H242.338V36.934Z" fill="black"/>
<path d="M245.764 36.934H246.951V19.6807H245.764V36.934Z" fill="black"/>
<path d="M72.6721 46.174H89.9253V44.9873H72.6721V46.174Z" fill="black"/>
<path d="M130.672 46.174H147.938V44.9873H130.672V46.174Z" fill="black"/>
<path d="M95.4453 195.226H96.6186V177.813H95.4453V195.226Z" fill="black"/>
<path d="M95.4453 229.639H96.6186V212.386H95.4453V229.639Z" fill="black"/>
<text fill="black" xml:space="preserve" style="white-space: pre" font-family="Trebuchet MS" font-size="14.6666" letter-spacing="0em"><tspan x="61.0054" y="207.585">H</tspan></text>
<text fill="black" xml:space="preserve" style="white-space: pre" font-family="Trebuchet MS" font-size="14.6666" letter-spacing="0em"><tspan x="92.2454" y="207.585">C</tspan></text>
<text fill="black" xml:space="preserve" style="white-space: pre" font-family="Trebuchet MS" font-size="14.6666" letter-spacing="0em"><tspan x="91.6587" y="173.186">H</tspan></text>
<path d="M126.098 195.226H127.285V177.813H126.098V195.226Z" fill="black"/>
<text fill="black" xml:space="preserve" style="white-space: pre" font-family="Trebuchet MS" font-size="14.6666" letter-spacing="0em"><tspan x="122.312" y="173.186">H</tspan></text>
<text fill="black" xml:space="preserve" style="white-space: pre" font-family="Trebuchet MS" font-size="14.6666" letter-spacing="0em"><tspan x="91.6587" y="242.292">H</tspan></text>
<path d="M101.552 204.386H118.792V203.2H101.552V204.386Z" fill="black"/>
<path d="M153.458 195.226H154.632V177.813H153.458V195.226Z" fill="black"/>
<path d="M153.458 229.639H154.632V212.386H153.458V229.639Z" fill="black"/>
<text fill="black" xml:space="preserve" style="white-space: pre" font-family="Trebuchet MS" font-size="14.6666" letter-spacing="0em"><tspan x="121.405" y="207.585">C</tspan></text>
<text fill="black" xml:space="preserve" style="white-space: pre" font-family="Trebuchet MS" font-size="14.6666" letter-spacing="0em"><tspan x="150.25" y="207.585">C</tspan></text>
<text fill="black" xml:space="preserve" style="white-space: pre" font-family="Trebuchet MS" font-size="14.6666" letter-spacing="0em"><tspan x="149.664" y="173.186">H</tspan></text>
<text fill="black" xml:space="preserve" style="white-space: pre" font-family="Trebuchet MS" font-size="14.6666" letter-spacing="0em"><tspan x="149.664" y="242.292">H</tspan></text>
<path d="M159.552 204.386H176.805V203.2H159.552V204.386Z" fill="black"/>
<text fill="black" xml:space="preserve" style="white-space: pre" font-family="Trebuchet MS" font-size="14.6666" letter-spacing="0em"><tspan x="179.714" y="207.585">C</tspan></text>
<path d="M183.498 195.226H184.685V177.813H183.498V195.226Z" fill="black"/>
<path d="M183.498 229.639H184.685V212.386H183.498V229.639Z" fill="black"/>
<text fill="black" xml:space="preserve" style="white-space: pre" font-family="Trebuchet MS" font-size="14.6666" letter-spacing="0em"><tspan x="179.715" y="173.186">H</tspan></text>
<text fill="black" xml:space="preserve" style="white-space: pre" font-family="Trebuchet MS" font-size="14.6666" letter-spacing="0em"><tspan x="179.715" y="242.292">H</tspan></text>
<path d="M123.405 229.639H124.592V212.386H123.405V229.639Z" fill="black"/>
<text fill="black" xml:space="preserve" style="white-space: pre" font-family="Trebuchet MS" font-size="14.6666" letter-spacing="0em"><tspan x="119.632" y="242.292">H</tspan></text>
<path d="M153.458 229.639H154.632V212.386H153.458V229.639Z" fill="black"/>
<path d="M243.498 229.639H244.671V212.386H243.498V229.639Z" fill="black"/>
<text fill="black" xml:space="preserve" style="white-space: pre" font-family="Trebuchet MS" font-size="14.6666" letter-spacing="0em"><tspan x="239.712" y="242.292">H</tspan></text>
<text fill="black" xml:space="preserve" style="white-space: pre" font-family="Trebuchet MS" font-size="14.6666" letter-spacing="0em"><tspan x="209.762" y="207.572">C</tspan></text>
<path d="M252.578 204.386H269.831V203.2H252.578V204.386Z" fill="black"/>
<text fill="black" xml:space="preserve" style="white-space: pre" font-family="Trebuchet MS" font-size="14.6666" letter-spacing="0em"><tspan x="272.739" y="207.585">OH</tspan></text>
<path d="M213.538 195.226H214.725V177.813H213.538V195.226Z" fill="black"/>
<path d="M243.498 195.226H244.671V177.813H243.498V195.226Z" fill="black"/>
<path d="M213.538 229.639H214.725V212.386H213.538V229.639Z" fill="black"/>
<text fill="black" xml:space="preserve" style="white-space: pre" font-family="Trebuchet MS" font-size="14.6666" letter-spacing="0em"><tspan x="209.759" y="173.186">H</tspan></text>
<text fill="black" xml:space="preserve" style="white-space: pre" font-family="Trebuchet MS" font-size="14.6666" letter-spacing="0em"><tspan x="239.562" y="173.186">H</tspan></text>
<text fill="black" xml:space="preserve" style="white-space: pre" font-family="Trebuchet MS" font-size="14.6666" letter-spacing="0em"><tspan x="209.759" y="242.292">H</tspan></text>
<path d="M219.645 204.386H236.898V203.2H219.645V204.386Z" fill="black"/>
<path d="M189.298 204.386H206.551V203.2H189.298V204.386Z" fill="black"/>
<text fill="black" xml:space="preserve" style="white-space: pre" font-family="Trebuchet MS" font-size="14.6666" letter-spacing="0em"><tspan x="239.803" y="207.585">C</tspan></text>
<path d="M189.605 362.212H206.858V361.025H189.605V362.212Z" fill="black"/>
<path d="M189.605 365.639H206.858V364.452H189.605V365.639Z" fill="black"/>
<path d="M189.605 520.411H206.858V519.238H189.605V520.411Z" fill="black"/>
<path d="M189.605 523.851H206.858V522.664H189.605V523.851Z" fill="black"/>
<path d="M72.6721 204.386H89.9253V203.2H72.6721V204.386Z" fill="black"/>
<path d="M130.672 204.386H147.938V203.2H130.672V204.386Z" fill="black"/>
<path d="M95.4453 354.759H96.6186V337.359H95.4453V354.759Z" fill="black"/>
<path d="M95.4453 389.172H96.6186V371.932H95.4453V389.172Z" fill="black"/>
<text fill="black" xml:space="preserve" style="white-space: pre" font-family="Trebuchet MS" font-size="14.6666" letter-spacing="0em"><tspan x="61.0054" y="367.118">H</tspan></text>
<text fill="black" xml:space="preserve" style="white-space: pre" font-family="Trebuchet MS" font-size="14.6666" letter-spacing="0em"><tspan x="92.2454" y="367.118">C</tspan></text>
<text fill="black" xml:space="preserve" style="white-space: pre" font-family="Trebuchet MS" font-size="14.6666" letter-spacing="0em"><tspan x="91.6587" y="332.731">H</tspan></text>
<path d="M126.098 354.759H127.285V337.359H126.098V354.759Z" fill="black"/>
<text fill="black" xml:space="preserve" style="white-space: pre" font-family="Trebuchet MS" font-size="14.6666" letter-spacing="0em"><tspan x="122.312" y="332.731">H</tspan></text>
<text fill="black" xml:space="preserve" style="white-space: pre" font-family="Trebuchet MS" font-size="14.6666" letter-spacing="0em"><tspan x="91.6587" y="401.838">H</tspan></text>
<path d="M101.552 363.919H118.792V362.745H101.552V363.919Z" fill="black"/>
<path d="M153.458 354.759H154.632V337.359H153.458V354.759Z" fill="black"/>
<path d="M153.458 389.172H154.632V371.932H153.458V389.172Z" fill="black"/>
<text fill="black" xml:space="preserve" style="white-space: pre" font-family="Trebuchet MS" font-size="14.6666" letter-spacing="0em"><tspan x="121.405" y="367.118">C</tspan></text>
<text fill="black" xml:space="preserve" style="white-space: pre" font-family="Trebuchet MS" font-size="14.6666" letter-spacing="0em"><tspan x="150.25" y="367.118">C</tspan></text>
<text fill="black" xml:space="preserve" style="white-space: pre" font-family="Trebuchet MS" font-size="14.6666" letter-spacing="0em"><tspan x="149.664" y="332.731">H</tspan></text>
<text fill="black" xml:space="preserve" style="white-space: pre" font-family="Trebuchet MS" font-size="14.6666" letter-spacing="0em"><tspan x="149.664" y="401.838">H</tspan></text>
<path d="M159.552 363.919H176.805V362.745H159.552V363.919Z" fill="black"/>
<text fill="black" xml:space="preserve" style="white-space: pre" font-family="Trebuchet MS" font-size="14.6666" letter-spacing="0em"><tspan x="179.714" y="367.118">C</tspan></text>
<path d="M183.498 354.759H184.685V337.359H183.498V354.759Z" fill="black"/>
<text fill="black" xml:space="preserve" style="white-space: pre" font-family="Trebuchet MS" font-size="14.6666" letter-spacing="0em"><tspan x="179.715" y="332.731">H</tspan></text>
<path d="M123.405 389.172H124.592V371.932H123.405V389.172Z" fill="black"/>
<text fill="black" xml:space="preserve" style="white-space: pre" font-family="Trebuchet MS" font-size="14.6666" letter-spacing="0em"><tspan x="119.632" y="401.838">H</tspan></text>
<path d="M153.458 389.172H154.632V371.932H153.458V389.172Z" fill="black"/>
<path d="M243.498 389.172H244.671V371.932H243.498V389.172Z" fill="black"/>
<text fill="black" xml:space="preserve" style="white-space: pre" font-family="Trebuchet MS" font-size="14.6666" letter-spacing="0em"><tspan x="239.712" y="401.838">H</tspan></text>
<text fill="black" xml:space="preserve" style="white-space: pre" font-family="Trebuchet MS" font-size="14.6666" letter-spacing="0em"><tspan x="209.762" y="367.118">C</tspan></text>
<path d="M252.578 363.919H269.831V362.745H252.578V363.919Z" fill="black"/>
<text fill="black" xml:space="preserve" style="white-space: pre" font-family="Trebuchet MS" font-size="14.6666" letter-spacing="0em"><tspan x="272.739" y="367.118">OH</tspan></text>
<path d="M213.538 354.759H214.725V337.359H213.538V354.759Z" fill="black"/>
<text fill="black" xml:space="preserve" style="white-space: pre" font-family="Trebuchet MS" font-size="14.6666" letter-spacing="0em"><tspan x="209.759" y="332.731">H</tspan></text>
<path d="M243.498 354.759H244.671V337.359H243.498V354.759Z" fill="black"/>
<text fill="black" xml:space="preserve" style="white-space: pre" font-family="Trebuchet MS" font-size="14.6666" letter-spacing="0em"><tspan x="239.712" y="332.731">H</tspan></text>
<path d="M219.645 363.919H236.898V362.745H219.645V363.919Z" fill="black"/>
<text fill="black" xml:space="preserve" style="white-space: pre" font-family="Trebuchet MS" font-size="14.6666" letter-spacing="0em"><tspan x="239.803" y="367.118">C</tspan></text>
<path d="M72.6721 363.919H89.9253V362.745H72.6721V363.919Z" fill="black"/>
<path d="M130.672 363.919H147.938V362.745H130.672V363.919Z" fill="black"/>
<path d="M95.4453 512.971H96.6186V495.571H95.4453V512.971Z" fill="black"/>
<path d="M95.4453 547.384H96.6186V530.131H95.4453V547.384Z" fill="black"/>
<text fill="black" xml:space="preserve" style="white-space: pre" font-family="Trebuchet MS" font-size="14.6666" letter-spacing="0em"><tspan x="61.0054" y="525.33">H</tspan></text>
<text fill="black" xml:space="preserve" style="white-space: pre" font-family="Trebuchet MS" font-size="14.6666" letter-spacing="0em"><tspan x="92.2454" y="525.33">C</tspan></text>
<text fill="black" xml:space="preserve" style="white-space: pre" font-family="Trebuchet MS" font-size="14.6666" letter-spacing="0em"><tspan x="91.6587" y="490.944">H</tspan></text>
<path d="M126.098 512.971H127.285V495.571H126.098V512.971Z" fill="black"/>
<text fill="black" xml:space="preserve" style="white-space: pre" font-family="Trebuchet MS" font-size="14.6666" letter-spacing="0em"><tspan x="122.312" y="490.944">H</tspan></text>
<text fill="black" xml:space="preserve" style="white-space: pre" font-family="Trebuchet MS" font-size="14.6666" letter-spacing="0em"><tspan x="91.6587" y="560.05">H</tspan></text>
<path d="M101.552 522.131H118.792V520.958H101.552V522.131Z" fill="black"/>
<path d="M153.458 512.971H154.632V495.571H153.458V512.971Z" fill="black"/>
<path d="M153.458 547.384H154.632V530.131H153.458V547.384Z" fill="black"/>
<text fill="black" xml:space="preserve" style="white-space: pre" font-family="Trebuchet MS" font-size="14.6666" letter-spacing="0em"><tspan x="121.405" y="525.33">C</tspan></text>
<text fill="black" xml:space="preserve" style="white-space: pre" font-family="Trebuchet MS" font-size="14.6666" letter-spacing="0em"><tspan x="150.25" y="525.33">C</tspan></text>
<text fill="black" xml:space="preserve" style="white-space: pre" font-family="Trebuchet MS" font-size="14.6666" letter-spacing="0em"><tspan x="149.664" y="490.944">H</tspan></text>
<text fill="black" xml:space="preserve" style="white-space: pre" font-family="Trebuchet MS" font-size="14.6666" letter-spacing="0em"><tspan x="149.664" y="560.05">H</tspan></text>
<path d="M159.552 522.131H176.805V520.958H159.552V522.131Z" fill="black"/>
<text fill="black" xml:space="preserve" style="white-space: pre" font-family="Trebuchet MS" font-size="14.6666" letter-spacing="0em"><tspan x="179.714" y="525.33">C</tspan></text>
<path d="M183.498 512.971H184.685V495.571H183.498V512.971Z" fill="black"/>
<text fill="black" xml:space="preserve" style="white-space: pre" font-family="Trebuchet MS" font-size="14.6666" letter-spacing="0em"><tspan x="179.715" y="490.944">H</tspan></text>
<path d="M123.405 547.384H124.592V530.131H123.405V547.384Z" fill="black"/>
<text fill="black" xml:space="preserve" style="white-space: pre" font-family="Trebuchet MS" font-size="14.6666" letter-spacing="0em"><tspan x="119.632" y="560.037">H</tspan></text>
<path d="M153.458 547.384H154.632V530.131H153.458V547.384Z" fill="black"/>
<text fill="black" xml:space="preserve" style="white-space: pre" font-family="Trebuchet MS" font-size="14.6666" letter-spacing="0em"><tspan x="209.758" y="525.33">C</tspan></text>
<path d="M252.578 522.131H269.831V520.958H252.578V522.131Z" fill="black"/>
<text fill="black" xml:space="preserve" style="white-space: pre" font-family="Trebuchet MS" font-size="14.6666" letter-spacing="0em"><tspan x="272.739" y="525.33">OH</tspan></text>
<path d="M213.538 512.971H214.725V495.571H213.538V512.971Z" fill="black"/>
<text fill="black" xml:space="preserve" style="white-space: pre" font-family="Trebuchet MS" font-size="14.6666" letter-spacing="0em"><tspan x="209.759" y="490.944">H</tspan></text>
<path d="M219.645 522.131H236.898V520.958H219.645V522.131Z" fill="black"/>
<text fill="black" xml:space="preserve" style="white-space: pre" font-family="Trebuchet MS" font-size="14.6666" letter-spacing="0em"><tspan x="239.803" y="525.33">C</tspan></text>
<text fill="black" xml:space="preserve" style="white-space: pre" font-family="Trebuchet MS" font-size="14.6666" letter-spacing="0em"><tspan x="240.038" y="490.944">O</tspan></text>
<path d="M242.338 512.891H243.511V495.638H242.338V512.891Z" fill="black"/>
<path d="M245.764 512.891H246.951V495.638H245.764V512.891Z" fill="black"/>
<path d="M72.6721 522.131H89.9253V520.958H72.6721V522.131Z" fill="black"/>
<path d="M130.672 522.131H147.938V520.958H130.672V522.131Z" fill="black"/>
<text fill="black" xml:space="preserve" style="white-space: pre" font-family="Trebuchet MS" font-size="14.6666" letter-spacing="0em"><tspan x="0.765869" y="490.704">D</tspan></text>
<text fill="black" xml:space="preserve" style="white-space: pre" font-family="Trebuchet MS" font-size="14.6666" letter-spacing="0em"><tspan x="0.765869" y="331.945">C</tspan></text>
<text fill="black" xml:space="preserve" style="white-space: pre" font-family="Trebuchet MS" font-size="14.6666" letter-spacing="0em"><tspan x="0.765869" y="173.279">B</tspan></text>
<text fill="black" xml:space="preserve" style="white-space: pre" font-family="Trebuchet MS" font-size="14.6666" letter-spacing="0em"><tspan x="0.765869" y="14.6133">A</tspan></text>
</svg>
