<svg width="532" height="87" viewBox="0 0 532 87" fill="none" xmlns="http://www.w3.org/2000/svg">
<path d="M34.4399 35.7971H35.6266V18.3839H34.4399V35.7971Z" fill="black"/>
<path d="M34.4399 70.2102H35.6266V52.957H34.4399V70.2102Z" fill="black"/>
<text fill="black" xml:space="preserve" style="white-space: pre" font-family="Trebuchet MS" font-size="14.6666" letter-spacing="0em"><tspan x="0" y="48.1563">H</tspan></text>
<text fill="black" xml:space="preserve" style="white-space: pre" font-family="Trebuchet MS" font-size="14.6666" letter-spacing="0em"><tspan x="31.2397" y="48.1563">C</tspan></text>
<text fill="black" xml:space="preserve" style="white-space: pre" font-family="Trebuchet MS" font-size="14.6666" letter-spacing="0em"><tspan x="30.6531" y="13.7565">H</tspan></text>
<text fill="black" xml:space="preserve" style="white-space: pre" font-family="Trebuchet MS" font-size="14.6666" letter-spacing="0em"><tspan x="30.6531" y="82.876">H</tspan></text>
<path d="M40.5464 44.957H57.7996V43.7704H40.5464V44.957Z" fill="black"/>
<path d="M92.4529 35.7971H93.6262V18.3839H92.4529V35.7971Z" fill="black"/>
<path d="M92.4529 70.2102H93.6262V52.957H92.4529V70.2102Z" fill="black"/>
<text fill="black" xml:space="preserve" style="white-space: pre" font-family="Trebuchet MS" font-size="14.6666" letter-spacing="0em"><tspan x="60.3997" y="48.1563">C</tspan></text>
<text fill="black" xml:space="preserve" style="white-space: pre" font-family="Trebuchet MS" font-size="14.6666" letter-spacing="0em"><tspan x="89.2527" y="48.1563">C</tspan></text>
<text fill="black" xml:space="preserve" style="white-space: pre" font-family="Trebuchet MS" font-size="14.6666" letter-spacing="0em"><tspan x="88.6663" y="13.7565">H</tspan></text>
<text fill="black" xml:space="preserve" style="white-space: pre" font-family="Trebuchet MS" font-size="14.6666" letter-spacing="0em"><tspan x="88.6663" y="82.876">H</tspan></text>
<text fill="black" xml:space="preserve" style="white-space: pre" font-family="Trebuchet MS" font-size="14.6666" letter-spacing="0em"><tspan x="60.3862" y="13.7565">O</tspan></text>
<path d="M98.5593 44.957H115.799V43.7704H98.5593V44.957Z" fill="black"/>
<text fill="black" xml:space="preserve" style="white-space: pre" font-family="Trebuchet MS" font-size="14.6666" letter-spacing="0em"><tspan x="118.714" y="48.1563">H</tspan></text>
<path d="M62.7063 35.7171H63.8796V18.4639H62.7063V35.7171Z" fill="black"/>
<path d="M66.1331 35.7171H67.3197V18.4639H66.1331V35.7171Z" fill="black"/>
<path d="M11.6667 44.957H28.92V43.7704H11.6667V44.957Z" fill="black"/>
<path d="M69.6797 44.957H86.9329V43.7704H69.6797V44.957Z" fill="black"/>
<path d="M190.265 35.7971H191.452V18.3839H190.265V35.7971Z" fill="black"/>
<path d="M190.265 70.2102H191.452V52.957H190.265V70.2102Z" fill="black"/>
<text fill="black" xml:space="preserve" style="white-space: pre" font-family="Trebuchet MS" font-size="14.6666" letter-spacing="0em"><tspan x="155.827" y="48.1563">H</tspan></text>
<text fill="black" xml:space="preserve" style="white-space: pre" font-family="Trebuchet MS" font-size="14.6666" letter-spacing="0em"><tspan x="187.067" y="48.1563">C</tspan></text>
<text fill="black" xml:space="preserve" style="white-space: pre" font-family="Trebuchet MS" font-size="14.6666" letter-spacing="0em"><tspan x="186.48" y="13.7565">H</tspan></text>
<text fill="black" xml:space="preserve" style="white-space: pre" font-family="Trebuchet MS" font-size="14.6666" letter-spacing="0em"><tspan x="186.48" y="82.876">H</tspan></text>
<path d="M196.372 44.957H213.625V43.7704H196.372V44.957Z" fill="black"/>
<path d="M248.279 35.7971H249.465V18.3839H248.279V35.7971Z" fill="black"/>
<path d="M248.279 70.2102H249.465V52.957H248.279V70.2102Z" fill="black"/>
<text fill="black" xml:space="preserve" style="white-space: pre" font-family="Trebuchet MS" font-size="14.6666" letter-spacing="0em"><tspan x="216.223" y="48.1563">C</tspan></text>
<text fill="black" xml:space="preserve" style="white-space: pre" font-family="Trebuchet MS" font-size="14.6666" letter-spacing="0em"><tspan x="245.072" y="48.1563">C</tspan></text>
<text fill="black" xml:space="preserve" style="white-space: pre" font-family="Trebuchet MS" font-size="14.6666" letter-spacing="0em"><tspan x="244.485" y="13.7565">H</tspan></text>
<text fill="black" xml:space="preserve" style="white-space: pre" font-family="Trebuchet MS" font-size="14.6666" letter-spacing="0em"><tspan x="244.485" y="82.876">H</tspan></text>
<text fill="black" xml:space="preserve" style="white-space: pre" font-family="Trebuchet MS" font-size="14.6666" letter-spacing="0em"><tspan x="216.208" y="13.7565">O</tspan></text>
<path d="M254.372 44.957H271.625V43.7704H254.372V44.957Z" fill="black"/>
<text fill="black" xml:space="preserve" style="white-space: pre" font-family="Trebuchet MS" font-size="14.6666" letter-spacing="0em"><tspan x="274.537" y="48.1563">C</tspan></text>
<path d="M278.318 35.7971H279.505V18.3839H278.318V35.7971Z" fill="black"/>
<path d="M278.318 70.2102H279.505V52.957H278.318V70.2102Z" fill="black"/>
<text fill="black" xml:space="preserve" style="white-space: pre" font-family="Trebuchet MS" font-size="14.6666" letter-spacing="0em"><tspan x="274.537" y="13.7565">H</tspan></text>
<text fill="black" xml:space="preserve" style="white-space: pre" font-family="Trebuchet MS" font-size="14.6666" letter-spacing="0em"><tspan x="274.537" y="82.876">H</tspan></text>
<path d="M284.425 44.957H301.678V43.7704H284.425V44.957Z" fill="black"/>
<text fill="black" xml:space="preserve" style="white-space: pre" font-family="Trebuchet MS" font-size="14.6666" letter-spacing="0em"><tspan x="304.581" y="48.1563">H</tspan></text>
<path d="M218.519 35.7171H219.705V18.4639H218.519V35.7171Z" fill="black"/>
<path d="M221.959 35.7171H223.145V18.4639H221.959V35.7171Z" fill="black"/>
<path d="M167.492 44.957H184.746V43.7704H167.492V44.957Z" fill="black"/>
<path d="M225.492 44.957H242.745V43.7704H225.492V44.957Z" fill="black"/>
<path d="M377.211 35.7971H378.398V18.3839H377.211V35.7971Z" fill="black"/>
<path d="M377.211 70.2102H378.398V52.957H377.211V70.2102Z" fill="black"/>
<text fill="black" xml:space="preserve" style="white-space: pre" font-family="Trebuchet MS" font-size="14.6666" letter-spacing="0em"><tspan x="342.774" y="48.1563">H</tspan></text>
<text fill="black" xml:space="preserve" style="white-space: pre" font-family="Trebuchet MS" font-size="14.6666" letter-spacing="0em"><tspan x="374.011" y="48.1563">C</tspan></text>
<text fill="black" xml:space="preserve" style="white-space: pre" font-family="Trebuchet MS" font-size="14.6666" letter-spacing="0em"><tspan x="373.424" y="13.7565">H</tspan></text>
<text fill="black" xml:space="preserve" style="white-space: pre" font-family="Trebuchet MS" font-size="14.6666" letter-spacing="0em"><tspan x="373.424" y="82.876">H</tspan></text>
<path d="M383.318 44.957H400.571V43.7704H383.318V44.957Z" fill="black"/>
<path d="M435.224 35.7971H436.411V18.3839H435.224V35.7971Z" fill="black"/>
<path d="M435.224 70.2102H436.411V52.957H435.224V70.2102Z" fill="black"/>
<text fill="black" xml:space="preserve" style="white-space: pre" font-family="Trebuchet MS" font-size="14.6666" letter-spacing="0em"><tspan x="403.171" y="48.1563">C</tspan></text>
<text fill="black" xml:space="preserve" style="white-space: pre" font-family="Trebuchet MS" font-size="14.6666" letter-spacing="0em"><tspan x="432.024" y="48.1563">C</tspan></text>
<text fill="black" xml:space="preserve" style="white-space: pre" font-family="Trebuchet MS" font-size="14.6666" letter-spacing="0em"><tspan x="431.437" y="13.7565">H</tspan></text>
<text fill="black" xml:space="preserve" style="white-space: pre" font-family="Trebuchet MS" font-size="14.6666" letter-spacing="0em"><tspan x="431.437" y="82.876">H</tspan></text>
<text fill="black" xml:space="preserve" style="white-space: pre" font-family="Trebuchet MS" font-size="14.6666" letter-spacing="0em"><tspan x="403.157" y="13.7565">O</tspan></text>
<path d="M441.317 44.957H458.584V43.7704H441.317V44.957Z" fill="black"/>
<text fill="black" xml:space="preserve" style="white-space: pre" font-family="Trebuchet MS" font-size="14.6666" letter-spacing="0em"><tspan x="461.49" y="48.1563">C</tspan></text>
<path d="M465.264 35.7971H466.45V18.3839H465.264V35.7971Z" fill="black"/>
<path d="M465.264 70.2102H466.45V52.957H465.264V70.2102Z" fill="black"/>
<text fill="black" xml:space="preserve" style="white-space: pre" font-family="Trebuchet MS" font-size="14.6666" letter-spacing="0em"><tspan x="461.49" y="13.7565">H</tspan></text>
<text fill="black" xml:space="preserve" style="white-space: pre" font-family="Trebuchet MS" font-size="14.6666" letter-spacing="0em"><tspan x="461.49" y="82.876">H</tspan></text>
<path d="M471.37 44.957H488.624V43.7704H471.37V44.957Z" fill="black"/>
<text fill="black" xml:space="preserve" style="white-space: pre" font-family="Trebuchet MS" font-size="14.6666" letter-spacing="0em"><tspan x="491.53" y="48.1563">C</tspan></text>
<path d="M495.317 35.7971H496.49V18.3839H495.317V35.7971Z" fill="black"/>
<path d="M495.317 70.2102H496.49V52.957H495.317V70.2102Z" fill="black"/>
<text fill="black" xml:space="preserve" style="white-space: pre" font-family="Trebuchet MS" font-size="14.6666" letter-spacing="0em"><tspan x="491.53" y="13.7565">H</tspan></text>
<text fill="black" xml:space="preserve" style="white-space: pre" font-family="Trebuchet MS" font-size="14.6666" letter-spacing="0em"><tspan x="491.53" y="82.876">H</tspan></text>
<path d="M501.41 44.957H518.663V43.7704H501.41V44.957Z" fill="black"/>
<text fill="black" xml:space="preserve" style="white-space: pre" font-family="Trebuchet MS" font-size="14.6666" letter-spacing="0em"><tspan x="521.57" y="48.1563">H</tspan></text>
<path d="M405.478 35.7171H406.651V18.4639H405.478V35.7171Z" fill="black"/>
<path d="M408.904 35.7171H410.091V18.4639H408.904V35.7171Z" fill="black"/>
<path d="M354.438 44.957H371.691V43.7704H354.438V44.957Z" fill="black"/>
<path d="M412.451 44.957H429.704V43.7704H412.451V44.957Z" fill="black"/>
</svg>
