<svg width="348" height="214" viewBox="0 0 348 214" fill="none" xmlns="http://www.w3.org/2000/svg">
<path d="M227.408 68.8529L227.341 68.7995L227.275 68.7595L227.181 68.7328L227.088 68.7195H226.981H226.875L226.755 68.7328L226.621 68.7462L226.475 68.7861L226.328 68.8262L226.008 68.9329L225.648 69.0795L225.275 69.2528L224.875 69.4661L224.461 69.7195L224.021 69.9995L223.581 70.3061L223.128 70.6528L222.661 71.0262L222.208 71.4262L221.741 71.8528L221.275 72.3195L220.821 72.7995L220.381 73.3061L219.955 73.8528L219.541 74.4128L219.141 74.9995L218.768 75.6128L218.421 76.2395L218.115 76.8928L217.821 77.5728L217.568 78.2661L217.355 78.9728L217.195 79.7061L217.128 80.0794L217.061 80.4527L217.021 80.8261L216.981 81.2127L216.968 81.5994L216.955 81.9994V197.985C216.955 206.399 208.168 213.212 197.315 213.212H119.889C109.035 213.212 100.235 206.399 100.235 197.985L100.262 81.9994C99.3553 70.8795 90.1021 69.5329 87.1154 68.8529" stroke="black" stroke-width="1.33332" stroke-miterlimit="10.433" stroke-linecap="round" stroke-linejoin="round"/>
<path d="M126.982 180.305H140.742V63.4929H126.982V180.305Z" fill="#999999"/>
<path fill-rule="evenodd" clip-rule="evenodd" d="M126.982 180.305H140.742V63.4929H126.982V180.305Z" stroke="black" stroke-width="1.33332" stroke-miterlimit="10.433"/>
<path d="M176.902 180.305H190.648V63.4929H176.902V180.305Z" fill="white"/>
<path fill-rule="evenodd" clip-rule="evenodd" d="M176.902 180.305H190.648V63.4929H176.902V180.305Z" stroke="black" stroke-width="1.33332" stroke-miterlimit="10.433"/>
<path d="M183.781 63.4929C184.048 43.253 202.488 18.5865 158.822 18.3332" stroke="black" stroke-width="1.33332" stroke-miterlimit="10.433" stroke-linecap="round" stroke-linejoin="round"/>
<path d="M133.862 63.4929C133.595 43.253 115.142 18.5865 158.822 18.3332" stroke="black" stroke-width="1.33332" stroke-miterlimit="10.433" stroke-linecap="round" stroke-linejoin="round"/>
<path d="M170.422 13.6666L170.408 13.0133L170.355 12.36L170.275 11.7332L170.168 11.1066L170.022 10.4933L169.862 9.89325L169.662 9.30659L169.435 8.73327L169.182 8.17329L168.902 7.62658L168.595 7.0933L168.262 6.58663L167.915 6.07996L167.528 5.59999L167.142 5.14662L166.715 4.7066L166.275 4.29327L165.822 3.89329L165.342 3.52L164.848 3.15998L164.328 2.82665L163.795 2.52001L163.262 2.25333L162.688 1.99999L162.115 1.77335L161.528 1.57332L160.928 1.39998L160.315 1.25333L159.702 1.14665L159.062 1.06665L158.422 1.01335L157.768 0.999999C150.782 0.999999 145.102 6.66663 145.102 13.6666C145.102 20.6532 150.782 26.3198 157.768 26.3198C164.755 26.3198 170.422 20.6532 170.422 13.6666Z" fill="white"/>
<path fill-rule="evenodd" clip-rule="evenodd" d="M170.422 13.6666L170.408 13.0133L170.355 12.36L170.275 11.7332L170.168 11.1066L170.022 10.4933L169.862 9.89325L169.662 9.30659L169.435 8.73327L169.182 8.17329L168.902 7.62658L168.595 7.0933L168.262 6.58663L167.915 6.07996L167.528 5.59999L167.142 5.14662L166.715 4.7066L166.275 4.29327L165.822 3.89329L165.342 3.52L164.848 3.15998L164.328 2.82665L163.795 2.52001L163.262 2.25333L162.688 1.99999L162.115 1.77335L161.528 1.57332L160.928 1.39998L160.315 1.25333L159.702 1.14665L159.062 1.06665L158.422 1.01335L157.768 0.999999C150.782 0.999999 145.102 6.66663 145.102 13.6666C145.102 20.6532 150.782 26.3198 157.768 26.3198C164.755 26.3198 170.422 20.6532 170.422 13.6666Z" stroke="black" stroke-width="1.33332" stroke-miterlimit="10.433" stroke-linecap="round" stroke-linejoin="round"/>
<path d="M190.648 63.4928L176.715 77.426" stroke="black" stroke-width="0.666662" stroke-miterlimit="10.433"/>
<path d="M190.648 75.4261L176.715 89.3594" stroke="black" stroke-width="0.666662" stroke-miterlimit="10.433"/>
<path d="M190.648 87.3593L176.715 101.292" stroke="black" stroke-width="0.666662" stroke-miterlimit="10.433"/>
<path d="M179.075 63.1463L176.715 65.4929" stroke="black" stroke-width="0.666662" stroke-miterlimit="10.433"/>
<path d="M190.648 63.4928L176.715 77.426" stroke="black" stroke-width="0.666662" stroke-miterlimit="10.433"/>
<path d="M190.648 99.2926L176.715 113.226" stroke="black" stroke-width="0.666662" stroke-miterlimit="10.433"/>
<path d="M190.648 111.226L176.715 125.159" stroke="black" stroke-width="0.666662" stroke-miterlimit="10.433"/>
<path d="M190.648 123.159L176.715 137.092" stroke="black" stroke-width="0.666662" stroke-miterlimit="10.433"/>
<path d="M190.648 135.092L176.715 149.026" stroke="black" stroke-width="0.666662" stroke-miterlimit="10.433"/>
<path d="M190.648 147.026L176.715 160.959" stroke="black" stroke-width="0.666662" stroke-miterlimit="10.433"/>
<path d="M190.648 158.959L176.715 172.892" stroke="black" stroke-width="0.666662" stroke-miterlimit="10.433"/>
<path d="M190.648 170.892L181.248 180.305" stroke="black" stroke-width="0.666662" stroke-miterlimit="10.433"/>
<path d="M73.4222 92.5327H133.862" stroke="black" stroke-width="0.666662" stroke-miterlimit="10.433"/>
<path d="M177.888 195.012H237.008" stroke="black" stroke-width="0.666662" stroke-miterlimit="10.433"/>
<path d="M182.235 92.5327H241.341" stroke="black" stroke-width="0.666662" stroke-miterlimit="10.433"/>
<path d="M187.875 34.493L237.008 19.5464" stroke="black" stroke-width="0.666662" stroke-miterlimit="10.433"/>
<text fill="black" xml:space="preserve" style="white-space: pre" font-family="Trebuchet MS" font-size="14.6666" letter-spacing="0em"><tspan x="246.325" y="94.1586">nickel</tspan></text>
<text fill="black" xml:space="preserve" style="white-space: pre" font-family="Trebuchet MS" font-size="14.6666" letter-spacing="0em"><tspan x="241.412" y="21.5857">connecting wire</tspan></text>
<text fill="black" xml:space="preserve" style="white-space: pre" font-family="Trebuchet MS" font-size="14.6666" letter-spacing="0em"><tspan x="0" y="94.3452">aluminium</tspan></text>
<text fill="black" xml:space="preserve" style="white-space: pre" font-family="Trebuchet MS" font-size="14.6666" letter-spacing="0em"><tspan x="246.325" y="199.131">electrolyte</tspan></text>
<text fill="black" xml:space="preserve" style="white-space: pre" font-family="Trebuchet MS" font-size="15.9999" letter-spacing="0em"><tspan x="153.35" y="18.7968">V</tspan></text>
</svg>
