<svg width="433" height="233" viewBox="0 0 433 233" fill="none" xmlns="http://www.w3.org/2000/svg">
<path d="M188.106 103.65L187.679 103.717L187.266 103.797L186.879 103.903L186.492 104.023L186.119 104.157L185.772 104.303L185.426 104.463L185.092 104.637L184.772 104.823L184.479 105.023L184.186 105.237L183.906 105.45L183.639 105.69L183.372 105.93L183.132 106.183L182.892 106.437L182.666 106.703L182.452 106.97L182.066 107.543L181.706 108.13L181.386 108.743L181.092 109.37L180.839 109.997L180.612 110.637L180.426 111.277L180.252 111.903L180.119 112.53L179.999 113.143L179.906 113.743L179.826 114.317L179.759 114.863L179.719 115.383L179.679 115.863L179.666 116.303L179.652 116.703L179.639 116.89V117.05V117.21V117.343V117.477L179.652 117.583V117.677V117.757V117.823V117.863V117.89V117.903V190.583C179.652 199.316 173.999 206.409 167.012 206.409H147.133H126.746H106.866C99.8795 206.409 94.2262 199.316 94.2262 190.583V117.903C94.2262 117.903 94.9862 104.983 85.7729 103.65" stroke="black" stroke-width="1.66666" stroke-miterlimit="10.433" stroke-linecap="round" stroke-linejoin="round"/>
<path d="M170.279 133.543H175.159C177.639 133.356 179.599 130.903 179.599 130.903" stroke="black" stroke-width="1.33332" stroke-miterlimit="10.433" stroke-linecap="round"/>
<path d="M94.2795 130.903V130.916H94.2929V130.93L94.3062 130.943L94.3195 130.956L94.3329 130.97L94.3462 130.996L94.3729 131.01L94.4262 131.076L94.4795 131.13L94.5462 131.21L94.6262 131.29L94.7195 131.383L94.8129 131.476L94.9195 131.583L95.0262 131.69L95.1595 131.81L95.2795 131.916L95.4262 132.036L95.5729 132.156L95.7195 132.276L95.8795 132.396L96.0529 132.516L96.2262 132.623L96.3995 132.743L96.5862 132.85L96.7862 132.956L96.9862 133.05L97.1862 133.143L97.3862 133.223L97.5995 133.303L97.8128 133.37L98.0395 133.436L98.2662 133.476L98.4928 133.516L98.7195 133.543H131.533H142.346H165.439" stroke="black" stroke-width="1.33332" stroke-miterlimit="10.433" stroke-linecap="round"/>
<path d="M340.944 103.65L340.518 103.717L340.105 103.797L339.705 103.903L339.318 104.023L338.958 104.157L338.598 104.303L338.251 104.463L337.931 104.637L337.611 104.823L337.305 105.023L337.011 105.237L336.731 105.45L336.465 105.69L336.211 105.93L335.958 106.183L335.731 106.437L335.505 106.703L335.291 106.97L334.891 107.543L334.531 108.13L334.211 108.743L333.931 109.37L333.678 109.997L333.451 110.637L333.251 111.277L333.091 111.903L332.945 112.53L332.825 113.143L332.731 113.743L332.651 114.317L332.598 114.863L332.545 115.383L332.518 115.863L332.491 116.303L332.478 116.703V116.89V117.05V117.21V117.343V117.477V117.583V117.677L332.491 117.757V117.823V117.863V117.89V117.903V190.583C332.491 199.316 326.825 206.409 319.838 206.409H299.971H279.572H259.705C252.718 206.409 247.052 199.316 247.052 190.583V117.903C247.052 117.903 247.825 104.983 238.612 103.65" stroke="black" stroke-width="1.66666" stroke-miterlimit="10.433" stroke-linecap="round" stroke-linejoin="round"/>
<path d="M259.558 133.543H284.372H295.185H327.998C330.478 133.356 332.425 130.903 332.425 130.903" stroke="black" stroke-width="1.33332" stroke-miterlimit="10.433" stroke-linecap="round"/>
<path d="M247.118 130.903V130.916L247.132 130.93V130.943L247.145 130.956L247.172 130.97L247.185 130.996L247.198 131.01L247.252 131.076L247.318 131.13L247.385 131.21L247.465 131.29L247.545 131.383L247.638 131.476L247.745 131.583L247.865 131.69L247.985 131.81L248.118 131.916L248.252 132.036L248.398 132.156L248.558 132.276L248.718 132.396L248.878 132.516L249.052 132.623L249.238 132.743L249.425 132.85L249.612 132.956L249.812 133.05L250.012 133.143L250.225 133.223L250.425 133.303L250.652 133.37L250.865 133.436L251.092 133.476L251.318 133.516L251.545 133.543H254.265" stroke="black" stroke-width="1.33332" stroke-miterlimit="10.433" stroke-linecap="round"/>
<path d="M111.026 190.13L73.2129 175.636" stroke="black" stroke-width="0.666662" stroke-miterlimit="10.433" stroke-linecap="round"/>
<path d="M315.078 190.13L352.011 175.636" stroke="black" stroke-width="0.666662" stroke-miterlimit="10.433" stroke-linecap="round"/>
<path d="M73.2129 76.0902L115.359 92.3834" stroke="black" stroke-width="0.666662" stroke-miterlimit="10.433" stroke-linecap="round"/>
<path d="M165.652 144.703V102.077C165.652 96.7834 169.946 92.4901 175.239 92.4901H249.972C255.265 92.4901 259.558 96.7834 259.558 102.077V144.703" stroke="black" stroke-width="1.33332" stroke-miterlimit="10.433"/>
<path d="M117.133 145.556V56.4369C117.133 45.3437 125.959 36.3704 136.826 36.3704H290.171C301.051 36.3704 309.865 45.3437 309.865 56.4369V145.556" stroke="black" stroke-width="1.33332" stroke-miterlimit="10.433"/>
<path d="M170.279 144.703V103.063C170.279 99.89 172.852 97.3301 176.012 97.3301H248.732C251.892 97.3301 254.465 99.89 254.465 103.063V144.703" stroke="black" stroke-width="1.33332" stroke-miterlimit="10.433"/>
<path d="M224.145 36.5304L224.132 37.1304L224.079 37.7171L224.012 38.2904L223.905 38.8504L223.785 39.4103L223.625 39.957L223.439 40.5037L223.239 41.0237L222.999 41.5304L222.745 42.037L222.479 42.517L222.172 42.9836L221.852 43.437L221.505 43.877L221.145 44.2903L220.759 44.6903L220.359 45.077L219.945 45.437L219.505 45.7703L219.052 46.1037L218.585 46.3969L218.105 46.677L217.612 46.9303L217.092 47.1569L216.572 47.3703L216.039 47.5437L215.492 47.7037L214.932 47.837L214.359 47.9303L213.785 48.0103L213.199 48.0503L212.612 48.0636C206.225 48.0636 201.065 42.9037 201.065 36.5304C201.065 30.1571 206.225 24.9971 212.612 24.9971C218.972 24.9971 224.145 30.1571 224.145 36.5304Z" fill="white"/>
<path fill-rule="evenodd" clip-rule="evenodd" d="M224.145 36.5304L224.132 37.1304L224.079 37.7171L224.012 38.2904L223.905 38.8504L223.785 39.4103L223.625 39.957L223.439 40.5037L223.239 41.0237L222.999 41.5304L222.745 42.037L222.479 42.517L222.172 42.9836L221.852 43.437L221.505 43.877L221.145 44.2903L220.759 44.6903L220.359 45.077L219.945 45.437L219.505 45.7703L219.052 46.1037L218.585 46.3969L218.105 46.677L217.612 46.9303L217.092 47.1569L216.572 47.3703L216.039 47.5437L215.492 47.7037L214.932 47.837L214.359 47.9303L213.785 48.0103L213.199 48.0503L212.612 48.0636C206.225 48.0636 201.065 42.9037 201.065 36.5304C201.065 30.1571 206.225 24.9971 212.612 24.9971C218.972 24.9971 224.145 30.1571 224.145 36.5304Z" stroke="black" stroke-width="1.33332" stroke-miterlimit="10.433"/>
<path d="M352.011 76.1969L309.865 92.4901" stroke="black" stroke-width="0.666662" stroke-miterlimit="10.433" stroke-linecap="round"/>
<path d="M263.305 11.424L221.159 27.7173" stroke="black" stroke-width="0.666662" stroke-miterlimit="10.433" stroke-linecap="round"/>
<path d="M111.026 171.81H123.253V81.4636H111.026V171.81Z" fill="#B3B3B3"/>
<path fill-rule="evenodd" clip-rule="evenodd" d="M111.026 171.81H123.253V81.4636H111.026V171.81Z" stroke="black" stroke-width="1.33332" stroke-miterlimit="10.433"/>
<path d="M303.758 171.81H315.971V81.4636H303.758V171.81Z" fill="#B3B3B3"/>
<path fill-rule="evenodd" clip-rule="evenodd" d="M303.758 171.81H315.971V81.4636H303.758V171.81Z" stroke="black" stroke-width="1.33332" stroke-miterlimit="10.433"/>
<text fill="black" xml:space="preserve" style="white-space: pre" font-family="Trebuchet MS" font-size="14.6666" letter-spacing="0em"><tspan x="208.507" y="40.1697">V</tspan></text>
<text fill="black" xml:space="preserve" style="white-space: pre" font-family="Trebuchet MS" font-size="14.6666" letter-spacing="0em"><tspan x="361.398" y="78.4362">electrode</tspan></text>
<text fill="black" xml:space="preserve" style="white-space: pre" font-family="Trebuchet MS" font-size="14.6666" letter-spacing="0em"><tspan x="3.28003" y="78.5294">electrode</tspan></text>
<text fill="black" xml:space="preserve" style="white-space: pre" font-family="Trebuchet MS" font-size="14.6666" letter-spacing="0em"><tspan x="266.997" y="13.7565">v</tspan></text>
<text fill="black" xml:space="preserve" style="white-space: pre" font-family="Trebuchet MS" font-size="14.6666" letter-spacing="0em"><tspan x="273.714" y="13.7565">oltmeter</tspan></text>
<text fill="black" xml:space="preserve" style="white-space: pre" font-family="Trebuchet MS" font-size="14.6666" letter-spacing="0em"><tspan x="366.251" y="159.302">solution </tspan></text>
<text fill="black" xml:space="preserve" style="white-space: pre" font-family="Trebuchet MS" font-size="14.6666" letter-spacing="0em"><tspan x="358.171" y="175.315">containing </tspan></text>
<text fill="black" xml:space="preserve" style="white-space: pre" font-family="Trebuchet MS" font-size="14.6666" letter-spacing="0em"><tspan x="354.371" y="191.315">sulfite ions, </tspan></text>
<text fill="black" xml:space="preserve" style="white-space: pre" font-family="Trebuchet MS" font-size="14.6666" letter-spacing="0em"><tspan x="362.878" y="207.315">SO</tspan></text>
<text fill="black" xml:space="preserve" style="white-space: pre" font-family="Trebuchet MS" font-size="9.76794" letter-spacing="0em"><tspan x="379.998" y="211.125">3</tspan></text>
<text fill="black" xml:space="preserve" style="white-space: pre" font-family="Trebuchet MS" font-size="9.76794" letter-spacing="0em"><tspan x="385.118" y="201.592">2</tspan></text>
<path fill-rule="evenodd" clip-rule="evenodd" d="M390.238 199.703H395.544V198.649H390.238V199.703Z" fill="black"/>
<text fill="black" xml:space="preserve" style="white-space: pre" font-family="Trebuchet MS" font-size="14.6666" letter-spacing="0em"><tspan x="396.078" y="207.315">(aq)</tspan></text>
<text fill="black" xml:space="preserve" style="white-space: pre" font-family="Trebuchet MS" font-size="14.6666" letter-spacing="0em"><tspan x="8.07996" y="159.316">solution </tspan></text>
<text fill="black" xml:space="preserve" style="white-space: pre" font-family="Trebuchet MS" font-size="14.6666" letter-spacing="0em"><tspan x="0" y="175.315">containing </tspan></text>
<text fill="black" xml:space="preserve" style="white-space: pre" font-family="Trebuchet MS" font-size="14.6666" letter-spacing="0em"><tspan x="4.54663" y="191.315">br</tspan></text>
<text fill="black" xml:space="preserve" style="white-space: pre" font-family="Trebuchet MS" font-size="14.6666" letter-spacing="0em"><tspan x="18.3467" y="191.315">omine, </tspan></text>
<text fill="black" xml:space="preserve" style="white-space: pre" font-family="Trebuchet MS" font-size="14.6666" letter-spacing="0em"><tspan x="11.7067" y="207.315">Br</tspan></text>
<text fill="black" xml:space="preserve" style="white-space: pre" font-family="Trebuchet MS" font-size="9.76794" letter-spacing="0em"><tspan x="25.7732" y="211.125">2</tspan></text>
<text fill="black" xml:space="preserve" style="white-space: pre" font-family="Trebuchet MS" font-size="14.6666" letter-spacing="0em"><tspan x="30.8933" y="207.315">(aq)</tspan></text>
<text fill="black" xml:space="preserve" style="white-space: pre" font-family="Trebuchet MS" font-size="14.6666" letter-spacing="0em"><tspan x="110.526" y="228.768">beaker </tspan></text>
<text fill="black" xml:space="preserve" style="white-space: pre" font-family="Trebuchet MS" font-size="14.6666" letter-spacing="0em"><tspan x="159.802" y="228.768">A</tspan></text>
<text fill="black" xml:space="preserve" style="white-space: pre" font-family="Trebuchet MS" font-size="14.6666" letter-spacing="0em"><tspan x="260.858" y="228.768">beaker </tspan></text>
<text fill="black" xml:space="preserve" style="white-space: pre" font-family="Trebuchet MS" font-size="14.6666" letter-spacing="0em"><tspan x="310.131" y="228.768">B</tspan></text>
</svg>
