<svg width="249" height="182" viewBox="0 0 249 182" fill="none" xmlns="http://www.w3.org/2000/svg">
<path d="M29.4797 36.7837H30.7997V17.3304H29.4797V36.7837Z" fill="black"/>
<path d="M29.4797 92.3167H30.7997V52.9836H29.4797V92.3167Z" fill="black"/>
<path d="M67.0662 36.7837H68.3728V17.3304H67.0662V36.7837Z" fill="black"/>
<path d="M67.0662 72.2634H68.3728V52.9836H67.0662V72.2634Z" fill="black"/>
<text fill="black" xml:space="preserve" style="white-space: pre" font-family="Trebuchet MS" font-size="14.6639" letter-spacing="0em"><tspan x="25.9077" y="49.2113">C</tspan></text>
<text fill="black" xml:space="preserve" style="white-space: pre" font-family="Trebuchet MS" font-size="14.6639" letter-spacing="0em"><tspan x="63.4768" y="49.2113">C</tspan></text>
<path d="M37.9463 99.4233H59.8928V98.1034H37.9463V99.4233Z" fill="black"/>
<path d="M37.9463 103.263H59.8928V101.93H37.9463V103.263Z" fill="black"/>
<text fill="black" xml:space="preserve" style="white-space: pre" font-family="Trebuchet MS" font-size="14.6639" letter-spacing="0em"><tspan x="214.252" y="105.078">O</tspan></text>
<text fill="black" xml:space="preserve" style="white-space: pre" font-family="Trebuchet MS" font-size="14.6639" letter-spacing="0em"><tspan x="25.9104" y="105.078">C</tspan></text>
<text fill="black" xml:space="preserve" style="white-space: pre" font-family="Trebuchet MS" font-size="14.6639" letter-spacing="0em"><tspan x="62.8342" y="13.7582">H</tspan></text>
<text fill="black" xml:space="preserve" style="white-space: pre" font-family="Trebuchet MS" font-size="14.6639" letter-spacing="0em"><tspan x="62.8342" y="85.0243">H</tspan></text>
<path d="M29.4797 127.677H30.7997V108.237H29.4797V127.677Z" fill="black"/>
<path d="M29.4797 163.156H30.7997V143.89H29.4797V163.156Z" fill="black"/>
<text fill="black" xml:space="preserve" style="white-space: pre" font-family="Trebuchet MS" font-size="14.6639" letter-spacing="0em"><tspan x="25.9065" y="140.117">O</tspan></text>
<text fill="black" xml:space="preserve" style="white-space: pre" font-family="Trebuchet MS" font-size="14.6639" letter-spacing="0em"><tspan x="25.9065" y="175.397">CH</tspan></text>
<text fill="black" xml:space="preserve" style="white-space: pre" font-family="Trebuchet MS" font-size="9.76794" letter-spacing="0em"><tspan x="44.0784" y="179.218">3</tspan></text>
<text fill="black" xml:space="preserve" style="white-space: pre" font-family="Trebuchet MS" font-size="14.6666" letter-spacing="0em"><tspan x="25.9077" y="13.7565">CH</tspan></text>
<text fill="black" xml:space="preserve" style="white-space: pre" font-family="Trebuchet MS" font-size="9.76794" letter-spacing="0em"><tspan x="44.0836" y="17.566">3</tspan></text>
<path d="M0 45.5303H21.9465V44.2103H0V45.5303Z" fill="black"/>
<path d="M75.2128 45.5303H97.1593V44.2103H75.2128V45.5303Z" fill="black"/>
<path d="M104.973 36.7837H106.293V17.3304H104.973V36.7837Z" fill="black"/>
<path d="M104.973 92.2634H106.293V52.9837H104.973V92.2634Z" fill="black"/>
<path d="M142.546 36.7837H143.866V17.3304H142.546V36.7837Z" fill="black"/>
<path d="M142.546 72.2634H143.866V52.9836H142.546V72.2634Z" fill="black"/>
<text fill="black" xml:space="preserve" style="white-space: pre" font-family="Trebuchet MS" font-size="14.6639" letter-spacing="0em"><tspan x="101.398" y="49.2113">C</tspan></text>
<text fill="black" xml:space="preserve" style="white-space: pre" font-family="Trebuchet MS" font-size="14.6639" letter-spacing="0em"><tspan x="138.966" y="49.2113">C</tspan></text>
<path d="M113.439 99.3567H135.386V98.0367H113.439V99.3567Z" fill="black"/>
<path d="M113.439 103.197H135.386V101.877H113.439V103.197Z" fill="black"/>
<text fill="black" xml:space="preserve" style="white-space: pre" font-family="Trebuchet MS" font-size="14.6639" letter-spacing="0em"><tspan x="62.4915" y="105.024">O</tspan></text>
<text fill="black" xml:space="preserve" style="white-space: pre" font-family="Trebuchet MS" font-size="14.6639" letter-spacing="0em"><tspan x="101.394" y="105.024">C</tspan></text>
<text fill="black" xml:space="preserve" style="white-space: pre" font-family="Trebuchet MS" font-size="14.6639" letter-spacing="0em"><tspan x="138.318" y="13.7582">H</tspan></text>
<text fill="black" xml:space="preserve" style="white-space: pre" font-family="Trebuchet MS" font-size="14.6639" letter-spacing="0em"><tspan x="138.318" y="85.0243">H</tspan></text>
<path d="M104.973 127.623H106.293V108.17H104.973V127.623Z" fill="black"/>
<path d="M104.973 163.103H106.293V143.823H104.973V163.103Z" fill="black"/>
<text fill="black" xml:space="preserve" style="white-space: pre" font-family="Trebuchet MS" font-size="14.6639" letter-spacing="0em"><tspan x="101.397" y="140.051">O</tspan></text>
<text fill="black" xml:space="preserve" style="white-space: pre" font-family="Trebuchet MS" font-size="14.6639" letter-spacing="0em"><tspan x="101.397" y="175.33">CH</tspan></text>
<text fill="black" xml:space="preserve" style="white-space: pre" font-family="Trebuchet MS" font-size="9.76794" letter-spacing="0em"><tspan x="119.568" y="179.152">3</tspan></text>
<text fill="black" xml:space="preserve" style="white-space: pre" font-family="Trebuchet MS" font-size="14.6666" letter-spacing="0em"><tspan x="101.398" y="13.7565">CH</tspan></text>
<text fill="black" xml:space="preserve" style="white-space: pre" font-family="Trebuchet MS" font-size="9.76794" letter-spacing="0em"><tspan x="119.573" y="17.566">3</tspan></text>
<path d="M150.706 45.5303H172.652V44.2103H150.706V45.5303Z" fill="black"/>
<path d="M180.799 36.7837H182.132V17.3304H180.799V36.7837Z" fill="black"/>
<path d="M180.799 92.2634H182.132V52.9837H180.799V92.2634Z" fill="black"/>
<path d="M218.372 36.7837H219.692V17.3304H218.372V36.7837Z" fill="black"/>
<path d="M218.372 72.2634H219.692V52.9836H218.372V72.2634Z" fill="black"/>
<text fill="black" xml:space="preserve" style="white-space: pre" font-family="Trebuchet MS" font-size="14.6639" letter-spacing="0em"><tspan x="177.227" y="49.2113">C</tspan></text>
<text fill="black" xml:space="preserve" style="white-space: pre" font-family="Trebuchet MS" font-size="14.6639" letter-spacing="0em"><tspan x="214.799" y="49.2113">C</tspan></text>
<path d="M189.305 99.3567H211.239V98.0367H189.305V99.3567Z" fill="black"/>
<path d="M189.305 103.197H211.239V101.877H189.305V103.197Z" fill="black"/>
<text fill="black" xml:space="preserve" style="white-space: pre" font-family="Trebuchet MS" font-size="14.6639" letter-spacing="0em"><tspan x="138.322" y="105.024">O</tspan></text>
<text fill="black" xml:space="preserve" style="white-space: pre" font-family="Trebuchet MS" font-size="14.6639" letter-spacing="0em"><tspan x="177.225" y="105.024">C</tspan></text>
<text fill="black" xml:space="preserve" style="white-space: pre" font-family="Trebuchet MS" font-size="14.6639" letter-spacing="0em"><tspan x="214.145" y="13.7582">H</tspan></text>
<text fill="black" xml:space="preserve" style="white-space: pre" font-family="Trebuchet MS" font-size="14.6639" letter-spacing="0em"><tspan x="214.145" y="85.0243">H</tspan></text>
<path d="M180.799 127.623H182.132V108.17H180.799V127.623Z" fill="black"/>
<path d="M180.799 163.103H182.132V143.823H180.799V163.103Z" fill="black"/>
<text fill="black" xml:space="preserve" style="white-space: pre" font-family="Trebuchet MS" font-size="14.6639" letter-spacing="0em"><tspan x="177.227" y="140.051">O</tspan></text>
<text fill="black" xml:space="preserve" style="white-space: pre" font-family="Trebuchet MS" font-size="14.6639" letter-spacing="0em"><tspan x="177.227" y="175.33">CH</tspan></text>
<text fill="black" xml:space="preserve" style="white-space: pre" font-family="Trebuchet MS" font-size="9.76794" letter-spacing="0em"><tspan x="195.399" y="179.152">3</tspan></text>
<text fill="black" xml:space="preserve" style="white-space: pre" font-family="Trebuchet MS" font-size="14.6666" letter-spacing="0em"><tspan x="177.227" y="13.7565">CH</tspan></text>
<text fill="black" xml:space="preserve" style="white-space: pre" font-family="Trebuchet MS" font-size="9.76794" letter-spacing="0em"><tspan x="195.403" y="17.566">3</tspan></text>
<path d="M226.532 45.5303H248.478V44.2103H226.532V45.5303Z" fill="black"/>
<path d="M37.613 45.5303H59.5596V44.2103H37.613V45.5303Z" fill="black"/>
<path d="M113.093 45.5303H135.039V44.2103H113.093V45.5303Z" fill="black"/>
<path d="M188.919 45.5303H210.879V44.2103H188.919V45.5303Z" fill="black"/>
</svg>
