<svg width="135" height="702" viewBox="0 0 135 702" fill="none" xmlns="http://www.w3.org/2000/svg">
<path d="M60.7729 36.7969H62.0929V17.3571H60.7729V36.7969Z" fill="black"/>
<path d="M60.7729 72.2769H62.0929V52.997H60.7729V72.2769Z" fill="black"/>
<text fill="black" xml:space="preserve" style="white-space: pre" font-family="Trebuchet MS" font-size="14.6639" letter-spacing="0em"><tspan x="57.1997" y="49.2379">C</tspan></text>
<text fill="black" xml:space="preserve" style="white-space: pre" font-family="Trebuchet MS" font-size="14.6639" letter-spacing="0em"><tspan x="56.5464" y="13.7848">H</tspan></text>
<text fill="black" xml:space="preserve" style="white-space: pre" font-family="Trebuchet MS" font-size="14.6639" letter-spacing="0em"><tspan x="56.5464" y="85.0509">H</tspan></text>
<path d="M93.3594 36.7969H94.6794V17.3571H93.3594V36.7969Z" fill="black"/>
<path d="M93.3594 72.2769H94.6794V52.997H93.3594V72.2769Z" fill="black"/>
<text fill="black" xml:space="preserve" style="white-space: pre" font-family="Trebuchet MS" font-size="14.6639" letter-spacing="0em"><tspan x="89.7728" y="49.2379">C</tspan></text>
<path d="M102.053 79.3834H121.333V78.0501H102.053V79.3834Z" fill="black"/>
<path d="M102.053 83.21H121.333V81.9033H102.053V83.21Z" fill="black"/>
<text fill="black" xml:space="preserve" style="white-space: pre" font-family="Trebuchet MS" font-size="14.6639" letter-spacing="0em"><tspan x="124.506" y="85.0377">O</tspan></text>
<text fill="black" xml:space="preserve" style="white-space: pre" font-family="Trebuchet MS" font-size="14.6639" letter-spacing="0em"><tspan x="89.7728" y="85.0377">C</tspan></text>
<path d="M93.3594 107.637H94.6794V88.1834H93.3594V107.637Z" fill="black"/>
<path d="M93.3594 143.116H94.6794V123.836H93.3594V143.116Z" fill="black"/>
<text fill="black" xml:space="preserve" style="white-space: pre" font-family="Trebuchet MS" font-size="14.6639" letter-spacing="0em"><tspan x="89.7728" y="120.078">O</tspan></text>
<text fill="black" xml:space="preserve" style="white-space: pre" font-family="Trebuchet MS" font-size="14.6639" letter-spacing="0em"><tspan x="89.7728" y="155.357">CH</tspan></text>
<text fill="black" xml:space="preserve" style="white-space: pre" font-family="Trebuchet MS" font-size="9.76794" letter-spacing="0em"><tspan x="107.946" y="159.165">3</tspan></text>
<text fill="black" xml:space="preserve" style="white-space: pre" font-family="Trebuchet MS" font-size="14.6666" letter-spacing="0em"><tspan x="89.7728" y="13.7831">CH</tspan></text>
<text fill="black" xml:space="preserve" style="white-space: pre" font-family="Trebuchet MS" font-size="9.76794" letter-spacing="0em"><tspan x="107.959" y="17.5926">3</tspan></text>
<path d="M60.7729 216.782H62.0929V197.343H60.7729V216.782Z" fill="black"/>
<path d="M60.7729 252.262H62.0929V232.996H60.7729V252.262Z" fill="black"/>
<text fill="black" xml:space="preserve" style="white-space: pre" font-family="Trebuchet MS" font-size="14.6639" letter-spacing="0em"><tspan x="57.1997" y="229.223">C</tspan></text>
<text fill="black" xml:space="preserve" style="white-space: pre" font-family="Trebuchet MS" font-size="14.6639" letter-spacing="0em"><tspan x="56.5464" y="193.77">H</tspan></text>
<text fill="black" xml:space="preserve" style="white-space: pre" font-family="Trebuchet MS" font-size="14.6639" letter-spacing="0em"><tspan x="56.5464" y="265.037">H</tspan></text>
<path d="M93.3594 216.782H94.6794V197.343H93.3594V216.782Z" fill="black"/>
<path d="M93.3594 252.262H94.6794V232.996H93.3594V252.262Z" fill="black"/>
<text fill="black" xml:space="preserve" style="white-space: pre" font-family="Trebuchet MS" font-size="14.6639" letter-spacing="0em"><tspan x="89.7728" y="229.223">C</tspan></text>
<path d="M102.053 259.356H121.333V258.049H102.053V259.356Z" fill="black"/>
<path d="M102.053 263.196H121.333V261.876H102.053V263.196Z" fill="black"/>
<text fill="black" xml:space="preserve" style="white-space: pre" font-family="Trebuchet MS" font-size="14.6639" letter-spacing="0em"><tspan x="124.506" y="265.023">O</tspan></text>
<text fill="black" xml:space="preserve" style="white-space: pre" font-family="Trebuchet MS" font-size="14.6639" letter-spacing="0em"><tspan x="89.7728" y="265.023">C</tspan></text>
<path d="M93.3594 287.622H94.6794V268.182H93.3594V287.622Z" fill="black"/>
<path d="M93.3594 323.102H94.6794V303.822H93.3594V323.102Z" fill="black"/>
<text fill="black" xml:space="preserve" style="white-space: pre" font-family="Trebuchet MS" font-size="14.6639" letter-spacing="0em"><tspan x="89.7728" y="300.063">O</tspan></text>
<text fill="black" xml:space="preserve" style="white-space: pre" font-family="Trebuchet MS" font-size="14.6639" letter-spacing="0em"><tspan x="89.7728" y="335.356">CH</tspan></text>
<text fill="black" xml:space="preserve" style="white-space: pre" font-family="Trebuchet MS" font-size="9.76794" letter-spacing="0em"><tspan x="107.946" y="339.151">3</tspan></text>
<text fill="black" xml:space="preserve" style="white-space: pre" font-family="Trebuchet MS" font-size="14.6666" letter-spacing="0em"><tspan x="89.7728" y="193.769">H</tspan></text>
<path d="M60.7729 396.768H62.0929V377.328H60.7729V396.768Z" fill="black"/>
<path d="M60.7729 432.248H62.0929V412.968H60.7729V432.248Z" fill="black"/>
<text fill="black" xml:space="preserve" style="white-space: pre" font-family="Trebuchet MS" font-size="14.6639" letter-spacing="0em"><tspan x="57.1997" y="409.209">C</tspan></text>
<text fill="black" xml:space="preserve" style="white-space: pre" font-family="Trebuchet MS" font-size="14.6639" letter-spacing="0em"><tspan x="56.5464" y="373.756">H</tspan></text>
<text fill="black" xml:space="preserve" style="white-space: pre" font-family="Trebuchet MS" font-size="14.6639" letter-spacing="0em"><tspan x="56.5464" y="445.022">H</tspan></text>
<path d="M67.5863 405.515H86.8795V404.195H67.5863V405.515Z" fill="black"/>
<path d="M93.3594 396.768H94.6794V377.328H93.3594V396.768Z" fill="black"/>
<path d="M93.3594 432.248H94.6794V412.968H93.3594V432.248Z" fill="black"/>
<text fill="black" xml:space="preserve" style="white-space: pre" font-family="Trebuchet MS" font-size="14.6639" letter-spacing="0em"><tspan x="89.7728" y="409.209">C</tspan></text>
<path d="M102.053 439.341H121.333V438.021H102.053V439.341Z" fill="black"/>
<path d="M102.053 443.194H121.333V441.861H102.053V443.194Z" fill="black"/>
<text fill="black" xml:space="preserve" style="white-space: pre" font-family="Trebuchet MS" font-size="14.6639" letter-spacing="0em"><tspan x="124.506" y="445.009">O</tspan></text>
<text fill="black" xml:space="preserve" style="white-space: pre" font-family="Trebuchet MS" font-size="14.6639" letter-spacing="0em"><tspan x="89.7728" y="445.009">C</tspan></text>
<path d="M93.3594 467.608H94.6794V448.168H93.3594V467.608Z" fill="black"/>
<path d="M93.3594 503.087H94.6794V483.808H93.3594V503.087Z" fill="black"/>
<text fill="black" xml:space="preserve" style="white-space: pre" font-family="Trebuchet MS" font-size="14.6639" letter-spacing="0em"><tspan x="89.7728" y="480.048">O</tspan></text>
<text fill="black" xml:space="preserve" style="white-space: pre" font-family="Trebuchet MS" font-size="14.6639" letter-spacing="0em"><tspan x="89.7728" y="515.328">CH</tspan></text>
<text fill="black" xml:space="preserve" style="white-space: pre" font-family="Trebuchet MS" font-size="9.76794" letter-spacing="0em"><tspan x="107.946" y="519.136">3</tspan></text>
<text fill="black" xml:space="preserve" style="white-space: pre" font-family="Trebuchet MS" font-size="14.6666" letter-spacing="0em"><tspan x="89.7728" y="373.754">H</tspan></text>
<path d="M60.7729 576.754H62.0929V557.314H60.7729V576.754Z" fill="black"/>
<path d="M60.7729 612.233H62.0929V592.954H60.7729V612.233Z" fill="black"/>
<text fill="black" xml:space="preserve" style="white-space: pre" font-family="Trebuchet MS" font-size="14.6639" letter-spacing="0em"><tspan x="57.1997" y="589.194">C</tspan></text>
<text fill="black" xml:space="preserve" style="white-space: pre" font-family="Trebuchet MS" font-size="14.6639" letter-spacing="0em"><tspan x="56.5464" y="553.728">H</tspan></text>
<text fill="black" xml:space="preserve" style="white-space: pre" font-family="Trebuchet MS" font-size="14.6639" letter-spacing="0em"><tspan x="56.5464" y="625.002">H</tspan></text>
<path d="M67.5863 585.5H86.8795V584.18H67.5863V585.5Z" fill="black"/>
<text fill="black" xml:space="preserve" style="white-space: pre" font-family="Trebuchet MS" font-size="14.6639" letter-spacing="0em"><tspan x="21.1732" y="589.194">H</tspan></text>
<path d="M34.2266 585.5H53.5064V584.18H34.2266V585.5Z" fill="black"/>
<path d="M93.3594 576.754H94.6794V557.314H93.3594V576.754Z" fill="black"/>
<path d="M93.3594 612.233H94.6794V592.954H93.3594V612.233Z" fill="black"/>
<text fill="black" xml:space="preserve" style="white-space: pre" font-family="Trebuchet MS" font-size="14.6639" letter-spacing="0em"><tspan x="89.7728" y="589.194">C</tspan></text>
<path d="M100.946 585.5H120.226V584.18H100.946V585.5Z" fill="black"/>
<text fill="black" xml:space="preserve" style="white-space: pre" font-family="Trebuchet MS" font-size="14.6639" letter-spacing="0em"><tspan x="123.146" y="589.194">H</tspan></text>
<text fill="black" xml:space="preserve" style="white-space: pre" font-family="Trebuchet MS" font-size="14.6639" letter-spacing="0em"><tspan x="21.1732" y="408.902">H</tspan></text>
<path d="M34.2266 405.208H53.5064V403.901H34.2266V405.208Z" fill="black"/>
<path d="M100.946 405.208H120.226V403.901H100.946V405.208Z" fill="black"/>
<text fill="black" xml:space="preserve" style="white-space: pre" font-family="Trebuchet MS" font-size="14.6639" letter-spacing="0em"><tspan x="123.146" y="408.902">H</tspan></text>
<path d="M102.053 619.327H121.333V618.007H102.053V619.327Z" fill="black"/>
<path d="M102.053 623.171H121.333V621.853H102.053V623.171Z" fill="black"/>
<text fill="black" xml:space="preserve" style="white-space: pre" font-family="Trebuchet MS" font-size="14.6639" letter-spacing="0em"><tspan x="124.506" y="624.997">O</tspan></text>
<text fill="black" xml:space="preserve" style="white-space: pre" font-family="Trebuchet MS" font-size="14.6639" letter-spacing="0em"><tspan x="89.7728" y="624.997">C</tspan></text>
<path d="M93.3594 647.592H94.6794V628.144H93.3594V647.592Z" fill="black"/>
<path d="M93.3594 683.072H94.6794V663.796H93.3594V683.072Z" fill="black"/>
<text fill="black" xml:space="preserve" style="white-space: pre" font-family="Trebuchet MS" font-size="14.6639" letter-spacing="0em"><tspan x="89.7728" y="660.029">O</tspan></text>
<text fill="black" xml:space="preserve" style="white-space: pre" font-family="Trebuchet MS" font-size="14.6639" letter-spacing="0em"><tspan x="89.7728" y="695.31">CH</tspan></text>
<text fill="black" xml:space="preserve" style="white-space: pre" font-family="Trebuchet MS" font-size="9.76794" letter-spacing="0em"><tspan x="107.946" y="699.124">3</tspan></text>
<text fill="black" xml:space="preserve" style="white-space: pre" font-family="Trebuchet MS" font-size="14.6666" letter-spacing="0em"><tspan x="89.7728" y="553.74">CH</tspan></text>
<text fill="black" xml:space="preserve" style="white-space: pre" font-family="Trebuchet MS" font-size="9.76794" letter-spacing="0em"><tspan x="107.959" y="557.549">3</tspan></text>
<path d="M67.5863 223.609H86.8795V222.302H67.5863V223.609Z" fill="black"/>
<path d="M67.5863 227.449H86.8795V226.143H67.5863V227.449Z" fill="black"/>
<path d="M67.5863 43.637H86.8795V42.3036H67.5863V43.637Z" fill="black"/>
<path d="M67.5863 47.4636H86.8795V46.1436H67.5863V47.4636Z" fill="black"/>
<text fill="black" xml:space="preserve" style="white-space: pre" font-family="Trebuchet MS" font-size="14.6666" letter-spacing="0em"><tspan x="0" y="553.753">D</tspan></text>
<text fill="black" xml:space="preserve" style="white-space: pre" font-family="Trebuchet MS" font-size="14.6666" letter-spacing="0em"><tspan x="0" y="373.754">C</tspan></text>
<text fill="black" xml:space="preserve" style="white-space: pre" font-family="Trebuchet MS" font-size="14.6666" letter-spacing="0em"><tspan x="0" y="193.662">B</tspan></text>
<text fill="black" xml:space="preserve" style="white-space: pre" font-family="Trebuchet MS" font-size="14.6666" letter-spacing="0em"><tspan x="0" y="13.7565">A</tspan></text>
</svg>
