<svg width="153" height="365" viewBox="0 0 153 365" fill="none" xmlns="http://www.w3.org/2000/svg">
<path fill-rule="evenodd" clip-rule="evenodd" d="M60.9254 333.879L61.5921 335.026L85.1919 321.386L84.5119 320.239L60.9254 333.879Z" fill="black"/>
<path fill-rule="evenodd" clip-rule="evenodd" d="M116.165 337.479L120.165 330.559L118.925 330.052L115.098 336.652L116.165 337.479Z" fill="black"/>
<path fill-rule="evenodd" clip-rule="evenodd" d="M113.178 335.172L116.672 329.146L115.418 328.639L112.125 334.332L113.178 335.172Z" fill="black"/>
<path fill-rule="evenodd" clip-rule="evenodd" d="M110.205 332.839L113.165 327.732L111.912 327.226L109.152 331.999L110.205 332.839Z" fill="black"/>
<path fill-rule="evenodd" clip-rule="evenodd" d="M107.232 330.506L109.658 326.319L108.405 325.812L106.178 329.692L107.232 330.506Z" fill="black"/>
<path fill-rule="evenodd" clip-rule="evenodd" d="M104.258 328.186L106.178 324.892L104.925 324.386L103.205 327.372L104.258 328.186Z" fill="black"/>
<path fill-rule="evenodd" clip-rule="evenodd" d="M101.298 325.879L102.672 323.479L101.432 322.986L100.219 325.039L101.298 325.879Z" fill="black"/>
<path fill-rule="evenodd" clip-rule="evenodd" d="M98.3252 323.559L99.1652 322.066L97.9252 321.559L97.2452 322.719L98.3252 323.559Z" fill="black"/>
<path fill-rule="evenodd" clip-rule="evenodd" d="M93.6852 349.599L101.405 347.505L92.2719 326.292L90.9919 326.652L93.6852 349.599Z" fill="black"/>
<text fill="black" xml:space="preserve" style="white-space: pre" font-family="Trebuchet MS" font-size="14.6666" letter-spacing="0em"><tspan x="86.1919" y="322.598">N</tspan></text>
<text fill="black" xml:space="preserve" style="white-space: pre" font-family="Trebuchet MS" font-size="14.6666" letter-spacing="0em"><tspan x="122.565" y="342.611">H</tspan></text>
<text fill="black" xml:space="preserve" style="white-space: pre" font-family="Trebuchet MS" font-size="14.6666" letter-spacing="0em"><tspan x="50.2321" y="342.611">H</tspan></text>
<text fill="black" xml:space="preserve" style="white-space: pre" font-family="Trebuchet MS" font-size="14.6666" letter-spacing="0em"><tspan x="94.5652" y="361.238">H</tspan></text>
<path fill-rule="evenodd" clip-rule="evenodd" d="M60.9254 66.2273L61.5921 67.374L85.1919 53.7341L84.5119 52.5874L60.9254 66.2273Z" fill="black"/>
<path fill-rule="evenodd" clip-rule="evenodd" d="M116.165 69.8273L120.165 62.9074L118.925 62.4008L115.098 69.0007L116.165 69.8273Z" fill="black"/>
<path fill-rule="evenodd" clip-rule="evenodd" d="M113.178 67.5206L116.672 61.494L115.418 60.9873L112.125 66.6806L113.178 67.5206Z" fill="black"/>
<path fill-rule="evenodd" clip-rule="evenodd" d="M110.205 65.1873L113.165 60.0807L111.912 59.574L109.152 64.3473L110.205 65.1873Z" fill="black"/>
<path fill-rule="evenodd" clip-rule="evenodd" d="M107.232 62.8674L109.658 58.6674L108.405 58.1607L106.178 62.0541L107.232 62.8674Z" fill="black"/>
<path fill-rule="evenodd" clip-rule="evenodd" d="M104.258 60.5341L106.178 57.2407L104.925 56.7341L103.205 59.7207L104.258 60.5341Z" fill="black"/>
<path fill-rule="evenodd" clip-rule="evenodd" d="M101.298 58.2274L102.672 55.8273L101.432 55.3206L100.219 57.3874L101.298 58.2274Z" fill="black"/>
<path fill-rule="evenodd" clip-rule="evenodd" d="M98.3252 55.9073L99.1652 54.414L97.9252 53.9074L97.2452 55.0674L98.3252 55.9073Z" fill="black"/>
<path fill-rule="evenodd" clip-rule="evenodd" d="M93.6852 81.9472L101.405 79.8539L92.2719 58.6407L90.9919 59.0007L93.6852 81.9472Z" fill="black"/>
<text fill="black" xml:space="preserve" style="white-space: pre" font-family="Trebuchet MS" font-size="14.6666" letter-spacing="0em"><tspan x="86.1919" y="54.9466">N</tspan></text>
<text fill="black" xml:space="preserve" style="white-space: pre" font-family="Trebuchet MS" font-size="14.6666" letter-spacing="0em"><tspan x="122.565" y="74.9599">H</tspan></text>
<text fill="black" xml:space="preserve" style="white-space: pre" font-family="Trebuchet MS" font-size="14.6666" letter-spacing="0em"><tspan x="50.2321" y="74.9599">H</tspan></text>
<text fill="black" xml:space="preserve" style="white-space: pre" font-family="Trebuchet MS" font-size="14.6666" letter-spacing="0em"><tspan x="94.5652" y="93.5864">H</tspan></text>
<path fill-rule="evenodd" clip-rule="evenodd" d="M72.7653 158.573L72.1253 157.453L87.0052 148.827L87.6452 150.027L72.7653 158.573Z" fill="black"/>
<path fill-rule="evenodd" clip-rule="evenodd" d="M70.8586 155.227L70.2186 154.093L85.0985 145.547L85.7385 146.667L70.8586 155.227Z" fill="black"/>
<path fill-rule="evenodd" clip-rule="evenodd" d="M113.005 158.573L113.645 157.453L98.7651 148.827L98.1251 150.027L113.005 158.573Z" fill="black"/>
<path fill-rule="evenodd" clip-rule="evenodd" d="M114.938 155.227L115.578 154.093L100.698 145.547L100.058 146.667L114.938 155.227Z" fill="black"/>
<text fill="black" xml:space="preserve" style="white-space: pre" font-family="Trebuchet MS" font-size="14.6666" letter-spacing="0em"><tspan x="89.0585" y="148.866">S</tspan></text>
<text fill="black" xml:space="preserve" style="white-space: pre" font-family="Trebuchet MS" font-size="14.6666" letter-spacing="0em"><tspan x="59.9654" y="163.613">O</tspan></text>
<text fill="black" xml:space="preserve" style="white-space: pre" font-family="Trebuchet MS" font-size="14.6666" letter-spacing="0em"><tspan x="115.565" y="163.613">O</tspan></text>
<text fill="black" xml:space="preserve" style="white-space: pre" font-family="Trebuchet MS" font-size="14.6666" letter-spacing="0em"><tspan x="58.3788" y="238.745">O</tspan></text>
<text fill="black" xml:space="preserve" style="white-space: pre" font-family="Trebuchet MS" font-size="14.6666" letter-spacing="0em"><tspan x="90.1252" y="238.745">C</tspan></text>
<path fill-rule="evenodd" clip-rule="evenodd" d="M91.3652 25.5476H90.0852L90.0452 42.7607L91.3919 42.7074L91.3652 25.5476Z" fill="black"/>
<text fill="black" xml:space="preserve" style="white-space: pre" font-family="Trebuchet MS" font-size="14.6666" letter-spacing="0em"><tspan x="85.7252" y="21.9202">H</tspan></text>
<text fill="black" xml:space="preserve" style="white-space: pre" font-family="Trebuchet MS" font-size="15.9999" letter-spacing="0em"><tspan x="143.432" y="15.4249">+</tspan></text>
<path d="M48.9388 10.4677H44.5122V98.8005H48.9388" stroke="black" stroke-width="0.999994" stroke-miterlimit="10.433"/>
<path d="M133.538 98.8005H137.952V10.4677H133.538" stroke="black" stroke-width="0.999994" stroke-miterlimit="10.433"/>
<path d="M70.6053 236.866H87.8052" stroke="black" stroke-width="1.33332" stroke-miterlimit="10.433"/>
<path d="M70.6053 233.026H87.8052" stroke="black" stroke-width="1.33332" stroke-miterlimit="10.433"/>
<text fill="black" xml:space="preserve" style="white-space: pre" font-family="Trebuchet MS" font-size="14.6666" letter-spacing="0em"><tspan x="120.978" y="238.759">O</tspan></text>
<path d="M101.752 236.866H118.952" stroke="black" stroke-width="1.33332" stroke-miterlimit="10.433"/>
<path d="M101.752 233.026H118.952" stroke="black" stroke-width="1.33332" stroke-miterlimit="10.433"/>
<text fill="black" xml:space="preserve" style="white-space: pre" font-family="Trebuchet MS" font-size="14.6666" letter-spacing="0em"><tspan x="0.859131" y="336.718">D</tspan></text>
<text fill="black" xml:space="preserve" style="white-space: pre" font-family="Trebuchet MS" font-size="14.6666" letter-spacing="0em"><tspan x="0.859131" y="238.759">C</tspan></text>
<text fill="black" xml:space="preserve" style="white-space: pre" font-family="Trebuchet MS" font-size="14.6666" letter-spacing="0em"><tspan x="0.859131" y="156.013">B</tspan></text>
<text fill="black" xml:space="preserve" style="white-space: pre" font-family="Trebuchet MS" font-size="14.6666" letter-spacing="0em"><tspan x="0.859131" y="55.8933">A</tspan></text>
</svg>
