<svg width="235" height="199" viewBox="0 0 235 199" fill="none" xmlns="http://www.w3.org/2000/svg">
<path fill-rule="evenodd" clip-rule="evenodd" d="M220.317 177.125L12.1449 13.8062L107.251 177.619L220.317 177.125Z" stroke="black" stroke-width="1.33332" stroke-miterlimit="10.433" stroke-linejoin="round"/>
<path d="M7.41752 14.713L6.69421 12.5001H2.79124L2.01781 14.713H0.413655L4.6747 4.07832H5.05425L9.00735 14.713H7.41752ZM4.79644 6.8283L3.1708 11.4474H6.28601L4.79644 6.8283Z" fill="black"/>
<path d="M29.2462 105.979L28.7592 105.642V100.565H33.9799V101.782H30.1199V104.331C30.4732 104.069 30.9219 103.938 31.4662 103.938C32.4402 103.938 33.1826 104.229 33.6934 104.811C34.209 105.394 34.4668 106.222 34.4668 107.296C34.4668 109.927 33.2947 111.242 30.9506 111.242C29.9719 111.242 29.1602 110.97 28.5157 110.426L29.0671 109.23C29.7164 109.76 30.3419 110.025 30.9434 110.025C32.2898 110.025 32.9629 109.185 32.9629 107.504C32.9629 105.938 32.2993 105.155 30.9721 105.155C30.3323 105.155 29.757 105.43 29.2462 105.979Z" fill="black"/>
<path d="M46.1379 104.052L45.4647 105.012C45.3262 104.873 45.0804 104.742 44.7271 104.618C44.3785 104.494 44.0348 104.432 43.6958 104.432C42.9558 104.432 42.3686 104.692 41.9341 105.212C41.4996 105.728 41.2824 106.437 41.2824 107.339C41.2824 108.237 41.5044 108.922 41.9484 109.395C42.3924 109.862 43.0083 110.096 43.7961 110.096C44.4072 110.096 45.0231 109.86 45.6437 109.387L46.1808 110.533C45.4504 111.006 44.5456 111.242 43.4666 111.242C42.4211 111.242 41.5569 110.891 40.8742 110.189C40.1915 109.488 39.8501 108.538 39.8501 107.339C39.8501 106.117 40.2034 105.136 40.91 104.396C41.6214 103.656 42.593 103.286 43.8247 103.286C44.221 103.286 44.6507 103.369 45.1138 103.537C45.5769 103.704 45.9182 103.876 46.1379 104.052ZM56.4933 111.099V106.244C56.4933 105.036 55.9705 104.432 54.9249 104.432C54.5955 104.432 54.2875 104.534 54.0011 104.74C53.7146 104.94 53.5189 105.169 53.4139 105.427V111.099H52.0532V105.649C52.0532 105.272 51.91 104.976 51.6235 104.761C51.3418 104.542 50.967 104.432 50.4992 104.432C50.227 104.432 49.9358 104.537 49.6255 104.747C49.3199 104.957 49.1027 105.188 48.9738 105.441V111.099H47.6131V103.429H48.5011L48.9523 104.317C49.4775 103.63 50.1339 103.286 50.9217 103.286C52.0198 103.286 52.7884 103.627 53.2277 104.31C53.3804 104.019 53.6645 103.775 54.0799 103.58C54.4952 103.384 54.9225 103.286 55.3618 103.286C56.1543 103.286 56.7678 103.522 57.2022 103.995C57.6367 104.463 57.8539 105.122 57.8539 105.971V111.099H56.4933Z" fill="black"/>
<path d="M131.636 98.3924H130.046C130.399 97.2704 130.994 95.788 131.829 93.9452C132.665 92.0975 133.429 90.522 134.121 89.2186H129.172V87.858H135.976V88.4165L135.052 90.2355C134.742 90.8514 134.417 91.527 134.078 92.2622C133.739 92.9975 133.407 93.747 133.082 94.5109C132.758 95.2748 132.474 95.9838 132.23 96.6378C131.987 97.2919 131.789 97.8768 131.636 98.3924Z" fill="black"/>
<path d="M147.111 91.3456L146.437 92.3052C146.299 92.1667 146.053 92.0354 145.7 91.9113C145.351 91.7872 145.008 91.7251 144.669 91.7251C143.929 91.7251 143.341 91.9853 142.907 92.5057C142.472 93.0213 142.255 93.7303 142.255 94.6327C142.255 95.5302 142.477 96.2153 142.921 96.688C143.365 97.1559 143.981 97.3898 144.769 97.3898C145.38 97.3898 145.996 97.1535 146.616 96.6808L147.154 97.8266C146.423 98.2993 145.518 98.5356 144.439 98.5356C143.394 98.5356 142.53 98.1847 141.847 97.4829C141.164 96.7811 140.823 95.831 140.823 94.6327C140.823 93.4104 141.176 92.4293 141.883 91.6893C142.594 90.9493 143.566 90.5793 144.797 90.5793C145.194 90.5793 145.623 90.6628 146.087 90.8299C146.55 90.997 146.891 91.1689 147.111 91.3456ZM157.466 98.3924V93.537C157.466 92.3291 156.943 91.7251 155.898 91.7251C155.568 91.7251 155.26 91.8278 154.974 92.0331C154.687 92.2336 154.492 92.4627 154.387 92.7206V98.3924H153.026V92.9426C153.026 92.5654 152.883 92.2694 152.596 92.0545C152.315 91.8349 151.94 91.7251 151.472 91.7251C151.2 91.7251 150.909 91.8302 150.598 92.0402C150.293 92.2503 150.075 92.4818 149.947 92.7349V98.3924H148.586V90.7225H149.474L149.925 91.6105C150.45 90.923 151.107 90.5793 151.894 90.5793C152.993 90.5793 153.761 90.9207 154.2 91.6034C154.353 91.3121 154.637 91.0687 155.053 90.8729C155.468 90.6772 155.895 90.5793 156.335 90.5793C157.127 90.5793 157.741 90.8156 158.175 91.2883C158.609 91.7562 158.827 92.415 158.827 93.2648V98.3924H157.466Z" fill="black"/>
<path d="M101.368 176.58L100.888 177.805C100.43 177.471 99.7087 177.304 98.7252 177.304C97.8038 177.304 97.0638 177.7 96.5052 178.493C95.9514 179.285 95.6745 180.307 95.6745 181.558C95.6745 182.751 95.9585 183.72 96.5267 184.465C97.0996 185.205 97.8372 185.575 98.7396 185.575C99.7231 185.575 100.48 185.227 101.01 184.53L101.797 185.625C100.967 186.451 99.8973 186.864 98.5892 186.864C97.2189 186.864 96.14 186.37 95.3522 185.382C94.5644 184.394 94.1706 183.09 94.1706 181.472C94.1706 179.906 94.5907 178.605 95.431 177.569C96.2713 176.533 97.3574 176.015 98.6894 176.015C99.8305 176.015 100.723 176.203 101.368 176.58Z" fill="black"/>
<path d="M152.018 194.447L152.705 193.344C153.173 193.86 153.765 194.118 154.481 194.118C155.809 194.118 156.472 193.468 156.472 192.17C156.472 191.578 156.279 191.098 155.892 190.73C155.506 190.358 154.992 190.172 154.353 190.172H154.238V189.012H154.302C155.515 189.012 156.121 188.477 156.121 187.407C156.121 186.29 155.551 185.732 154.41 185.732C153.789 185.732 153.295 185.939 152.927 186.355L152.29 185.381C152.734 184.803 153.476 184.514 154.517 184.514C155.434 184.514 156.181 184.76 156.759 185.252C157.336 185.739 157.625 186.364 157.625 187.128C157.625 187.711 157.463 188.226 157.138 188.675C156.818 189.124 156.441 189.425 156.007 189.577C156.608 189.773 157.086 190.107 157.439 190.58C157.797 191.048 157.976 191.616 157.976 192.284C157.976 193.258 157.668 194.01 157.052 194.54C156.436 195.07 155.572 195.335 154.46 195.335C153.992 195.335 153.534 195.249 153.085 195.077C152.636 194.901 152.28 194.691 152.018 194.447Z" fill="black"/>
<path d="M169.79 188.145L169.117 189.105C168.979 188.966 168.733 188.835 168.38 188.711C168.031 188.587 167.687 188.525 167.348 188.525C166.608 188.525 166.021 188.785 165.587 189.305C165.152 189.821 164.935 190.53 164.935 191.432C164.935 192.33 165.157 193.015 165.601 193.487C166.045 193.955 166.661 194.189 167.449 194.189C168.06 194.189 168.676 193.953 169.296 193.48L169.833 194.626C169.103 195.099 168.198 195.335 167.119 195.335C166.074 195.335 165.209 194.984 164.527 194.282C163.844 193.581 163.503 192.63 163.503 191.432C163.503 190.21 163.856 189.229 164.562 188.489C165.274 187.749 166.245 187.379 167.477 187.379C167.873 187.379 168.303 187.462 168.766 187.629C169.229 187.796 169.571 187.968 169.79 188.145ZM180.146 195.192V190.336C180.146 189.129 179.623 188.525 178.577 188.525C178.248 188.525 177.94 188.627 177.654 188.832C177.367 189.033 177.171 189.262 177.066 189.52V195.192H175.706V189.742C175.706 189.365 175.562 189.069 175.276 188.854C174.994 188.634 174.62 188.525 174.152 188.525C173.879 188.525 173.588 188.63 173.278 188.84C172.972 189.05 172.755 189.281 172.626 189.534V195.192H171.266V187.522H172.154L172.605 188.41C173.13 187.722 173.786 187.379 174.574 187.379C175.672 187.379 176.441 187.72 176.88 188.403C177.033 188.112 177.317 187.868 177.732 187.672C178.148 187.477 178.575 187.379 179.014 187.379C179.807 187.379 180.42 187.615 180.855 188.088C181.289 188.556 181.506 189.214 181.506 190.064V195.192H180.146Z" fill="black"/>
<path d="M229.145 186.685H226.151V176.194C227.426 176.132 228.345 176.101 228.908 176.101C229.944 176.101 230.746 176.325 231.314 176.774C231.883 177.218 232.167 177.855 232.167 178.686C232.167 179.173 231.985 179.617 231.622 180.018C231.26 180.419 230.859 180.67 230.419 180.77C231.25 180.97 231.854 181.302 232.231 181.765C232.613 182.228 232.804 182.859 232.804 183.656C232.804 184.577 232.465 185.313 231.787 185.862C231.114 186.411 230.233 186.685 229.145 186.685ZM227.583 177.34V180.354C227.884 180.383 228.257 180.397 228.701 180.397C230.056 180.397 230.734 179.846 230.734 178.743C230.734 177.774 230.111 177.289 228.865 177.289C228.388 177.289 227.961 177.306 227.583 177.34ZM227.583 181.465V185.468C228.075 185.515 228.452 185.539 228.715 185.539C229.612 185.539 230.267 185.372 230.677 185.038C231.092 184.699 231.3 184.162 231.3 183.427C231.3 182.744 231.102 182.24 230.706 181.916C230.314 181.591 229.658 181.429 228.736 181.429L227.583 181.465Z" fill="black"/>
</svg>
