<svg width="263" height="286" viewBox="0 0 263 286" fill="none" xmlns="http://www.w3.org/2000/svg">
<path d="M148.466 24.1573V41.0906" stroke="black" stroke-width="1.99999" stroke-miterlimit="10.433"/>
<path d="M143.466 13.664V51.5837" stroke="black" stroke-width="1.33332" stroke-miterlimit="10.433"/>
<path d="M143.466 32.624H101.799" stroke="black" stroke-width="1.33332" stroke-miterlimit="10.433" stroke-dasharray="6.67 5.33"/>
<path d="M101.252 24.1573V41.0906" stroke="black" stroke-width="1.99999" stroke-miterlimit="10.433"/>
<path d="M96.3994 13.664V51.5837" stroke="black" stroke-width="1.33332" stroke-miterlimit="10.433"/>
<path d="M96.3994 32.6238H77.4929L1 32.5037V160.503L47.5597 160.103" stroke="black" stroke-width="1.33332" stroke-miterlimit="10.433"/>
<path d="M148.466 32.6238H167.359L248.838 32.5037V160.503H204.919" stroke="black" stroke-width="1.33332" stroke-miterlimit="10.433"/>
<path d="M165.732 121.33H79.1327H47.5596V203.863L79.1327 203.929" stroke="black" stroke-width="1.33332" stroke-miterlimit="10.433"/>
<path d="M98.6929 127.343H146.159V115.317H98.6929V127.343Z" fill="white"/>
<path fill-rule="evenodd" clip-rule="evenodd" d="M98.6929 127.343H146.159V115.317H98.6929V127.343Z" stroke="black" stroke-width="1.33332" stroke-miterlimit="10.433"/>
<path d="M190.999 121.33H204.679V203.863L165.732 203.929H79.1328" stroke="black" stroke-width="1.33332" stroke-miterlimit="10.433"/>
<path d="M98.6929 209.943H146.159V197.903H98.6929V209.943Z" fill="white"/>
<path fill-rule="evenodd" clip-rule="evenodd" d="M98.6929 209.943H146.159V197.903H98.6929V209.943Z" stroke="black" stroke-width="1.33332" stroke-miterlimit="10.433"/>
<path d="M190.998 121.33L190.985 121.983L190.932 122.623L190.852 123.25L190.745 123.877L190.598 124.49L190.425 125.09L190.225 125.677L189.998 126.25L189.745 126.81L189.478 127.357L189.172 127.877L188.838 128.397L188.492 128.89L188.105 129.37L187.718 129.823L187.292 130.263L186.852 130.677L186.398 131.077L185.918 131.45L185.425 131.81L184.918 132.143L184.385 132.437L183.838 132.717L183.278 132.97L182.705 133.197L182.119 133.397L181.518 133.57L180.905 133.717L180.279 133.823L179.652 133.903L179.012 133.957L178.359 133.97C171.385 133.97 165.732 128.303 165.732 121.33C165.732 114.357 171.385 108.69 178.359 108.69C185.345 108.69 190.998 114.357 190.998 121.33Z" fill="white"/>
<path fill-rule="evenodd" clip-rule="evenodd" d="M190.998 121.33L190.985 121.983L190.932 122.623L190.852 123.25L190.745 123.877L190.598 124.49L190.425 125.09L190.225 125.677L189.998 126.25L189.745 126.81L189.478 127.357L189.172 127.877L188.838 128.397L188.492 128.89L188.105 129.37L187.718 129.823L187.292 130.263L186.852 130.677L186.398 131.077L185.918 131.45L185.425 131.81L184.918 132.143L184.385 132.437L183.838 132.717L183.278 132.97L182.705 133.197L182.119 133.397L181.518 133.57L180.905 133.717L180.279 133.823L179.652 133.903L179.012 133.957L178.359 133.97C171.385 133.97 165.732 128.303 165.732 121.33C165.732 114.357 171.385 108.69 178.359 108.69C185.345 108.69 190.998 114.357 190.998 121.33Z" stroke="black" stroke-width="1.33332" stroke-miterlimit="10.433"/>
<path d="M261.478 93.9434L261.465 94.5968L261.412 95.2368L261.332 95.8634L261.225 96.4901L261.078 97.1034L260.905 97.7034L260.705 98.2901L260.478 98.8634L260.225 99.4234L259.958 99.9701L259.652 100.49L259.318 101.01L258.972 101.503L258.585 101.983L258.198 102.437L257.772 102.877L257.332 103.29L256.878 103.69L256.398 104.063L255.905 104.423L255.398 104.743L254.865 105.05L254.318 105.33L253.758 105.583L253.185 105.81L252.598 106.01L251.998 106.183L251.385 106.317L250.758 106.437L250.132 106.517L249.492 106.557L248.839 106.57C241.865 106.57 236.212 100.917 236.212 93.9434C236.212 86.9568 241.865 81.3035 248.839 81.3035C255.825 81.3035 261.478 86.9568 261.478 93.9434Z" fill="white"/>
<path fill-rule="evenodd" clip-rule="evenodd" d="M261.478 93.9434L261.465 94.5968L261.412 95.2368L261.332 95.8634L261.225 96.4901L261.078 97.1034L260.905 97.7034L260.705 98.2901L260.478 98.8634L260.225 99.4234L259.958 99.9701L259.652 100.49L259.318 101.01L258.972 101.503L258.585 101.983L258.198 102.437L257.772 102.877L257.332 103.29L256.878 103.69L256.398 104.063L255.905 104.423L255.398 104.743L254.865 105.05L254.318 105.33L253.758 105.583L253.185 105.81L252.598 106.01L251.998 106.183L251.385 106.317L250.758 106.437L250.132 106.517L249.492 106.557L248.839 106.57C241.865 106.57 236.212 100.917 236.212 93.9434C236.212 86.9568 241.865 81.3035 248.839 81.3035C255.825 81.3035 261.478 86.9568 261.478 93.9434Z" stroke="black" stroke-width="1.33332" stroke-miterlimit="10.433"/>
<path d="M45.0928 160.103V160.223L45.1061 160.343L45.1194 160.463L45.1461 160.583L45.1728 160.703L45.1994 160.81L45.2394 160.93L45.2795 161.036L45.3328 161.143L45.3861 161.236L45.4395 161.343L45.5061 161.436L45.5728 161.53L45.6394 161.623L45.7061 161.703L45.7861 161.796L45.8795 161.876L45.9594 161.943L46.0528 162.023L46.1461 162.09L46.2394 162.143L46.3461 162.21L46.4394 162.263L46.5461 162.303L46.6661 162.343L46.7728 162.383L46.8794 162.423L46.9994 162.45L47.1194 162.463L47.2394 162.476L47.3594 162.49H47.4794C48.7994 162.49 49.8661 161.423 49.8661 160.103C49.8661 158.783 48.7994 157.717 47.4794 157.717C46.1594 157.717 45.0928 158.783 45.0928 160.103Z" fill="black"/>
<path fill-rule="evenodd" clip-rule="evenodd" d="M45.0928 160.103V160.223L45.1061 160.343L45.1194 160.463L45.1461 160.583L45.1728 160.703L45.1994 160.81L45.2394 160.93L45.2795 161.036L45.3328 161.143L45.3861 161.236L45.4395 161.343L45.5061 161.436L45.5728 161.53L45.6394 161.623L45.7061 161.703L45.7861 161.796L45.8795 161.876L45.9594 161.943L46.0528 162.023L46.1461 162.09L46.2394 162.143L46.3461 162.21L46.4394 162.263L46.5461 162.303L46.6661 162.343L46.7728 162.383L46.8794 162.423L46.9994 162.45L47.1194 162.463L47.2394 162.476L47.3594 162.49H47.4794C48.7994 162.49 49.8661 161.423 49.8661 160.103C49.8661 158.783 48.7994 157.717 47.4794 157.717C46.1594 157.717 45.0928 158.783 45.0928 160.103Z" stroke="black" stroke-width="1.33332" stroke-miterlimit="10.433"/>
<path d="M68.2261 203.943V272.342H176.865L176.879 203.943" stroke="black" stroke-width="1.33332" stroke-miterlimit="10.433"/>
<path d="M202.532 160.103V160.223L202.545 160.343L202.558 160.463L202.585 160.583L202.612 160.703L202.638 160.81L202.678 160.93L202.718 161.036L202.772 161.143L202.825 161.236L202.878 161.343L202.945 161.436L203.012 161.53L203.078 161.623L203.158 161.703L203.238 161.796L203.318 161.876L203.398 161.943L203.492 162.023L203.585 162.09L203.678 162.143L203.785 162.21L203.892 162.263L203.985 162.303L204.105 162.343L204.212 162.383L204.318 162.423L204.438 162.45L204.558 162.463L204.678 162.476L204.798 162.49H204.918C206.238 162.49 207.305 161.423 207.305 160.103C207.305 158.783 206.238 157.717 204.918 157.717C203.598 157.717 202.532 158.783 202.532 160.103Z" fill="black"/>
<path fill-rule="evenodd" clip-rule="evenodd" d="M202.532 160.103V160.223L202.545 160.343L202.558 160.463L202.585 160.583L202.612 160.703L202.638 160.81L202.678 160.93L202.718 161.036L202.772 161.143L202.825 161.236L202.878 161.343L202.945 161.436L203.012 161.53L203.078 161.623L203.158 161.703L203.238 161.796L203.318 161.876L203.398 161.943L203.492 162.023L203.585 162.09L203.678 162.143L203.785 162.21L203.892 162.263L203.985 162.303L204.105 162.343L204.212 162.383L204.318 162.423L204.438 162.45L204.558 162.463L204.678 162.476L204.798 162.49H204.918C206.238 162.49 207.305 161.423 207.305 160.103C207.305 158.783 206.238 157.717 204.918 157.717C203.598 157.717 202.532 158.783 202.532 160.103Z" stroke="black" stroke-width="1.33332" stroke-miterlimit="10.433"/>
<path d="M174.479 203.863L174.492 203.983V204.103L174.506 204.223L174.532 204.343L174.559 204.45L174.586 204.57L174.626 204.676L174.666 204.783L174.719 204.89L174.772 204.996L174.826 205.103L174.892 205.196L174.959 205.29L175.026 205.383L175.106 205.463L175.186 205.543L175.266 205.623L175.346 205.703L175.439 205.77L175.532 205.836L175.626 205.903L175.732 205.956L175.839 206.01L175.946 206.063L176.052 206.103L176.159 206.143L176.266 206.17L176.386 206.196L176.506 206.223L176.626 206.236L176.746 206.25H176.866C178.186 206.25 179.252 205.183 179.252 203.863C179.252 202.543 178.186 201.476 176.866 201.476C175.546 201.476 174.479 202.543 174.479 203.863Z" fill="black"/>
<path fill-rule="evenodd" clip-rule="evenodd" d="M174.479 203.863L174.492 203.983V204.103L174.506 204.223L174.532 204.343L174.559 204.45L174.586 204.57L174.626 204.676L174.666 204.783L174.719 204.89L174.772 204.996L174.826 205.103L174.892 205.196L174.959 205.29L175.026 205.383L175.106 205.463L175.186 205.543L175.266 205.623L175.346 205.703L175.439 205.77L175.532 205.836L175.626 205.903L175.732 205.956L175.839 206.01L175.946 206.063L176.052 206.103L176.159 206.143L176.266 206.17L176.386 206.196L176.506 206.223L176.626 206.236L176.746 206.25H176.866C178.186 206.25 179.252 205.183 179.252 203.863C179.252 202.543 178.186 201.476 176.866 201.476C175.546 201.476 174.479 202.543 174.479 203.863Z" stroke="black" stroke-width="1.33332" stroke-miterlimit="10.433"/>
<path d="M65.5996 203.463L65.613 203.583V203.703L65.6263 203.823L65.653 203.943L65.6796 204.063L65.7063 204.17L65.7463 204.276L65.7863 204.396L65.8396 204.503L65.8929 204.596L65.9463 204.703L66.0129 204.796L66.0796 204.89L66.1463 204.983L66.2263 205.063L66.3063 205.156L66.3863 205.236L66.4663 205.303L66.5596 205.383L66.6529 205.45L66.7463 205.503L66.8529 205.57L66.9596 205.61L67.0663 205.663L67.1729 205.703L67.2796 205.743L67.3863 205.783L67.5063 205.81L67.6262 205.823L67.7463 205.836L67.8663 205.85H67.9863C69.3063 205.85 70.3729 204.783 70.3729 203.463C70.3729 202.143 69.3063 201.076 67.9863 201.076C66.6663 201.076 65.5996 202.143 65.5996 203.463Z" fill="black"/>
<path fill-rule="evenodd" clip-rule="evenodd" d="M65.5996 203.463L65.613 203.583V203.703L65.6263 203.823L65.653 203.943L65.6796 204.063L65.7063 204.17L65.7463 204.276L65.7863 204.396L65.8396 204.503L65.8929 204.596L65.9463 204.703L66.0129 204.796L66.0796 204.89L66.1463 204.983L66.2263 205.063L66.3063 205.156L66.3863 205.236L66.4663 205.303L66.5596 205.383L66.6529 205.45L66.7463 205.503L66.8529 205.57L66.9596 205.61L67.0663 205.663L67.1729 205.703L67.2796 205.743L67.3863 205.783L67.5063 205.81L67.6262 205.823L67.7463 205.836L67.8663 205.85H67.9863C69.3063 205.85 70.3729 204.783 70.3729 203.463C70.3729 202.143 69.3063 201.076 67.9863 201.076C66.6663 201.076 65.5996 202.143 65.5996 203.463Z" stroke="black" stroke-width="1.33332" stroke-miterlimit="10.433"/>
<path d="M135.065 272.342L135.052 272.996L134.999 273.636L134.919 274.262L134.812 274.889L134.665 275.502L134.492 276.102L134.305 276.689L134.079 277.262L133.825 277.822L133.545 278.369L133.239 278.889L132.905 279.409L132.559 279.902L132.185 280.382L131.786 280.836L131.359 281.276L130.932 281.689L130.465 282.089L129.986 282.462L129.492 282.822L128.986 283.142L128.452 283.449L127.906 283.729L127.346 283.982L126.772 284.209L126.186 284.409L125.586 284.582L124.972 284.716L124.346 284.836L123.719 284.916L123.079 284.956L122.426 284.982C115.452 284.982 109.786 279.316 109.786 272.342C109.786 265.356 115.452 259.703 122.426 259.703C129.412 259.703 135.065 265.356 135.065 272.342Z" fill="white"/>
<path fill-rule="evenodd" clip-rule="evenodd" d="M135.065 272.342L135.052 272.996L134.999 273.636L134.919 274.262L134.812 274.889L134.665 275.502L134.492 276.102L134.305 276.689L134.079 277.262L133.825 277.822L133.545 278.369L133.239 278.889L132.905 279.409L132.559 279.902L132.185 280.382L131.786 280.836L131.359 281.276L130.932 281.689L130.465 282.089L129.986 282.462L129.492 282.822L128.986 283.142L128.452 283.449L127.906 283.729L127.346 283.982L126.772 284.209L126.186 284.409L125.586 284.582L124.972 284.716L124.346 284.836L123.719 284.916L123.079 284.956L122.426 284.982C115.452 284.982 109.786 279.316 109.786 272.342C109.786 265.356 115.452 259.703 122.426 259.703C129.412 259.703 135.065 265.356 135.065 272.342Z" stroke="black" stroke-width="1.33332" stroke-miterlimit="10.433"/>
<text fill="black" xml:space="preserve" style="white-space: pre" font-family="Trebuchet MS" font-size="14.6666" letter-spacing="0em"><tspan x="108.774" y="13.7565">12 V </tspan></text>
<text fill="black" xml:space="preserve" style="white-space: pre" font-family="Trebuchet MS" font-size="14.6666" letter-spacing="0em"><tspan x="118.028" y="276.475">V</tspan></text>
<text fill="black" xml:space="preserve" style="white-space: pre" font-family="Trebuchet MS" font-size="14.6666" letter-spacing="0em"><tspan x="173.395" y="124.356">A</tspan></text>
<text fill="black" xml:space="preserve" style="white-space: pre" font-family="Trebuchet MS" font-size="9.76794" letter-spacing="0em"><tspan x="181.854" y="128.152">2</tspan></text>
<text fill="black" xml:space="preserve" style="white-space: pre" font-family="Trebuchet MS" font-size="14.6666" letter-spacing="0em"><tspan x="244.838" y="97.516">A</tspan></text>
<text fill="black" xml:space="preserve" style="white-space: pre" font-family="Trebuchet MS" font-size="9.76794" letter-spacing="0em"><tspan x="253.292" y="101.326">1</tspan></text>
</svg>
