<svg width="108" height="244" viewBox="0 0 108 244" fill="none" xmlns="http://www.w3.org/2000/svg">
<path d="M106.885 76.0271H20.2925" stroke="black" stroke-width="1.33332" stroke-miterlimit="10.433"/>
<path d="M39.8457 82.0538H87.3121V70.0139H39.8457V82.0538Z" fill="white"/>
<path fill-rule="evenodd" clip-rule="evenodd" d="M39.8457 82.0538H87.3121V70.0139H39.8457V82.0538Z" stroke="black" stroke-width="1.33332" stroke-miterlimit="10.433"/>
<path d="M39.2588 89.1471H48.5121L88.0585 58.6273" stroke="black" stroke-width="1.33332" stroke-miterlimit="10.433"/>
<path d="M63.5787 115.427L64.2321 115.44L64.8721 115.493L65.5121 115.573L66.1254 115.68L66.7387 115.827L67.3387 116L67.9254 116.2L68.4987 116.427L69.0587 116.68L69.6054 116.947L70.1387 117.253L70.6454 117.587L71.152 117.933L71.6187 118.307L72.0853 118.707L72.5253 119.134L72.9387 119.573L73.3387 120.027L73.712 120.507L74.0587 121L74.392 121.507L74.6987 122.04L74.9787 122.587L75.232 123.147L75.4587 123.72L75.6587 124.307L75.832 124.907L75.9653 125.52L76.072 126.133L76.1653 126.773L76.2053 127.413L76.2187 128.067C76.2187 135.04 70.5653 140.693 63.5787 140.693C56.6054 140.693 50.9521 135.04 50.9521 128.067C50.9521 121.08 56.6054 115.427 63.5787 115.427Z" fill="white"/>
<path fill-rule="evenodd" clip-rule="evenodd" d="M63.5787 115.427L64.2321 115.44L64.8721 115.493L65.5121 115.573L66.1254 115.68L66.7387 115.827L67.3387 116L67.9254 116.2L68.4987 116.427L69.0587 116.68L69.6054 116.947L70.1387 117.253L70.6454 117.587L71.152 117.933L71.6187 118.307L72.0853 118.707L72.5253 119.134L72.9387 119.573L73.3387 120.027L73.712 120.507L74.0587 121L74.392 121.507L74.6987 122.04L74.9787 122.587L75.232 123.147L75.4587 123.72L75.6587 124.307L75.832 124.907L75.9653 125.52L76.072 126.133L76.1653 126.773L76.2053 127.413L76.2187 128.067C76.2187 135.04 70.5653 140.693 63.5787 140.693C56.6054 140.693 50.9521 135.04 50.9521 128.067C50.9521 121.08 56.6054 115.427 63.5787 115.427Z" stroke="black" stroke-width="1.33332" stroke-miterlimit="10.433"/>
<path d="M76.2188 128.067H99.3519" stroke="black" stroke-width="1.33332" stroke-miterlimit="10.433"/>
<path d="M50.952 128.067H27.8188" stroke="black" stroke-width="1.33332" stroke-miterlimit="10.433"/>
<path d="M107.472 237H20.8857" stroke="black" stroke-width="1.33332" stroke-miterlimit="10.433"/>
<path d="M40.4458 243.013H87.9122V230.986H40.4458V243.013Z" fill="white"/>
<path fill-rule="evenodd" clip-rule="evenodd" d="M40.4458 243.013H87.9122V230.986H40.4458V243.013Z" stroke="black" stroke-width="1.33332" stroke-miterlimit="10.433"/>
<path d="M57.1924 207.986L67.0457 220.213" stroke="black" stroke-width="1.33332" stroke-miterlimit="10.433"/>
<path d="M63.8589 220.4L72.3122 226.586L68.0855 217L63.8589 220.4Z" fill="black"/>
<path d="M41.7788 208.346L51.6321 220.586" stroke="black" stroke-width="1.33332" stroke-miterlimit="10.433"/>
<path d="M48.459 220.773L56.9123 226.96L52.6723 217.373L48.459 220.773Z" fill="black"/>
<path d="M107.472 183.84H20.8857" stroke="black" stroke-width="1.33332" stroke-miterlimit="10.433"/>
<path d="M40.4458 189.866H87.9122V177.826H40.4458V189.866Z" fill="white"/>
<path fill-rule="evenodd" clip-rule="evenodd" d="M40.4458 189.866H87.9122V177.826H40.4458V189.866Z" stroke="black" stroke-width="1.33332" stroke-miterlimit="10.433"/>
<path d="M37.1255 183.84H91.2318" stroke="black" stroke-width="1.33332" stroke-miterlimit="10.433"/>
<path fill-rule="evenodd" clip-rule="evenodd" d="M51.9258 34.2673H68.1257V12.4542H51.9258V34.2673Z" stroke="black" stroke-width="1.33332" stroke-miterlimit="10.433"/>
<path d="M41.3389 18.0276H51.9255" stroke="black" stroke-width="1.33332" stroke-miterlimit="10.433"/>
<path d="M41.3389 28.9075H51.9255" stroke="black" stroke-width="1.33332" stroke-miterlimit="10.433"/>
<path fill-rule="evenodd" clip-rule="evenodd" d="M68.1255 34.2675L84.2054 44.6941V1.73441L68.1255 12.4543V34.2675Z" stroke="black" stroke-width="1.33332" stroke-miterlimit="10.433"/>
<text fill="black" xml:space="preserve" style="white-space: pre" font-family="Trebuchet MS" font-size="14.6666" letter-spacing="0em"><tspan x="1.41943" y="26.8934">A</tspan></text>
<text fill="black" xml:space="preserve" style="white-space: pre" font-family="Trebuchet MS" font-size="14.6666" letter-spacing="0em"><tspan x="1.45898" y="80.0797">B</tspan></text>
<text fill="black" xml:space="preserve" style="white-space: pre" font-family="Trebuchet MS" font-size="14.6666" letter-spacing="0em"><tspan x="1.43262" y="133.279">C</tspan></text>
<text fill="black" xml:space="preserve" style="white-space: pre" font-family="Trebuchet MS" font-size="14.6666" letter-spacing="0em"><tspan x="0.925781" y="186.479">D</tspan></text>
<text fill="black" xml:space="preserve" style="white-space: pre" font-family="Trebuchet MS" font-size="14.6666" letter-spacing="0em"><tspan x="1.69922" y="239.679">E</tspan></text>
</svg>
