<svg width="361" height="140" viewBox="0 0 361 140" fill="none" xmlns="http://www.w3.org/2000/svg">
<path d="M19.2397 69.3729H34.3196V51.8531H19.2397V69.3729Z" fill="#4C4C4C"/>
<path fill-rule="evenodd" clip-rule="evenodd" d="M19.2397 69.3729H34.3196V51.8531H19.2397V69.3729Z" stroke="black" stroke-width="1.33332" stroke-miterlimit="10.433"/>
<path d="M34.3198 82.8262H85.6795V38.3998H34.3198V82.8262Z" fill="#4C4C4C"/>
<path fill-rule="evenodd" clip-rule="evenodd" d="M34.3198 82.8262H85.6795V38.3998H34.3198V82.8262Z" stroke="black" stroke-width="1.33332" stroke-miterlimit="10.433"/>
<path d="M138.679 120.026H150.599V1.00003H138.679V120.026Z" fill="#999999"/>
<path fill-rule="evenodd" clip-rule="evenodd" d="M138.679 120.026H150.599V1.00003H138.679V120.026Z" stroke="black" stroke-width="1.33332" stroke-miterlimit="10.433"/>
<path d="M282.985 120.026H287.865V1.00003H282.985V120.026Z" fill="#999999"/>
<path fill-rule="evenodd" clip-rule="evenodd" d="M282.985 120.026H287.865V1.00003H282.985V120.026Z" stroke="black" stroke-width="1.33332" stroke-miterlimit="10.433"/>
<path d="M220.199 60.613V60.7597L220.185 60.9197L220.172 61.0663L220.145 61.213L220.105 61.3464L220.065 61.493L220.025 61.6263L219.972 61.7597L219.919 61.893L219.852 62.0263L219.772 62.1463L219.705 62.2664L219.612 62.3863L219.532 62.493L219.439 62.5997L219.332 62.7063L219.239 62.7996L219.132 62.893L219.012 62.9863L218.905 63.0663L218.785 63.1463L218.652 63.213L218.532 63.2796L218.399 63.333L218.265 63.3863L218.132 63.4397L217.985 63.4797L217.839 63.5063L217.692 63.533L217.545 63.5597L217.399 63.573H217.252C215.612 63.573 214.292 62.2396 214.292 60.613C214.292 58.9863 215.612 57.653 217.252 57.653C218.879 57.653 220.199 58.9863 220.199 60.613Z" fill="black"/>
<path d="M356.345 60.613V60.7597L356.331 60.9197L356.318 61.0663L356.291 61.213L356.251 61.3464L356.211 61.493L356.171 61.6263L356.118 61.7597L356.065 61.893L355.998 62.0263L355.918 62.1463L355.851 62.2664L355.758 62.3863L355.678 62.493L355.585 62.5997L355.478 62.7063L355.385 62.7996L355.278 62.893L355.158 62.9863L355.051 63.0663L354.931 63.1463L354.798 63.213L354.678 63.2796L354.545 63.333L354.411 63.3863L354.278 63.4397L354.131 63.4797L353.998 63.5063L353.851 63.533L353.705 63.5597L353.545 63.573H353.398C351.758 63.573 350.438 62.2396 350.438 60.613C350.438 58.9863 351.758 57.653 353.398 57.653C355.025 57.653 356.345 58.9863 356.345 60.613Z" fill="black"/>
<text fill="black" xml:space="preserve" style="white-space: pre" font-family="Trebuchet MS" font-size="14.6666" letter-spacing="0em"><tspan x="0" y="100.972">radioactive source</tspan></text>
<text fill="black" xml:space="preserve" style="white-space: pre" font-family="Trebuchet MS" font-size="14.6666" letter-spacing="0em"><tspan x="84.8438" y="136.158">10</tspan></text>
<text fill="black" xml:space="preserve" style="white-space: pre" font-family="Trebuchet MS" font-size="14.6666" letter-spacing="0em"><tspan x="104.312" y="136.158">mm aluminium</tspan></text>
<text fill="black" xml:space="preserve" style="white-space: pre" font-family="Trebuchet MS" font-size="14.6666" letter-spacing="0em"><tspan x="212.399" y="80.4121">P</tspan></text>
<text fill="black" xml:space="preserve" style="white-space: pre" font-family="Trebuchet MS" font-size="14.6666" letter-spacing="0em"><tspan x="266.064" y="136.158">paper</tspan></text>
<text fill="black" xml:space="preserve" style="white-space: pre" font-family="Trebuchet MS" font-size="14.6666" letter-spacing="0em"><tspan x="349.731" y="80.4121">Q</tspan></text>
</svg>
