<svg width="380" height="233" viewBox="0 0 380 233" fill="none" xmlns="http://www.w3.org/2000/svg">
<path d="M104.801 119.486L47.2434 232.716H272.842L217.025 119.486H104.801Z" fill="#A7A5A6"/>
<path d="M185.525 144.314V178.726L188.358 180.95V135.091L185.525 144.314Z" fill="white" stroke="#231F20" stroke-width="1.33333" stroke-miterlimit="10" stroke-linecap="round" stroke-linejoin="round"/>
<path d="M161.707 182.08C164.181 207.429 179.478 215.893 202.171 215.539C223.717 215.205 244.426 221.804 265.639 220.872V225.46C244.426 226.393 221.103 219.153 199.556 219.487C176.863 219.841 160.165 211.502 157.691 186.153" stroke="#231F20" stroke-width="1.33333" stroke-miterlimit="10" stroke-linecap="round" stroke-linejoin="round"/>
<path d="M266.822 223.2C266.822 224.466 266.29 225.492 265.639 225.492C264.983 225.492 264.457 224.466 264.457 223.2C264.457 221.934 264.983 220.908 265.639 220.908C266.29 220.908 266.822 221.934 266.822 223.2Z" fill="white"/>
<path d="M266.822 223.2C266.822 224.466 266.29 225.492 265.639 225.492C264.983 225.492 264.457 224.466 264.457 223.2C264.457 221.934 264.983 220.908 265.639 220.908C266.29 220.908 266.822 221.934 266.822 223.2Z" stroke="#231F20" stroke-width="1.33333" stroke-miterlimit="10" stroke-linecap="round" stroke-linejoin="round"/>
<path d="M188.358 124.148V148.887C188.446 162.799 169.67 164.216 168.962 174.799C168.962 177.492 164.79 179.877 160.025 179.877C155.254 179.877 151.082 177.492 151.082 174.799C150.374 164.216 131.603 162.799 131.691 148.887V124.148" fill="#D3D2D2"/>
<path d="M188.358 124.148V148.887C188.446 162.799 169.67 164.216 168.962 174.799C168.962 177.492 164.79 179.877 160.025 179.877C155.254 179.877 151.082 177.492 151.082 174.799C150.374 164.216 131.603 162.799 131.691 148.887V124.148" stroke="#231F20" stroke-width="1.33333" stroke-miterlimit="10" stroke-linecap="round" stroke-linejoin="round"/>
<path d="M169.655 185.783C169.655 188.789 165.342 191.226 160.025 191.226C154.702 191.226 150.389 188.789 150.389 185.783V178.434H169.655V185.783Z" fill="#A7A5A6" stroke="#231F20" stroke-width="1.33333" stroke-miterlimit="10" stroke-linecap="round" stroke-linejoin="round"/>
<path d="M169.655 178.434C169.655 181.439 165.342 183.877 160.025 183.877C154.702 183.877 150.389 181.439 150.389 178.434C150.389 175.434 154.702 172.997 160.025 172.997C165.342 172.997 169.655 175.434 169.655 178.434Z" fill="#A7A5A6"/>
<path d="M169.655 178.434C169.655 181.44 165.342 183.877 160.025 183.877C154.702 183.877 150.389 181.44 150.389 178.434C150.389 175.434 154.702 172.997 160.025 172.997C165.342 172.997 169.655 175.434 169.655 178.434Z" stroke="#231F20" stroke-width="1.33333" stroke-miterlimit="10" stroke-linecap="round" stroke-linejoin="round"/>
<path d="M151.129 175.294L151.389 177.236C151.389 179.929 155.254 182.111 160.025 182.111C164.79 182.111 168.66 179.929 168.66 177.236L168.915 175.294" stroke="#231F20" stroke-width="1.33333" stroke-miterlimit="10" stroke-linecap="round" stroke-linejoin="round"/>
<path d="M131.691 124.148V40.1531" stroke="#231F20" stroke-width="1.33333" stroke-miterlimit="10" stroke-linecap="round" stroke-linejoin="round"/>
<path d="M188.358 40.1531C188.358 48.9864 175.671 56.1531 160.025 56.1531C144.374 56.1531 131.691 48.9864 131.691 40.1531C131.691 31.3145 144.374 24.1531 160.025 24.1531C175.671 24.1531 188.358 31.3145 188.358 40.1531Z" fill="white"/>
<path d="M188.358 40.1531C188.358 48.9864 175.671 56.1531 160.025 56.1531C144.374 56.1531 131.691 48.9864 131.691 40.1531C131.691 31.3145 144.374 24.1531 160.025 24.1531C175.671 24.1531 188.358 31.3145 188.358 40.1531Z" stroke="#231F20" stroke-width="1.33333" stroke-miterlimit="10" stroke-linecap="round" stroke-linejoin="round"/>
<path d="M188.358 124.148C188.358 132.986 175.671 140.148 160.025 140.148C144.374 140.148 131.691 132.986 131.691 124.148C131.691 115.315 144.374 108.148 160.025 108.148C175.671 108.148 188.358 115.315 188.358 124.148Z" fill="#D3D2D2"/>
<path d="M188.358 124.148C188.358 132.986 175.671 140.148 160.025 140.148C144.374 140.148 131.691 132.986 131.691 124.148C131.691 115.315 144.374 108.148 160.025 108.148C175.671 108.148 188.358 115.315 188.358 124.148Z" stroke="#231F20" stroke-width="1.33333" stroke-miterlimit="10" stroke-linecap="round" stroke-linejoin="round"/>
<path d="M182.848 37.0385C182.848 44.1583 172.629 49.9291 160.025 49.9291C147.415 49.9291 137.197 44.1583 137.197 37.0385C137.197 29.9239 147.415 24.1531 160.025 24.1531C172.629 24.1531 182.848 29.9239 182.848 37.0385Z" fill="white"/>
<path d="M182.848 37.0385C182.848 44.1583 172.629 49.9291 160.025 49.9291C147.415 49.9291 137.197 44.1583 137.197 37.0385C137.197 29.9239 147.415 24.1531 160.025 24.1531C172.629 24.1531 182.848 29.9239 182.848 37.0385Z" stroke="#231F20" stroke-width="1.33333" stroke-miterlimit="10" stroke-linecap="round" stroke-linejoin="round"/>
<path d="M148.801 129.742V206.507L137.196 221.268L132.702 220.028L145.696 128.58L148.801 129.742Z" fill="white" stroke="#231F20" stroke-width="1.33333" stroke-miterlimit="10" stroke-linecap="round" stroke-linejoin="round"/>
<path d="M137.197 221.273L148.801 129.742" stroke="#231F20" stroke-width="1.33333" stroke-miterlimit="10" stroke-linecap="round" stroke-linejoin="round"/>
<path d="M188.358 115.981V180.95L212.847 175.372L188.358 106.611V115.981Z" fill="white"/>
<path d="M188.358 115.981V180.95L212.847 175.372L188.358 106.611V115.981Z" stroke="#231F20" stroke-width="1.33333" stroke-miterlimit="10" stroke-linecap="round" stroke-linejoin="round"/>
<path d="M131.691 141.742L124.311 166.684L138.868 176.69L140.821 162.898L138.332 161.122L136.332 159.622L134.842 157.637L133.42 155.601L132.374 153.278L131.832 150.789L131.691 141.742Z" fill="white"/>
<path d="M131.691 141.742L124.311 166.684L138.868 176.69L140.821 162.898L138.332 161.122L136.332 159.622L134.842 157.637L133.42 155.601L132.374 153.278L131.832 150.788L131.691 141.742Z" stroke="#231F20" stroke-width="1.33333" stroke-miterlimit="10" stroke-linecap="round" stroke-linejoin="round"/>
<path d="M131.691 141.742L143.27 106.596V145.7" stroke="#231F20" stroke-width="0.333333" stroke-miterlimit="10" stroke-linecap="round" stroke-linejoin="round"/>
<path d="M143.27 106.596L145.801 105.283V132.58" stroke="#231F20" stroke-width="0.333333" stroke-miterlimit="10" stroke-linecap="round" stroke-linejoin="round"/>
<path d="M188.358 40.1531V124.148" stroke="#231F20" stroke-width="1.33333" stroke-miterlimit="10" stroke-linecap="round" stroke-linejoin="round"/>
<path d="M162.91 178.434C162.91 179.403 161.618 180.184 160.025 180.184C158.426 180.184 157.134 179.403 157.134 178.434C157.134 177.471 158.426 176.689 160.025 176.689C161.618 176.689 162.91 177.471 162.91 178.434Z" stroke="#231F20" stroke-width="1.33333" stroke-miterlimit="10" stroke-linecap="round" stroke-linejoin="round"/>
<path d="M157.134 178.434V181.825" stroke="#231F20" stroke-width="1.33333" stroke-miterlimit="10" stroke-linecap="round" stroke-linejoin="round"/>
<path d="M162.91 178.434V181.825" stroke="#231F20" stroke-width="1.33333" stroke-miterlimit="10" stroke-linecap="round" stroke-linejoin="round"/>
<path d="M158.447 169.007C158.447 169.731 157.858 170.32 157.134 170.32C156.41 170.32 155.822 169.731 155.822 169.007C155.822 168.283 156.41 167.695 157.134 167.695C157.858 167.695 158.447 168.283 158.447 169.007Z" fill="white"/>
<path d="M158.447 169.007C158.447 169.731 157.858 170.32 157.134 170.32C156.41 170.32 155.822 169.731 155.822 169.007C155.822 168.283 156.41 167.695 157.134 167.695C157.858 167.695 158.447 168.283 158.447 169.007Z" stroke="#231F20" stroke-width="0.666667" stroke-miterlimit="10" stroke-linecap="round" stroke-linejoin="round"/>
<path d="M158.447 175.294C158.447 176.018 157.858 176.606 157.134 176.606C156.41 176.606 155.822 176.018 155.822 175.294C155.822 174.57 156.41 173.981 157.134 173.981C157.858 173.981 158.447 174.57 158.447 175.294Z" fill="white"/>
<path d="M158.447 175.294C158.447 176.018 157.858 176.606 157.134 176.606C156.41 176.606 155.822 176.018 155.822 175.294C155.822 174.57 156.41 173.981 157.134 173.981C157.858 173.981 158.447 174.57 158.447 175.294Z" stroke="#231F20" stroke-width="0.666667" stroke-miterlimit="10" stroke-linecap="round" stroke-linejoin="round"/>
<path d="M155.822 163.132C155.822 163.856 155.233 164.445 154.509 164.445C153.785 164.445 153.197 163.856 153.197 163.132C153.197 162.408 153.785 161.82 154.509 161.82C155.233 161.82 155.822 162.408 155.822 163.132Z" fill="white"/>
<path d="M155.822 163.132C155.822 163.856 155.233 164.445 154.509 164.445C153.785 164.445 153.197 163.856 153.197 163.132C153.197 162.408 153.785 161.82 154.509 161.82C155.233 161.82 155.822 162.408 155.822 163.132Z" stroke="#231F20" stroke-width="0.666667" stroke-miterlimit="10" stroke-linecap="round" stroke-linejoin="round"/>
<path d="M162.374 161.82C162.374 162.544 161.785 163.132 161.061 163.132C160.337 163.132 159.749 162.544 159.749 161.82C159.749 161.096 160.337 160.507 161.061 160.507C161.785 160.507 162.374 161.096 162.374 161.82Z" fill="white"/>
<path d="M162.374 161.82C162.374 162.544 161.785 163.132 161.061 163.132C160.337 163.132 159.749 162.544 159.749 161.82C159.749 161.096 160.337 160.507 161.061 160.507C161.785 160.507 162.374 161.096 162.374 161.82Z" stroke="#231F20" stroke-width="0.666667" stroke-miterlimit="10" stroke-linecap="round" stroke-linejoin="round"/>
<path d="M166.556 157.637C166.556 158.361 165.967 158.945 165.243 158.945C164.519 158.945 163.931 158.361 163.931 157.637C163.931 156.908 164.519 156.325 165.243 156.325C165.967 156.325 166.556 156.908 166.556 157.637Z" fill="white"/>
<path d="M166.556 157.637C166.556 158.361 165.967 158.945 165.243 158.945C164.519 158.945 163.931 158.361 163.931 157.637C163.931 156.908 164.519 156.325 165.243 156.325C165.967 156.325 166.556 156.908 166.556 157.637Z" stroke="#231F20" stroke-width="0.666667" stroke-miterlimit="10" stroke-linecap="round" stroke-linejoin="round"/>
<path d="M163.686 151.664C163.686 152.387 163.097 152.976 162.374 152.976C161.65 152.976 161.061 152.387 161.061 151.664C161.061 150.94 161.65 150.351 162.374 150.351C163.097 150.351 163.686 150.94 163.686 151.664Z" fill="white"/>
<path d="M163.686 151.664C163.686 152.387 163.097 152.976 162.374 152.976C161.65 152.976 161.061 152.387 161.061 151.664C161.061 150.94 161.65 150.351 162.374 150.351C163.097 150.351 163.686 150.94 163.686 151.664Z" stroke="#231F20" stroke-width="0.666667" stroke-miterlimit="10" stroke-linecap="round" stroke-linejoin="round"/>
<path d="M167.78 147.57C167.78 148.294 167.191 148.882 166.467 148.882C165.743 148.882 165.155 148.294 165.155 147.57C165.155 146.846 165.743 146.257 166.467 146.257C167.191 146.257 167.78 146.846 167.78 147.57Z" fill="white"/>
<path d="M167.78 147.57C167.78 148.294 167.191 148.882 166.467 148.882C165.743 148.882 165.155 148.294 165.155 147.57C165.155 146.846 165.743 146.257 166.467 146.257C167.191 146.257 167.78 146.846 167.78 147.57Z" stroke="#231F20" stroke-width="0.666667" stroke-miterlimit="10" stroke-linecap="round" stroke-linejoin="round"/>
<path d="M172.29 143.065C172.29 143.788 171.702 144.377 170.978 144.377C170.249 144.377 169.66 143.788 169.66 143.065C169.66 142.335 170.249 141.752 170.978 141.752C171.702 141.752 172.29 142.335 172.29 143.065Z" fill="white"/>
<path d="M172.29 143.065C172.29 143.788 171.702 144.377 170.978 144.377C170.249 144.377 169.66 143.788 169.66 143.065C169.66 142.335 170.249 141.752 170.978 141.752C171.702 141.752 172.29 142.335 172.29 143.065Z" stroke="#231F20" stroke-width="0.666667" stroke-miterlimit="10" stroke-linecap="round" stroke-linejoin="round"/>
<path d="M158.447 155.601C158.447 156.325 157.858 156.914 157.134 156.914C156.41 156.914 155.822 156.325 155.822 155.601C155.822 154.877 156.41 154.289 157.134 154.289C157.858 154.289 158.447 154.877 158.447 155.601Z" fill="white"/>
<path d="M158.447 155.601C158.447 156.325 157.858 156.914 157.134 156.914C156.41 156.914 155.822 156.325 155.822 155.601C155.822 154.877 156.41 154.289 157.134 154.289C157.858 154.289 158.447 154.877 158.447 155.601Z" stroke="#231F20" stroke-width="0.666667" stroke-miterlimit="10" stroke-linecap="round" stroke-linejoin="round"/>
<path d="M154.509 151.664C154.509 152.387 153.92 152.976 153.197 152.976C152.473 152.976 151.884 152.387 151.884 151.664C151.884 150.94 152.473 150.351 153.197 150.351C153.92 150.351 154.509 150.94 154.509 151.664Z" fill="white"/>
<path d="M154.509 151.664C154.509 152.387 153.92 152.976 153.197 152.976C152.473 152.976 151.884 152.387 151.884 151.664C151.884 150.94 152.473 150.351 153.197 150.351C153.92 150.351 154.509 150.94 154.509 151.664Z" stroke="#231F20" stroke-width="0.666667" stroke-miterlimit="10" stroke-linecap="round" stroke-linejoin="round"/>
<path d="M155.822 146.346C155.822 147.075 155.233 147.658 154.509 147.658C153.785 147.658 153.197 147.075 153.197 146.346C153.197 145.622 153.785 145.033 154.509 145.033C155.233 145.033 155.822 145.622 155.822 146.346Z" fill="white"/>
<path d="M155.822 146.346C155.822 147.075 155.233 147.658 154.509 147.658C153.785 147.658 153.197 147.075 153.197 146.346C153.197 145.622 153.785 145.033 154.509 145.033C155.233 145.033 155.822 145.622 155.822 146.346Z" stroke="#231F20" stroke-width="0.666667" stroke-miterlimit="10" stroke-linecap="round" stroke-linejoin="round"/>
<path d="M162.91 171.632C162.91 172.356 162.327 172.945 161.603 172.945C160.874 172.945 160.285 172.356 160.285 171.632C160.285 170.908 160.874 170.32 161.603 170.32C162.327 170.32 162.91 170.908 162.91 171.632Z" fill="white"/>
<path d="M162.91 171.632C162.91 172.356 162.327 172.945 161.603 172.945C160.874 172.945 160.285 172.356 160.285 171.632C160.285 170.908 160.874 170.32 161.603 170.32C162.327 170.32 162.91 170.908 162.91 171.632Z" stroke="#231F20" stroke-width="0.666667" stroke-miterlimit="10" stroke-linecap="round" stroke-linejoin="round"/>
<path d="M165.243 119.486L202.691 82.1478" stroke="#231F20" stroke-width="0.666667" stroke-miterlimit="10"/>
<path d="M160.285 76.3926L111.025 56.1531" stroke="#231F20" stroke-width="0.666667" stroke-miterlimit="10"/>
<path d="M100.587 186.809L51.3215 166.57" stroke="#231F20" stroke-width="0.666667" stroke-miterlimit="10"/>
<path d="M265.639 223.2H294.863" stroke="#231F20" stroke-width="0.666667" stroke-miterlimit="10"/>
<path d="M188.025 105.788L185.488 104.476V161.033" stroke="#231F20" stroke-width="0.333333" stroke-miterlimit="10" stroke-linecap="round" stroke-linejoin="round"/>
<path d="M126.508 10.9583H126.174L123.903 5.6875L121.674 10.9583H121.299L118.57 3.125H120.028L121.716 8.14583L123.758 3.125H124.133L126.216 8.14583L127.945 3.125H129.278L126.508 10.9583Z" fill="#231F20"/>
<path d="M134.399 9.9375C134.024 10.3542 133.659 10.6354 133.315 10.7708C132.982 10.8958 132.565 10.9583 132.065 10.9583C131.3 10.9583 130.711 10.7604 130.294 10.3542C129.878 9.9375 129.669 9.375 129.669 8.66667C129.669 7.86458 129.972 7.20313 130.586 6.6875C131.195 6.16146 132.008 5.89583 133.024 5.89583C133.576 5.89583 133.992 5.9375 134.274 6.02083C134.274 5.35417 134.138 4.875 133.878 4.58333C133.628 4.28125 133.222 4.125 132.669 4.125C131.961 4.125 131.32 4.32813 130.753 4.72917L130.128 3.77083C130.763 3.26042 131.649 3 132.774 3C133.774 3 134.492 3.26042 134.94 3.77083C135.399 4.28646 135.628 5.09375 135.628 6.1875V8.91667C135.628 9.57292 135.826 9.97396 136.232 10.125V10.9375C135.201 10.9375 134.591 10.6042 134.399 9.9375ZM134.274 7.02083C133.982 6.9375 133.586 6.89583 133.086 6.89583C132.445 6.89583 131.945 7.05729 131.586 7.375C131.222 7.69792 131.044 8.11979 131.044 8.64583C131.044 9.47917 131.466 9.89583 132.315 9.89583C133.076 9.89583 133.732 9.57292 134.274 8.91667V7.02083Z" fill="#231F20"/>
<path d="M137.965 4.29165H137.069V3.14581H137.965V1.54165L139.319 1.02081V3.14581H141.59V4.29165H139.319V8.14581C139.319 9.2604 139.679 9.81248 140.403 9.81248C140.819 9.81248 141.215 9.72394 141.59 9.54165L141.924 10.6041C141.424 10.8385 140.851 10.9583 140.215 10.9583C139.507 10.9583 138.95 10.7396 138.549 10.2916C138.158 9.84894 137.965 9.24477 137.965 8.47915V4.29165Z" fill="#231F20"/>
<path d="M149.408 7.22917H144.158C144.158 8.01042 144.372 8.63542 144.804 9.10417C145.231 9.57813 145.788 9.8125 146.47 9.8125C147.205 9.8125 147.887 9.58333 148.512 9.125L149.116 10.125C148.309 10.6823 147.372 10.9583 146.304 10.9583C145.22 10.9583 144.351 10.5938 143.7 9.85417C143.043 9.11979 142.72 8.16146 142.72 6.97917C142.72 5.80208 143.043 4.84375 143.7 4.10417C144.351 3.36979 145.21 3 146.283 3C147.267 3 148.043 3.3125 148.616 3.9375C149.2 4.55208 149.491 5.36979 149.491 6.39583C149.491 6.72917 149.46 7.01042 149.408 7.22917ZM144.2 6.125H148.137C148.137 5.53125 147.97 5.04167 147.637 4.66667C147.304 4.29167 146.835 4.10417 146.241 4.10417C145.668 4.10417 145.2 4.30208 144.825 4.6875C144.45 5.0625 144.241 5.54167 144.2 6.125Z" fill="#231F20"/>
<path d="M155.274 4.5625C154.951 4.39583 154.633 4.3125 154.316 4.3125C153.826 4.3125 153.404 4.51563 153.045 4.91667C152.68 5.32292 152.503 5.82292 152.503 6.41667V10.8125H151.149V3.14583H152.503V4.375C153.003 3.45833 153.737 3 154.711 3C155.086 3 155.425 3.09375 155.732 3.27083L155.274 4.5625Z" fill="#231F20"/>
<path d="M165.057 4.5625C164.734 4.39583 164.416 4.3125 164.098 4.3125C163.609 4.3125 163.187 4.51563 162.827 4.91667C162.463 5.32292 162.286 5.82292 162.286 6.41667V10.8125H160.932V3.14583H162.286V4.375C162.786 3.45833 163.52 3 164.494 3C164.869 3 165.208 3.09375 165.515 3.27083L165.057 4.5625Z" fill="#231F20"/>
<path d="M169.313 3C170.396 3 171.24 3.34896 171.855 4.04167C172.464 4.73958 172.771 5.70833 172.771 6.95833C172.771 8.18229 172.459 9.15625 171.834 9.875C171.219 10.599 170.381 10.9583 169.313 10.9583C168.24 10.9583 167.396 10.6042 166.771 9.89583C166.146 9.17708 165.834 8.19792 165.834 6.95833C165.834 5.79167 166.151 4.84375 166.792 4.10417C167.427 3.36979 168.271 3 169.313 3ZM169.313 9.85417C169.938 9.85417 170.427 9.59896 170.792 9.08333C171.151 8.55729 171.334 7.84896 171.334 6.95833C171.334 5.05729 170.657 4.10417 169.313 4.10417C168.698 4.10417 168.209 4.35417 167.834 4.85417C167.459 5.35417 167.271 6.05729 167.271 6.95833C167.271 8.89063 167.948 9.85417 169.313 9.85417Z" fill="#231F20"/>
<path d="M179.532 4.625C178.933 4.30729 178.35 4.14583 177.782 4.14583C177.116 4.14583 176.558 4.42708 176.116 4.97917C175.683 5.52083 175.47 6.23958 175.47 7.125C175.47 7.97396 175.657 8.63542 176.032 9.10417C176.407 9.57813 176.933 9.8125 177.616 9.8125C178.282 9.8125 178.918 9.58333 179.532 9.125L180.116 10.1042C179.376 10.6771 178.501 10.9583 177.491 10.9583C176.433 10.9583 175.595 10.6198 174.97 9.9375C174.355 9.24479 174.053 8.30729 174.053 7.125C174.053 5.90625 174.407 4.91146 175.116 4.14583C175.824 3.38542 176.751 3 177.907 3C178.699 3 179.387 3.16667 179.97 3.5L179.532 4.625Z" fill="#231F20"/>
<path d="M186.295 10.8125L183.961 7.04167L182.774 8.20833V10.8125H181.42V0H182.774V6.70833L185.711 3.14583H187.295L184.857 6.0625L187.836 10.8125H186.295Z" fill="#231F20"/>
<path d="M195.152 7.22917H189.902C189.902 8.01042 190.115 8.63542 190.548 9.10417C190.975 9.57813 191.532 9.8125 192.214 9.8125C192.949 9.8125 193.631 9.58333 194.256 9.125L194.86 10.125C194.053 10.6823 193.115 10.9583 192.048 10.9583C190.964 10.9583 190.095 10.5938 189.444 9.85417C188.787 9.11979 188.464 8.16146 188.464 6.97917C188.464 5.80208 188.787 4.84375 189.444 4.10417C190.095 3.36979 190.954 3 192.027 3C193.011 3 193.787 3.3125 194.36 3.9375C194.944 4.55208 195.235 5.36979 195.235 6.39583C195.235 6.72917 195.204 7.01042 195.152 7.22917ZM189.944 6.125H193.881C193.881 5.53125 193.714 5.04167 193.381 4.66667C193.048 4.29167 192.579 4.10417 191.985 4.10417C191.412 4.10417 190.944 4.30208 190.569 4.6875C190.194 5.0625 189.985 5.54167 189.944 6.125Z" fill="#231F20"/>
<path d="M196.997 4.29165H196.101V3.14581H196.997V1.54165L198.351 1.02081V3.14581H200.622V4.29165H198.351V8.14581C198.351 9.2604 198.711 9.81248 199.435 9.81248C199.851 9.81248 200.247 9.72394 200.622 9.54165L200.955 10.6041C200.455 10.8385 199.882 10.9583 199.247 10.9583C198.539 10.9583 197.981 10.7396 197.58 10.2916C197.19 9.84894 196.997 9.24477 196.997 8.47915V4.29165Z" fill="#231F20"/>
<path d="M34.2736 63.3712H32.9194V52.7045H34.2736V53.267C34.784 52.7982 35.4871 52.5587 36.3778 52.5587C37.3465 52.5587 38.1278 52.9128 38.7111 53.6212C39.2944 54.3191 39.5861 55.2201 39.5861 56.3295C39.5861 57.6212 39.2632 58.642 38.6278 59.392C37.9871 60.1316 37.1486 60.4962 36.1069 60.4962C35.2736 60.4962 34.659 60.3191 34.2736 59.9545V63.3712ZM34.2736 58.7462C34.7007 59.1628 35.2528 59.3712 35.9194 59.3712C36.5965 59.3712 37.1382 59.1159 37.5444 58.6003C37.9455 58.0743 38.1486 57.3503 38.1486 56.4337C38.1486 55.5743 37.9507 54.9024 37.5653 54.4128C37.1746 53.9284 36.6173 53.6837 35.8986 53.6837C35.2423 53.6837 34.7007 53.9024 34.2736 54.3295V58.7462Z" fill="#231F20"/>
<path d="M45.4485 54.1212C45.1256 53.9545 44.8079 53.8712 44.4902 53.8712C44.0006 53.8712 43.5787 54.0743 43.2193 54.4753C42.8547 54.8816 42.6777 55.3816 42.6777 55.9753V60.3712H41.3235V52.7045H42.6777V53.9337C43.1777 53.017 43.912 52.5587 44.886 52.5587C45.261 52.5587 45.5995 52.6524 45.9068 52.8295L45.4485 54.1212Z" fill="#231F20"/>
<path d="M52.9204 56.7878H47.6704C47.6704 57.5691 47.884 58.1941 48.3162 58.6628C48.7433 59.1368 49.3006 59.3712 49.9829 59.3712C50.7173 59.3712 51.3996 59.142 52.0246 58.6837L52.6287 59.6837C51.8215 60.2409 50.884 60.517 49.8162 60.517C48.7329 60.517 47.8631 60.1524 47.2121 59.4128C46.5558 58.6784 46.2329 57.7201 46.2329 56.5378C46.2329 55.3607 46.5558 54.4024 47.2121 53.6628C47.8631 52.9284 48.7225 52.5587 49.7954 52.5587C50.7798 52.5587 51.5558 52.8712 52.1287 53.4962C52.7121 54.1107 53.0037 54.9284 53.0037 55.9545C53.0037 56.2878 52.9725 56.5691 52.9204 56.7878ZM47.7121 55.6837H51.6496C51.6496 55.0899 51.4829 54.6003 51.1496 54.2253C50.8162 53.8503 50.3475 53.6628 49.7537 53.6628C49.1808 53.6628 48.7121 53.8607 48.3371 54.2462C47.9621 54.6212 47.7537 55.1003 47.7121 55.6837Z" fill="#231F20"/>
<path d="M53.9948 59.7878L54.5989 58.6628C55.3593 59.1368 56.0052 59.3712 56.5364 59.3712C57.3125 59.3712 57.7031 59.0482 57.7031 58.392C57.7031 58.1316 57.6041 57.892 57.4114 57.6837C57.2291 57.4753 56.8489 57.2357 56.2656 56.9545C54.8906 56.3451 54.2031 55.5482 54.2031 54.5587C54.2031 53.9649 54.4218 53.4857 54.8698 53.1212C55.3281 52.7462 55.9323 52.5587 56.6823 52.5587C57.375 52.5587 58.0781 52.7357 58.7864 53.0795L58.3489 54.2253C57.75 53.8816 57.2031 53.7045 56.7031 53.7045C55.9375 53.7045 55.5573 53.9753 55.5573 54.517C55.5573 54.8243 55.7031 55.0899 55.9948 55.3087C56.2864 55.5326 56.6875 55.7618 57.2031 55.9962C57.8802 56.3191 58.3593 56.6524 58.6406 56.9962C58.9323 57.3451 59.0781 57.7826 59.0781 58.3087C59.0781 59.0066 58.8541 59.5482 58.4114 59.9337C57.9635 60.3243 57.3489 60.517 56.5573 60.517C55.5573 60.517 54.7031 60.2774 53.9948 59.7878Z" fill="#231F20"/>
<path d="M60.0227 59.7878L60.6269 58.6628C61.3873 59.1368 62.0331 59.3712 62.5644 59.3712C63.3404 59.3712 63.731 59.0482 63.731 58.392C63.731 58.1316 63.6321 57.892 63.4394 57.6837C63.2571 57.4753 62.8769 57.2357 62.2935 56.9545C60.9185 56.3451 60.231 55.5482 60.231 54.5587C60.231 53.9649 60.4498 53.4857 60.8977 53.1212C61.356 52.7462 61.9602 52.5587 62.7102 52.5587C63.4029 52.5587 64.106 52.7357 64.8144 53.0795L64.3769 54.2253C63.7779 53.8816 63.231 53.7045 62.731 53.7045C61.9654 53.7045 61.5852 53.9753 61.5852 54.517C61.5852 54.8243 61.731 55.0899 62.0227 55.3087C62.3144 55.5326 62.7154 55.7618 63.231 55.9962C63.9081 56.3191 64.3873 56.6524 64.6685 56.9962C64.9602 57.3451 65.106 57.7826 65.106 58.3087C65.106 59.0066 64.8821 59.5482 64.4394 59.9337C63.9915 60.3243 63.3769 60.517 62.5852 60.517C61.5852 60.517 60.731 60.2774 60.0227 59.7878Z" fill="#231F20"/>
<path d="M68.009 52.7045V57.5378C68.009 58.1107 68.1445 58.5586 68.4257 58.892C68.7174 59.2149 69.1132 59.3711 69.6132 59.3711C69.9153 59.3711 70.2434 59.2826 70.5924 59.1003C70.9361 58.9076 71.1965 58.6784 71.3632 58.4128V52.7045H72.7174V60.3711H71.3632V59.4545C70.8476 60.1628 70.1392 60.517 69.2382 60.517C68.4309 60.517 67.7903 60.2461 67.3215 59.7045C66.8632 59.1628 66.634 58.4441 66.634 57.5378V52.7045H68.009Z" fill="#231F20"/>
<path d="M79.0558 54.1212C78.7329 53.9545 78.4152 53.8712 78.0975 53.8712C77.6079 53.8712 77.186 54.0743 76.8266 54.4753C76.462 54.8816 76.285 55.3816 76.285 55.9753V60.3712H74.9308V52.7045H76.285V53.9337C76.785 53.017 77.5193 52.5587 78.4933 52.5587C78.8683 52.5587 79.2068 52.6524 79.5141 52.8295L79.0558 54.1212Z" fill="#231F20"/>
<path d="M82.69 50.6212C82.69 50.8712 82.6067 51.0795 82.44 51.2462C82.2838 51.4024 82.0911 51.4753 81.8567 51.4753C81.6327 51.4753 81.44 51.392 81.2734 51.2253C81.1067 51.0587 81.0234 50.8608 81.0234 50.6212C81.0234 50.4024 81.1067 50.2045 81.2734 50.0378C81.44 49.8712 81.6327 49.7878 81.8567 49.7878C82.0911 49.7878 82.2838 49.8712 82.44 50.0378C82.6067 50.2045 82.69 50.4024 82.69 50.6212ZM81.2734 60.3712V53.8503H79.7317V52.7045H82.6275V60.3712H81.2734Z" fill="#231F20"/>
<path d="M84.1641 59.7878L84.7682 58.6628C85.5286 59.1368 86.1745 59.3712 86.7057 59.3712C87.4818 59.3712 87.8724 59.0482 87.8724 58.392C87.8724 58.1316 87.7734 57.892 87.5807 57.6837C87.3984 57.4753 87.0182 57.2357 86.4349 56.9545C85.0599 56.3451 84.3724 55.5482 84.3724 54.5587C84.3724 53.9649 84.5911 53.4857 85.0391 53.1212C85.4974 52.7462 86.1016 52.5587 86.8516 52.5587C87.5443 52.5587 88.2474 52.7357 88.9557 53.0795L88.5182 54.2253C87.9193 53.8816 87.3724 53.7045 86.8724 53.7045C86.1068 53.7045 85.7266 53.9753 85.7266 54.517C85.7266 54.8243 85.8724 55.0899 86.1641 55.3087C86.4557 55.5326 86.8568 55.7618 87.3724 55.9962C88.0495 56.3191 88.5286 56.6524 88.8099 56.9962C89.1016 57.3451 89.2474 57.7826 89.2474 58.3087C89.2474 59.0066 89.0234 59.5482 88.5807 59.9337C88.1328 60.3243 87.5182 60.517 86.7266 60.517C85.7266 60.517 84.8724 60.2774 84.1641 59.7878Z" fill="#231F20"/>
<path d="M97.0671 56.7878H91.8171C91.8171 57.5691 92.0307 58.1941 92.463 58.6628C92.8901 59.1368 93.4473 59.3712 94.1296 59.3712C94.864 59.3712 95.5463 59.142 96.1713 58.6837L96.7755 59.6837C95.9682 60.2409 95.0307 60.517 93.963 60.517C92.8796 60.517 92.0098 60.1524 91.3588 59.4128C90.7026 58.6784 90.3796 57.7201 90.3796 56.5378C90.3796 55.3607 90.7026 54.4024 91.3588 53.6628C92.0098 52.9284 92.8692 52.5587 93.9421 52.5587C94.9265 52.5587 95.7026 52.8712 96.2755 53.4962C96.8588 54.1107 97.1505 54.9284 97.1505 55.9545C97.1505 56.2878 97.1192 56.5691 97.0671 56.7878ZM91.8588 55.6837H95.7963C95.7963 55.0899 95.6296 54.6003 95.2963 54.2253C94.963 53.8503 94.4942 53.6628 93.9005 53.6628C93.3276 53.6628 92.8588 53.8607 92.4838 54.2462C92.1088 54.6212 91.9005 55.1003 91.8588 55.6837Z" fill="#231F20"/>
<path d="M103.662 60.3712V59.7878C103.204 60.2618 102.506 60.4962 101.579 60.4962C100.621 60.4962 99.8393 60.1524 99.2456 59.4545C98.6466 58.7618 98.3497 57.8503 98.3497 56.7253C98.3497 55.4493 98.6674 54.4337 99.3081 53.6837C99.9435 52.9337 100.787 52.5587 101.829 52.5587C102.621 52.5587 103.23 52.7409 103.662 53.1003V49.5587H105.016V60.3712H103.662ZM103.662 54.3503C103.272 53.9232 102.725 53.7045 102.016 53.7045C101.334 53.7045 100.792 53.9649 100.391 54.4753C99.9851 54.9909 99.7872 55.7149 99.7872 56.642C99.7872 57.4909 99.9799 58.1576 100.371 58.642C100.772 59.1316 101.318 59.3712 102.016 59.3712C102.667 59.3712 103.214 59.1576 103.662 58.7253V54.3503Z" fill="#231F20"/>
<path d="M65.5077 77.0961C65.1327 77.5128 64.7681 77.794 64.4244 77.9295C64.0911 78.0545 63.6744 78.117 63.1744 78.117C62.4088 78.117 61.8202 77.919 61.4036 77.5128C60.9869 77.0961 60.7786 76.5336 60.7786 75.8253C60.7786 75.0232 61.0806 74.3618 61.6952 73.8461C62.3046 73.3201 63.1171 73.0545 64.1327 73.0545C64.6848 73.0545 65.1015 73.0961 65.3827 73.1795C65.3827 72.5128 65.2473 72.0336 64.9869 71.742C64.7369 71.4399 64.3306 71.2836 63.7786 71.2836C63.0702 71.2836 62.4296 71.4868 61.8619 71.8878L61.2369 70.9295C61.8723 70.419 62.7577 70.1586 63.8827 70.1586C64.8827 70.1586 65.6015 70.419 66.0494 70.9295C66.5077 71.4451 66.7369 72.2524 66.7369 73.3461V76.0753C66.7369 76.7315 66.9348 77.1326 67.3411 77.2836V78.0961C66.3098 78.0961 65.7004 77.7628 65.5077 77.0961ZM65.3827 74.1795C65.0911 74.0961 64.6952 74.0545 64.1952 74.0545C63.5546 74.0545 63.0546 74.2159 62.6952 74.5336C62.3306 74.8565 62.1536 75.2784 62.1536 75.8045C62.1536 76.6378 62.5754 77.0545 63.4244 77.0545C64.1848 77.0545 64.8411 76.7315 65.3827 76.0753V74.1795Z" fill="#231F20"/>
<path d="M71.0534 68.2212C71.0534 68.4712 70.9701 68.6795 70.8034 68.8462C70.6472 69.0024 70.4545 69.0753 70.2201 69.0753C69.9961 69.0753 69.8034 68.992 69.6368 68.8253C69.4701 68.6587 69.3868 68.4607 69.3868 68.2212C69.3868 68.0024 69.4701 67.8045 69.6368 67.6378C69.8034 67.4712 69.9961 67.3878 70.2201 67.3878C70.4545 67.3878 70.6472 67.4712 70.8034 67.6378C70.9701 67.8045 71.0534 68.0024 71.0534 68.2212ZM69.6368 77.9712V71.4503H68.0951V70.3045H70.9909V77.9712H69.6368Z" fill="#231F20"/>
<path d="M77.3191 71.7211C76.9962 71.5545 76.6785 71.4711 76.3608 71.4711C75.8712 71.4711 75.4493 71.6743 75.0899 72.0753C74.7253 72.4815 74.5483 72.9815 74.5483 73.5753V77.9711H73.1941V70.3045H74.5483V71.5336C75.0483 70.617 75.7826 70.1586 76.7566 70.1586C77.1316 70.1586 77.4701 70.2524 77.7774 70.4295L77.3191 71.7211Z" fill="#231F20"/>
<path d="M214.39 83.1917H214.057L211.786 77.9208L209.557 83.1917H209.182L206.453 75.3583H207.911L209.599 80.3792L211.64 75.3583H212.015L214.099 80.3792L215.828 75.3583H217.161L214.39 83.1917Z" fill="#231F20"/>
<path d="M222.281 82.1708C221.906 82.5874 221.542 82.8687 221.198 83.0041C220.865 83.1291 220.448 83.1916 219.948 83.1916C219.182 83.1916 218.594 82.9937 218.177 82.5874C217.76 82.1708 217.552 81.6083 217.552 80.8999C217.552 80.0979 217.854 79.4364 218.469 78.9208C219.078 78.3947 219.891 78.1291 220.906 78.1291C221.458 78.1291 221.875 78.1708 222.156 78.2541C222.156 77.5874 222.021 77.1083 221.76 76.8166C221.51 76.5145 221.104 76.3583 220.552 76.3583C219.844 76.3583 219.203 76.5614 218.635 76.9624L218.01 76.0041C218.646 75.4937 219.531 75.2333 220.656 75.2333C221.656 75.2333 222.375 75.4937 222.823 76.0041C223.281 76.5197 223.51 77.327 223.51 78.4208V81.1499C223.51 81.8062 223.708 82.2072 224.115 82.3583V83.1708C223.083 83.1708 222.474 82.8374 222.281 82.1708ZM222.156 79.2541C221.865 79.1708 221.469 79.1291 220.969 79.1291C220.328 79.1291 219.828 79.2906 219.469 79.6083C219.104 79.9312 218.927 80.3531 218.927 80.8791C218.927 81.7124 219.349 82.1291 220.198 82.1291C220.958 82.1291 221.615 81.8062 222.156 81.1499V79.2541Z" fill="#231F20"/>
<path d="M225.848 76.525H224.952V75.3792H225.848V73.775L227.202 73.2542V75.3792H229.473V76.525H227.202V80.3792C227.202 81.4937 227.561 82.0458 228.285 82.0458C228.702 82.0458 229.098 81.9573 229.473 81.775L229.806 82.8375C229.306 83.0719 228.733 83.1917 228.098 83.1917C227.389 83.1917 226.832 82.9729 226.431 82.525C226.04 82.0823 225.848 81.4781 225.848 80.7125V76.525Z" fill="#231F20"/>
<path d="M237.291 79.4624H232.041C232.041 80.2437 232.254 80.8687 232.686 81.3374C233.113 81.8114 233.671 82.0458 234.353 82.0458C235.087 82.0458 235.77 81.8166 236.395 81.3583L236.999 82.3583C236.192 82.9156 235.254 83.1916 234.186 83.1916C233.103 83.1916 232.233 82.827 231.582 82.0874C230.926 81.3531 230.603 80.3947 230.603 79.2124C230.603 78.0354 230.926 77.077 231.582 76.3374C232.233 75.6031 233.093 75.2333 234.166 75.2333C235.15 75.2333 235.926 75.5458 236.499 76.1708C237.082 76.7854 237.374 77.6031 237.374 78.6291C237.374 78.9624 237.343 79.2437 237.291 79.4624ZM232.082 78.3583H236.02C236.02 77.7645 235.853 77.2749 235.52 76.8999C235.186 76.5249 234.718 76.3374 234.124 76.3374C233.551 76.3374 233.082 76.5354 232.707 76.9208C232.332 77.2958 232.124 77.7749 232.082 78.3583Z" fill="#231F20"/>
<path d="M243.156 76.7958C242.834 76.6291 242.516 76.5458 242.198 76.5458C241.709 76.5458 241.287 76.7489 240.927 77.1499C240.563 77.5562 240.386 78.0562 240.386 78.6499V83.0458H239.031V75.3791H240.386V76.6083C240.886 75.6916 241.62 75.2333 242.594 75.2333C242.969 75.2333 243.308 75.327 243.615 75.5041L243.156 76.7958Z" fill="#231F20"/>
<path d="M0.645833 170.12C1.46354 170.662 2.30208 170.932 3.16667 170.932C4.33333 170.932 4.91667 170.578 4.91667 169.87C4.91667 169.547 4.82292 169.328 4.64583 169.203C4.47917 169.089 4.17187 169.037 3.72917 169.037H1.95833C0.875 169.037 0.333333 168.599 0.333333 167.724C0.333333 167.073 0.770833 166.672 1.64583 166.516C0.572917 166.016 0.0416667 165.162 0.0416667 163.953C0.0416667 163.177 0.317708 162.531 0.875 162.016C1.42708 161.49 2.11458 161.224 2.9375 161.224C3.63021 161.224 4.19271 161.38 4.625 161.682L5.5625 160.578L6.5 161.495L5.45833 162.328C5.81771 162.776 6 163.344 6 164.037C6 164.787 5.75521 165.422 5.27083 165.932C4.78125 166.448 4.14583 166.74 3.35417 166.807L2.66667 166.87C1.90104 166.927 1.52083 167.141 1.52083 167.516C1.52083 167.766 1.71875 167.891 2.125 167.891H4C5.5 167.891 6.25 168.495 6.25 169.703C6.25 170.412 5.96875 170.974 5.41667 171.391C4.85937 171.818 4.13021 172.037 3.22917 172.037C1.89583 172.037 0.817708 171.734 0 171.141L0.645833 170.12ZM1.4375 163.953C1.4375 164.537 1.58333 164.995 1.875 165.328C2.16667 165.662 2.56771 165.828 3.08333 165.828C4.08333 165.828 4.58333 165.203 4.58333 163.953C4.58333 163.443 4.44271 163.031 4.16667 162.724C3.88542 162.406 3.51042 162.245 3.04167 162.245C2.54167 162.245 2.14583 162.401 1.85417 162.703C1.57292 163.01 1.4375 163.427 1.4375 163.953Z" fill="#231F20"/>
<path d="M11.8911 162.786C11.5682 162.62 11.2505 162.536 10.9328 162.536C10.4432 162.536 10.0213 162.74 9.66195 163.141C9.29736 163.547 9.12028 164.047 9.12028 164.641V169.036H7.76611V161.37H9.12028V162.599C9.62028 161.682 10.3547 161.224 11.3286 161.224C11.7036 161.224 12.0422 161.318 12.3494 161.495L11.8911 162.786Z" fill="#231F20"/>
<path d="M16.1532 161.224C17.2366 161.224 18.0803 161.573 18.6949 162.266C19.3043 162.964 19.6116 163.932 19.6116 165.182C19.6116 166.406 19.2991 167.38 18.6741 168.099C18.0595 168.823 17.2209 169.182 16.1532 169.182C15.0803 169.182 14.2366 168.828 13.6116 168.12C12.9866 167.401 12.6741 166.422 12.6741 165.182C12.6741 164.016 12.9918 163.068 13.6324 162.328C14.2678 161.594 15.1116 161.224 16.1532 161.224ZM16.1532 168.078C16.7782 168.078 17.2678 167.823 17.6324 167.307C17.9918 166.781 18.1741 166.073 18.1741 165.182C18.1741 163.281 17.497 162.328 16.1532 162.328C15.5387 162.328 15.0491 162.578 14.6741 163.078C14.2991 163.578 14.1116 164.281 14.1116 165.182C14.1116 167.115 14.7887 168.078 16.1532 168.078Z" fill="#231F20"/>
<path d="M22.6436 161.37V166.203C22.6436 166.776 22.779 167.224 23.0602 167.557C23.3519 167.88 23.7477 168.037 24.2477 168.037C24.5498 168.037 24.8779 167.948 25.2269 167.766C25.5706 167.573 25.8311 167.344 25.9977 167.078V161.37H27.3519V169.037H25.9977V168.12C25.4821 168.828 24.7738 169.182 23.8727 169.182C23.0654 169.182 22.4248 168.912 21.9561 168.37C21.4977 167.828 21.2686 167.109 21.2686 166.203V161.37H22.6436Z" fill="#231F20"/>
<path d="M34.2735 169.037V164.203C34.2735 163.636 34.1277 163.193 33.836 162.87C33.5548 162.537 33.1694 162.37 32.6694 162.37C32.3621 162.37 32.0339 162.469 31.6902 162.662C31.3412 162.844 31.086 163.068 30.9194 163.328V169.037H29.5652V161.37H30.4819L30.9194 162.287C31.4454 161.578 32.1537 161.224 33.0444 161.224C33.8464 161.224 34.4819 161.495 34.9402 162.037C35.4089 162.568 35.6485 163.287 35.6485 164.203V169.037H34.2735Z" fill="#231F20"/>
<path d="M42.6327 169.037V168.453C42.1744 168.927 41.4764 169.162 40.5494 169.162C39.591 169.162 38.8098 168.818 38.216 168.12C37.6171 167.427 37.3202 166.516 37.3202 165.391C37.3202 164.115 37.6379 163.099 38.2785 162.349C38.9139 161.599 39.7577 161.224 40.7994 161.224C41.591 161.224 42.2004 161.406 42.6327 161.766V158.224H43.9869V169.037H42.6327ZM42.6327 163.016C42.2421 162.589 41.6952 162.37 40.9869 162.37C40.3046 162.37 39.7629 162.63 39.3619 163.141C38.9556 163.656 38.7577 164.38 38.7577 165.307C38.7577 166.156 38.9504 166.823 39.341 167.307C39.7421 167.797 40.2889 168.037 40.9869 168.037C41.6379 168.037 42.1848 167.823 42.6327 167.391V163.016Z" fill="#231F20"/>
<path d="M304.709 222.048H303.813V220.902H304.709V219.298L306.063 218.777V220.902H308.334V222.048H306.063V225.902C306.063 227.016 306.422 227.568 307.146 227.568C307.563 227.568 307.959 227.48 308.334 227.298L308.667 228.36C308.167 228.595 307.594 228.714 306.959 228.714C306.25 228.714 305.693 228.496 305.292 228.048C304.902 227.605 304.709 227.001 304.709 226.235V222.048Z" fill="#231F20"/>
<path d="M312.943 220.756C314.027 220.756 314.87 221.105 315.485 221.798C316.094 222.496 316.402 223.464 316.402 224.714C316.402 225.938 316.089 226.912 315.464 227.631C314.85 228.355 314.011 228.714 312.943 228.714C311.87 228.714 311.027 228.36 310.402 227.652C309.777 226.933 309.464 225.954 309.464 224.714C309.464 223.548 309.782 222.6 310.422 221.86C311.058 221.126 311.902 220.756 312.943 220.756ZM312.943 227.61C313.568 227.61 314.058 227.355 314.422 226.839C314.782 226.313 314.964 225.605 314.964 224.714C314.964 222.813 314.287 221.86 312.943 221.86C312.329 221.86 311.839 222.11 311.464 222.61C311.089 223.11 310.902 223.813 310.902 224.714C310.902 226.647 311.579 227.61 312.943 227.61Z" fill="#231F20"/>
<path d="M326.457 227.694C326.082 228.11 325.717 228.391 325.374 228.527C325.04 228.652 324.624 228.714 324.124 228.714C323.358 228.714 322.769 228.516 322.353 228.11C321.936 227.694 321.728 227.131 321.728 226.423C321.728 225.621 322.03 224.959 322.644 224.444C323.254 223.918 324.066 223.652 325.082 223.652C325.634 223.652 326.051 223.694 326.332 223.777C326.332 223.11 326.197 222.631 325.936 222.339C325.686 222.037 325.28 221.881 324.728 221.881C324.019 221.881 323.379 222.084 322.811 222.485L322.186 221.527C322.822 221.016 323.707 220.756 324.832 220.756C325.832 220.756 326.551 221.016 326.999 221.527C327.457 222.043 327.686 222.85 327.686 223.944V226.673C327.686 227.329 327.884 227.73 328.29 227.881V228.694C327.259 228.694 326.65 228.36 326.457 227.694ZM326.332 224.777C326.04 224.694 325.644 224.652 325.144 224.652C324.504 224.652 324.004 224.813 323.644 225.131C323.28 225.454 323.103 225.876 323.103 226.402C323.103 227.235 323.525 227.652 324.374 227.652C325.134 227.652 325.79 227.329 326.332 226.673V224.777Z" fill="#231F20"/>
<path d="M332.003 218.819C332.003 219.069 331.919 219.277 331.753 219.444C331.597 219.6 331.404 219.673 331.169 219.673C330.945 219.673 330.753 219.589 330.586 219.423C330.419 219.256 330.336 219.058 330.336 218.819C330.336 218.6 330.419 218.402 330.586 218.235C330.753 218.069 330.945 217.985 331.169 217.985C331.404 217.985 331.597 218.069 331.753 218.235C331.919 218.402 332.003 218.6 332.003 218.819ZM330.586 228.569V222.048H329.044V220.902H331.94V228.569H330.586Z" fill="#231F20"/>
<path d="M338.268 222.319C337.945 222.152 337.628 222.069 337.31 222.069C336.82 222.069 336.399 222.272 336.039 222.673C335.675 223.079 335.497 223.579 335.497 224.173V228.569H334.143V220.902H335.497V222.131C335.997 221.214 336.732 220.756 337.706 220.756C338.081 220.756 338.419 220.85 338.727 221.027L338.268 222.319Z" fill="#231F20"/>
<path d="M345.28 231.569H343.926V220.902H345.28V221.464C345.791 220.996 346.494 220.756 347.384 220.756C348.353 220.756 349.134 221.11 349.718 221.819C350.301 222.516 350.593 223.418 350.593 224.527C350.593 225.819 350.27 226.839 349.634 227.589C348.994 228.329 348.155 228.694 347.114 228.694C346.28 228.694 345.666 228.516 345.28 228.152V231.569ZM345.28 226.944C345.707 227.36 346.259 227.569 346.926 227.569C347.603 227.569 348.145 227.313 348.551 226.798C348.952 226.272 349.155 225.548 349.155 224.631C349.155 223.772 348.957 223.1 348.572 222.61C348.181 222.126 347.624 221.881 346.905 221.881C346.249 221.881 345.707 222.1 345.28 222.527V226.944Z" fill="#231F20"/>
<path d="M353.622 220.902V225.735C353.622 226.308 353.757 226.756 354.038 227.089C354.33 227.412 354.726 227.568 355.226 227.568C355.528 227.568 355.856 227.48 356.205 227.298C356.549 227.105 356.809 226.876 356.976 226.61V220.902H358.33V228.568H356.976V227.652C356.46 228.36 355.752 228.714 354.851 228.714C354.043 228.714 353.403 228.443 352.934 227.902C352.476 227.36 352.247 226.641 352.247 225.735V220.902H353.622Z" fill="#231F20"/>
<path d="M369.418 228.569V223.714C369.418 222.506 368.924 221.902 367.939 221.902C367.34 221.902 366.804 222.23 366.335 222.881V228.569H364.981V223.589C364.981 222.464 364.512 221.902 363.585 221.902C363.262 221.902 362.944 222.001 362.627 222.194C362.304 222.391 362.064 222.626 361.898 222.902V228.569H360.543V220.902H361.46L361.877 221.798C362.418 221.105 363.132 220.756 364.023 220.756C364.939 220.756 365.616 221.1 366.064 221.777C366.689 221.1 367.486 220.756 368.46 220.756C369.168 220.756 369.731 220.996 370.148 221.464C370.564 221.938 370.773 222.6 370.773 223.444V228.569H369.418Z" fill="#231F20"/>
<path d="M374.261 231.569H372.907V220.902H374.261V221.464C374.772 220.996 375.475 220.756 376.366 220.756C377.334 220.756 378.116 221.11 378.699 221.819C379.282 222.516 379.574 223.418 379.574 224.527C379.574 225.819 379.251 226.839 378.616 227.589C377.975 228.329 377.136 228.694 376.095 228.694C375.261 228.694 374.647 228.516 374.261 228.152V231.569ZM374.261 226.944C374.688 227.36 375.241 227.569 375.907 227.569C376.584 227.569 377.126 227.313 377.532 226.798C377.933 226.272 378.136 225.548 378.136 224.631C378.136 223.772 377.938 223.1 377.553 222.61C377.162 222.126 376.605 221.881 375.886 221.881C375.23 221.881 374.688 222.1 374.261 222.527V226.944Z" fill="#231F20"/>
</svg>
