<svg width="294" height="251" viewBox="0 0 294 251" fill="none" xmlns="http://www.w3.org/2000/svg">
<path d="M60.853 11.5332L60.8397 10.9999L60.7997 10.4666L60.733 9.93322L60.6397 9.41329L60.533 8.90662L60.3863 8.41329L60.2264 7.91989L60.0263 7.43991L59.8263 6.97328L59.5863 6.51991L59.333 6.07998L59.0663 5.6533L58.773 5.23997L58.453 4.83991L58.1197 4.45328L57.773 4.09325L57.413 3.74666L57.0264 3.41333L56.6264 3.09326L56.213 2.79997L55.7864 2.53329L55.3464 2.27995L54.8931 2.03996L54.4264 1.83993L53.9464 1.63998L53.4664 1.47999L52.9597 1.33334L52.4531 1.22665L51.9331 1.13331L51.3997 1.06666L50.8664 1.02662L50.3331 1.00001C44.5198 1.00001 39.7998 5.71993 39.7998 11.5332C39.7998 17.3465 44.5198 22.0665 50.3331 22.0665C56.1464 22.0665 60.853 17.3465 60.853 11.5332Z" fill="white"/>
<path fill-rule="evenodd" clip-rule="evenodd" d="M60.853 11.5332L60.8397 10.9999L60.7997 10.4666L60.733 9.93322L60.6397 9.41329L60.533 8.90662L60.3863 8.41329L60.2264 7.91989L60.0263 7.43991L59.8263 6.97328L59.5863 6.51991L59.333 6.07998L59.0663 5.6533L58.773 5.23997L58.453 4.83991L58.1197 4.45328L57.773 4.09325L57.413 3.74666L57.0264 3.41333L56.6264 3.09326L56.213 2.79997L55.7864 2.53329L55.3464 2.27995L54.8931 2.03996L54.4264 1.83993L53.9464 1.63998L53.4664 1.47999L52.9597 1.33334L52.4531 1.22665L51.9331 1.13331L51.3997 1.06666L50.8664 1.02662L50.3331 1.00001C44.5198 1.00001 39.7998 5.71993 39.7998 11.5332C39.7998 17.3465 44.5198 22.0665 50.3331 22.0665C56.1464 22.0665 60.853 17.3465 60.853 11.5332Z" stroke="black" stroke-width="1.33332" stroke-miterlimit="10.433" stroke-dasharray="5.51 2.75"/>
<path d="M173.986 35.0798V238.225" stroke="black" stroke-width="1.33332" stroke-miterlimit="10.433"/>
<path d="M170.266 37.7198L174.146 23.2665L178.026 37.7198H170.266Z" fill="black"/>
<path d="M170.266 235.585L174.146 250.038L178.026 235.585H170.266Z" fill="black"/>
<path d="M0 250.132H293.505" stroke="black" stroke-width="1.33332" stroke-miterlimit="10.433"/>
<path fill-rule="evenodd" clip-rule="evenodd" d="M60.853 87.5728L60.8397 87.0261L60.7997 86.4928L60.733 85.9594L60.6397 85.4528L60.533 84.9327L60.3863 84.4394L60.2264 83.9461L60.0263 83.4661L59.8263 82.9995L59.5863 82.5461L59.333 82.1061L59.0663 81.6794L58.773 81.2661L58.453 80.8795L58.1197 80.4928L57.773 80.1195L57.413 79.7728L57.0264 79.4528L56.6264 79.1328L56.213 78.8394L55.7864 78.5728L55.3464 78.3195L54.8931 78.0795L54.4264 77.8661L53.9464 77.6795L53.4664 77.5195L52.9597 77.3728L52.4531 77.2528L51.9331 77.1595L51.3997 77.0928L50.8664 77.0528L50.3331 77.0395C44.5198 77.0395 39.7998 81.7595 39.7998 87.5728C39.7998 93.3861 44.5198 98.0927 50.3331 98.0927C56.1464 98.0927 60.853 93.3861 60.853 87.5728Z" stroke="black" stroke-width="1.33332" stroke-miterlimit="10.433"/>
<path d="M106.546 110.986V238.532" stroke="black" stroke-width="1.33332" stroke-miterlimit="10.433"/>
<path d="M102.839 113.626L106.706 99.1726L110.586 113.626H102.839Z" fill="black"/>
<path d="M102.839 235.892L106.706 250.345L110.586 235.892H102.839Z" fill="black"/>
<path d="M50.333 23.5732V62.2929" stroke="black" stroke-width="1.33332" stroke-miterlimit="10.433"/>
<path d="M46.6265 59.6529L50.4931 74.1061L54.3731 59.6529H46.6265Z" fill="black"/>
<path d="M187.639 22.6666H63.8931" stroke="black" stroke-width="1.33332" stroke-miterlimit="10.433"/>
<path d="M119.386 98.0927H63.8931" stroke="black" stroke-width="1.33332" stroke-miterlimit="10.433"/>
<path d="M87.7461 182.252H130.546V158.412H87.7461V182.252Z" fill="white"/>
<path d="M152.866 146.172H195.665V122.946H152.866V146.172Z" fill="white"/>
<text fill="black" xml:space="preserve" style="white-space: pre" font-family="Trebuchet MS" font-size="14.6666" letter-spacing="0em"><tspan x="90.2622" y="173.931">4.0</tspan></text>
<text fill="black" xml:space="preserve" style="white-space: pre" font-family="Trebuchet MS" font-size="14.6666" letter-spacing="0em"><tspan x="114.158" y="173.931">m</tspan></text>
<text fill="black" xml:space="preserve" style="white-space: pre" font-family="Trebuchet MS" font-size="14.6666" letter-spacing="0em"><tspan x="156.408" y="138.558">6.0</tspan></text>
<text fill="black" xml:space="preserve" style="white-space: pre" font-family="Trebuchet MS" font-size="14.6666" letter-spacing="0em"><tspan x="180.304" y="138.558">m</tspan></text>
<text fill="black" xml:space="preserve" style="white-space: pre" font-family="Trebuchet MS" font-size="14.6666" letter-spacing="0em"><tspan x="248.065" y="238.184">gr</tspan></text>
<text fill="black" xml:space="preserve" style="white-space: pre" font-family="Trebuchet MS" font-size="14.6666" letter-spacing="0em"><tspan x="260.692" y="238.184">ound</tspan></text>
</svg>
