<svg width="454" height="113" viewBox="0 0 454 113" fill="none" xmlns="http://www.w3.org/2000/svg">
<path d="M254.118 72.0768L254.065 74.1302L253.905 76.1568L253.652 78.1568L253.305 80.1168L252.852 82.0501L252.318 83.9434L251.692 85.7968L250.972 87.6101L250.172 89.3834L249.292 91.1034L248.332 92.77L247.292 94.3967L246.185 95.9567L244.998 97.4634L243.745 98.9166L242.425 100.303L241.038 101.623L239.585 102.877L238.078 104.063L236.518 105.17L234.892 106.21L233.225 107.17L231.505 108.05L229.732 108.85L227.919 109.57L226.065 110.197L224.172 110.73L222.252 111.183L220.279 111.53L218.279 111.783L216.252 111.943L214.199 111.983C192.159 111.983 174.292 94.1167 174.292 72.0768C174.292 50.037 192.159 32.1571 214.199 32.1571C236.238 32.1571 254.118 50.037 254.118 72.0768Z" fill="white"/>
<path d="M215.065 36.237L215.105 36.2771L215.159 36.3038L215.199 36.3437L215.239 36.3704L215.332 36.4504L215.412 36.5304L215.505 36.6104L215.599 36.6904L215.639 36.7304L215.692 36.7571L215.745 36.7971L215.799 36.8237L215.852 36.8637L215.905 36.8904L215.959 36.917L216.025 36.9437L216.079 36.9571L216.145 36.9837H216.212L216.279 36.997H216.359H216.399H216.439H216.479H216.519H216.559L216.599 36.9837H216.639L216.692 36.9704L216.732 36.9571L216.785 36.9437L216.825 36.9304L216.879 36.917L216.932 36.9037L216.972 36.8904C217.065 36.0904 217.132 35.4638 217.212 34.7838C218.105 34.5438 218.039 35.6771 218.599 35.6238C218.959 36.5571 218.372 36.9437 217.892 37.397C218.865 37.9437 218.652 39.2238 219.439 39.8904C218.479 40.1971 219.025 41.3704 218.212 41.8637C217.839 38.7571 214.705 39.5571 213.052 38.1971C213.719 37.5437 214.385 36.9037 215.065 36.237Z" fill="#999999"/>
<path d="M238.092 83.9967V80.8902C236.465 78.5168 232.972 78.0368 232.159 74.7968C230.372 74.8502 228.639 74.5569 227.252 73.2235C226.092 73.2235 224.919 73.2235 223.839 73.2235C223.132 73.9702 222.305 74.4768 222.612 75.4368C221.399 75.8901 221.039 74.7568 220.345 74.5968C219.812 74.9435 219.412 75.1835 219.012 75.4368C218.719 75.1568 218.439 74.8768 218.012 74.4502V70.6501C217.225 69.0635 215.932 69.1702 214.879 68.9435C214.025 67.3302 215.225 65.9969 215.545 64.6369C214.439 64.0769 213.519 64.3435 212.612 64.3435C212.119 65.0635 212.025 66.0502 211.172 66.5702C210.105 66.8368 209.065 66.9569 208.332 65.1436V58.9836C209.719 58.0502 211.599 58.317 212.972 57.717C214.785 56.917 216.079 57.2503 217.705 58.1436C218.212 59.0636 217.545 61.0636 219.892 61.0902C221.399 59.3436 218.505 57.8369 219.505 56.0769C220.879 54.4769 222.679 53.0636 222.732 50.6503C222.745 49.8369 223.452 49.557 223.892 49.1303C224.652 48.4104 225.252 47.637 225.559 46.6503C225.865 46.9303 226.159 47.197 226.559 47.557C227.425 47.1304 228.305 46.6903 229.199 46.2637V45.0237C228.665 44.877 228.532 45.3837 227.905 45.7436C227.519 45.197 226.639 44.957 226.772 43.8637C227.359 42.9304 228.212 43.757 228.719 43.397C229.452 43.957 229.079 44.5304 229.199 45.037C230.079 44.6637 230.692 45.6637 231.585 45.6103C231.839 43.477 228.959 43.2903 229.119 41.3437C225.745 40.0904 223.625 38.077 220.919 34.5837C223.279 35.5971 226.919 37.9304 228.892 38.8771C229.332 37.5704 226.959 35.7571 226.305 34.5971C225.959 33.9837 223.359 33.2637 223.212 32.6504C221.745 32.2771 220.292 31.8105 218.705 32.1305C217.892 32.2905 216.852 32.5304 216.119 31.6238C215.719 31.1305 214.959 31.2104 214.639 31.4104C211.972 33.1437 208.652 31.2104 206.025 32.9837C204.972 32.9571 203.972 33.1037 202.999 33.3171C202.879 33.4371 202.759 33.5571 202.625 33.6637C200.999 35.0237 199.959 36.8904 198.412 38.3437C198.945 40.1304 197.945 41.5304 197.079 43.0237C197.145 43.1304 197.279 43.317 197.572 43.7303C196.625 45.637 195.599 47.677 194.479 49.9036C195.199 50.7969 195.612 51.9969 195.199 53.4903C195.839 53.9436 196.492 54.4102 196.932 54.7302C196.852 58.2236 196.959 61.3036 199.785 63.4769C200.412 62.8369 200.239 62.3169 199.652 61.7969C199.185 61.3703 199.212 60.8902 199.599 60.4102C201.372 62.3035 201.599 62.8102 201.759 65.2769C202.945 67.4369 205.319 68.2636 207.092 69.8902C207.905 69.9836 208.825 70.0502 209.479 69.0768C210.879 71.0635 212.999 72.0235 215.132 72.9835C215.865 73.6635 215.252 74.5968 215.559 75.2635C217.212 75.5701 217.585 77.5968 219.332 77.7301C219.692 77.3701 220.172 76.8901 220.799 76.2635C221.479 77.7035 220.905 79.1435 221.159 80.4368C220.359 81.6501 220.012 83.1035 218.599 83.9701V86.7701H217.839C217.799 87.2634 217.759 87.9034 217.719 88.57C218.239 89.2367 218.759 89.8767 219.439 90.7434C219.519 92.3034 219.932 94.25 221.025 96.0767C220.972 96.13 220.905 96.1967 220.839 96.2633C220.945 96.8367 220.959 97.4233 220.919 98.01C221.452 98.13 222.132 97.9033 222.785 98.33C221.785 101.823 219.959 104.863 217.545 107.757H217.265C217.012 108.37 216.665 108.957 216.252 109.463C216.292 109.57 216.332 109.663 216.385 109.77C216.119 109.89 215.852 110.023 215.585 110.143C215.519 110.197 215.465 110.25 215.399 110.303C215.265 110.637 215.105 110.97 214.919 111.29C214.932 111.583 214.932 111.837 214.945 111.983C215.265 111.97 215.519 111.957 215.625 111.93C217.372 111.623 218.825 111.157 220.319 110.263C220.505 110.103 220.665 109.93 220.852 109.77C220.452 109.663 220.052 109.53 219.639 109.397H221.279C222.172 108.703 223.119 108.157 224.079 107.73C224.145 107.677 224.212 107.637 224.265 107.597H222.985C228.265 105.343 231.932 101.81 236.505 98.6767C236.785 97.53 237.478 96.53 238.385 95.77C240.118 93.81 242.358 92.3033 242.918 89.9834C242.798 86.49 239.638 85.9567 238.092 83.9967Z" fill="#999999"/>
<path d="M217.665 63.9969H217.785H217.905H218.025L218.145 64.0102H218.265L218.372 64.0369L218.585 64.0769L218.799 64.1169L218.999 64.1836L219.185 64.2636L219.372 64.3436L219.545 64.4369L219.719 64.5302L219.892 64.6369L220.052 64.7435L220.372 64.9569L220.679 65.1702L220.825 65.2769L220.972 65.3836L221.132 65.4769L221.279 65.5569L221.439 65.6369L221.599 65.7169L221.759 65.7702L221.932 65.8235L222.092 65.8636L222.279 65.8769L222.359 65.8903H222.452L222.545 65.8769H222.652L222.745 65.8636L222.852 65.8369L222.945 65.8235L223.052 65.7969L223.159 65.7569L223.265 65.7169L223.385 65.6769L223.492 65.6369C222.052 63.7036 220.319 62.4769 217.812 62.7036C217.585 62.7303 217.385 62.9169 217.105 63.0635C217.132 63.3969 217.172 63.7436 217.212 64.1036C217.585 64.2502 217.732 64.0769 217.665 63.9969Z" fill="#999999"/>
<path d="M223.999 66.8635H224.012V66.8502H224.025V66.8368L224.039 66.8235L224.052 66.8102L224.065 66.7969L224.079 66.7835L224.092 66.7702L224.105 66.7568L224.119 66.7301L224.132 66.7169L224.172 66.6768L224.212 66.6235L224.265 66.5835L224.305 66.5302L224.359 66.4769L224.425 66.4235L224.479 66.3702L224.545 66.3168L224.612 66.2635L224.679 66.2102L224.745 66.1568L224.812 66.1169L224.892 66.0635L224.972 66.0235L225.039 65.9835L225.119 65.9435L225.199 65.9168L225.279 65.8902L225.359 65.8635H225.399L225.439 65.8502H225.479L225.519 65.8368H225.559H225.599H225.638L225.678 65.8502H225.718L225.758 65.8635L225.798 65.8769L225.838 65.8902C226.678 66.1835 229.278 66.6369 229.278 67.4769C229.278 68.3169 227.492 67.6369 226.825 67.4769C226.145 67.3302 224.519 68.1168 223.999 66.8635Z" fill="#999999"/>
<path fill-rule="evenodd" clip-rule="evenodd" d="M254.118 72.0768L254.065 74.1302L253.905 76.1568L253.652 78.1568L253.305 80.1168L252.852 82.0501L252.318 83.9434L251.692 85.7968L250.972 87.6101L250.172 89.3834L249.292 91.1034L248.332 92.77L247.292 94.3967L246.185 95.9567L244.998 97.4634L243.745 98.9166L242.425 100.303L241.038 101.623L239.585 102.877L238.078 104.063L236.518 105.17L234.892 106.21L233.225 107.17L231.505 108.05L229.732 108.85L227.919 109.57L226.065 110.197L224.172 110.73L222.252 111.183L220.279 111.53L218.279 111.783L216.252 111.943L214.199 111.983C192.159 111.983 174.292 94.1167 174.292 72.0768C174.292 50.037 192.159 32.1571 214.199 32.1571C236.238 32.1571 254.118 50.037 254.118 72.0768Z" stroke="black" stroke-width="1.33332" stroke-miterlimit="10.433"/>
<path d="M251.665 58.2903C252.452 58.317 253.225 58.3569 253.998 58.3969" stroke="black" stroke-width="0.666662" stroke-miterlimit="10.433"/>
<path d="M257.292 58.5702L261.145 58.7836L264.905 59.0236L268.598 59.2769L272.211 59.557L275.745 59.8503L279.185 60.1569L282.531 60.477L285.785 60.8103L288.958 61.1702L292.011 61.5436L294.971 61.9169L297.825 62.3169L300.571 62.7302L303.198 63.1569L305.718 63.5969L308.118 64.0503L310.398 64.5035L312.558 64.9835L314.585 65.4636L316.478 65.9569L318.238 66.4636L319.865 66.9835L321.344 67.5035L322.691 68.0502L323.878 68.5835L324.931 69.1436L325.824 69.7035L326.558 70.2635L327.144 70.8368L327.558 71.4235L327.811 72.0102L327.904 72.5968C327.904 80.9701 277.358 87.73 215.012 87.73C152.666 87.73 102.133 80.9701 102.133 72.5968C102.133 66.2502 131.332 60.8102 172.719 58.5702" stroke="black" stroke-width="0.666662" stroke-miterlimit="10.433" stroke-dasharray="4.62 3.3"/>
<path d="M174.372 58.477C175.146 58.437 175.932 58.397 176.706 58.3703" stroke="black" stroke-width="0.666662" stroke-miterlimit="10.433"/>
<path d="M250.345 55.1303C251.132 55.1436 251.905 55.1703 252.678 55.197" stroke="black" stroke-width="0.666662" stroke-miterlimit="10.433"/>
<path d="M256.025 55.3037L262.518 55.5437L268.905 55.8236L275.171 56.1437L281.305 56.477L287.305 56.8503L293.171 57.2636L298.891 57.7036L304.465 58.1703L309.891 58.6636L315.145 59.1836L320.238 59.7302L325.145 60.3169L329.878 60.9169L334.424 61.5436L338.784 62.1836L342.931 62.8636L346.878 63.557L350.624 64.2769L354.144 65.0102L357.451 65.7702L360.518 66.5436L363.358 67.3436L365.944 68.1569L368.304 68.9835L370.398 69.8235L372.224 70.6902L373.798 71.5569L375.091 72.4502L376.118 73.3435L376.851 74.2502L377.291 75.1702L377.451 76.1035C377.451 87.9834 304.665 97.61 214.879 97.61C125.092 97.61 52.3196 87.9834 52.3196 76.1035C52.3196 66.1036 104.026 57.6903 174.025 55.3037" stroke="black" stroke-width="0.666662" stroke-miterlimit="10.433" stroke-dasharray="4.69 3.35"/>
<path d="M175.706 55.2369C176.479 55.2103 177.266 55.1836 178.039 55.1703" stroke="black" stroke-width="0.666662" stroke-miterlimit="10.433"/>
<path d="M249.318 53.0904C250.092 53.1037 250.878 53.1304 251.652 53.1437" stroke="black" stroke-width="0.666662" stroke-miterlimit="10.433"/>
<path d="M254.985 53.2237L264.198 53.477L273.252 53.7836L282.158 54.1437L290.891 54.5436L299.438 54.9969L307.798 55.5036L315.971 56.0503L323.931 56.637L331.665 57.2636L339.184 57.9436L346.478 58.6502L353.518 59.3969L360.304 60.1969L366.824 61.0236L373.078 61.8769L379.051 62.7702L384.744 63.7036L390.131 64.6635L395.198 65.6502L399.957 66.6769L404.384 67.7169L408.477 68.7969L412.224 69.8902L415.624 71.0235L418.651 72.1702L421.304 73.3301L423.584 74.5302L425.464 75.7301L426.931 76.9568L427.997 78.2102L428.651 79.4635L428.864 80.7434C428.864 96.2233 333.091 108.757 214.932 108.757C96.7727 108.757 1 96.2233 1 80.7434C1 67.0502 76.1062 55.637 175.346 53.2103" stroke="black" stroke-width="0.666662" stroke-miterlimit="10.433" stroke-dasharray="4.66 3.33"/>
<path d="M177.012 53.1703C177.786 53.1436 178.559 53.1303 179.346 53.117" stroke="black" stroke-width="0.666662" stroke-miterlimit="10.433"/>
<path d="M331.718 72.5969V72.7969L331.705 72.9969L331.678 73.1836L331.638 73.3702L331.598 73.5569L331.545 73.7435L331.491 73.9169L331.411 74.0902L331.344 74.2635L331.251 74.4235L331.171 74.5835L331.064 74.7435L330.958 74.8902L330.851 75.0369L330.731 75.1702L330.598 75.3036L330.464 75.4235L330.331 75.5436L330.184 75.6635L330.038 75.7702L329.878 75.8635L329.718 75.9569L329.558 76.0502L329.384 76.1169L329.211 76.1835L329.038 76.2502L328.851 76.3036L328.665 76.3435L328.478 76.3836L328.291 76.3968L328.091 76.4102L327.905 76.4235C325.785 76.4235 324.078 74.7169 324.078 72.5969C324.078 70.4902 325.785 68.7836 327.905 68.7836C330.011 68.7836 331.718 70.4902 331.718 72.5969Z" fill="black"/>
<path fill-rule="evenodd" clip-rule="evenodd" d="M381.998 76.4235L381.984 76.6235L381.971 76.8102L381.944 76.9968L381.918 77.1835L381.878 77.3702L381.824 77.5568L381.758 77.7301L381.691 77.9034L381.611 78.0768L381.531 78.2368L381.438 78.3968L381.344 78.5568L381.238 78.7035L381.118 78.8501L380.998 78.9834L380.878 79.1168L380.744 79.2368L380.611 79.3568L380.464 79.4768L380.318 79.5834L380.158 79.6768L379.998 79.7701L379.838 79.8635L379.664 79.9301L379.491 79.9968L379.318 80.0634L379.131 80.1168L378.944 80.1568L378.758 80.1968L378.571 80.2101L378.371 80.2235L378.184 80.2368C376.078 80.2368 374.358 78.5301 374.358 76.4235C374.358 74.3168 376.078 72.5968 378.184 72.5968C380.291 72.5968 381.998 74.3168 381.998 76.4235Z" stroke="black" stroke-width="0.333331" stroke-miterlimit="10.433"/>
<path d="M381.611 76.4235L381.598 76.6235L381.584 76.8102L381.558 76.9968L381.531 77.1835L381.491 77.3702L381.438 77.5568L381.371 77.7301L381.304 77.9034L381.238 78.0768L381.144 78.2368L381.051 78.3968L380.958 78.5568L380.851 78.7035L380.731 78.8501L380.611 78.9834L380.491 79.1168L380.358 79.2368L380.224 79.3568L380.078 79.4768L379.931 79.5834L379.771 79.6768L379.611 79.7701L379.451 79.8635L379.278 79.9301L379.104 79.9968L378.931 80.0634L378.744 80.1168L378.558 80.1568L378.371 80.1968L378.184 80.2101L377.984 80.2235L377.784 80.2368C375.678 80.2368 373.971 78.5301 373.971 76.4235C373.971 74.3168 375.678 72.5968 377.784 72.5968C379.904 72.5968 381.611 74.3168 381.611 76.4235Z" fill="black"/>
<path d="M431.504 80.2367L431.491 80.4368L431.477 80.6235L431.451 80.8101L431.424 81.0101L431.371 81.1834L431.331 81.3701L431.264 81.5435L431.197 81.7168L431.117 81.8901L431.037 82.0501L430.944 82.2101L430.851 82.3701L430.744 82.5168L430.624 82.6634L430.504 82.7968L430.384 82.9301L430.251 83.0634L430.104 83.1834L429.971 83.2901L429.811 83.3967L429.664 83.5034L429.504 83.5967L429.331 83.6767L429.171 83.7567L428.997 83.8234L428.811 83.8768L428.637 83.9301L428.451 83.9701L428.264 84.0101L428.064 84.0368L427.877 84.0501H427.677C425.571 84.0501 423.864 82.3434 423.864 80.2367C423.864 78.1301 425.571 76.4234 427.677 76.4234C429.784 76.4234 431.504 78.1301 431.504 80.2367Z" fill="black"/>
<path d="M233.052 36.5037L246.932 16.0772" stroke="black" stroke-width="0.666662" stroke-miterlimit="10.433"/>
<path d="M327.905 71.5302L341.811 51.037" stroke="black" stroke-width="0.666662" stroke-miterlimit="10.433"/>
<path d="M379.478 74.0901L394.117 52.8636" stroke="black" stroke-width="0.666662" stroke-miterlimit="10.433"/>
<path d="M429.93 76.8768L446.904 53.3169" stroke="black" stroke-width="0.666662" stroke-miterlimit="10.433"/>
<text fill="black" xml:space="preserve" style="white-space: pre" font-family="Trebuchet MS" font-size="14.6666" letter-spacing="0em"><tspan x="1.15991" y="13.7565">not to scale</tspan></text>
<text fill="black" xml:space="preserve" style="white-space: pre" font-family="Trebuchet MS" font-size="14.6666" letter-spacing="0em"><tspan x="246.957" y="13.7565">Earth</tspan></text>
<text fill="black" xml:space="preserve" style="white-space: pre" font-family="Trebuchet MS" font-size="14.6666" letter-spacing="0em"><tspan x="340.744" y="47.583">X</tspan></text>
<text fill="black" xml:space="preserve" style="white-space: pre" font-family="Trebuchet MS" font-size="14.6666" letter-spacing="0em"><tspan x="392.344" y="48.7029">Y</tspan></text>
<text fill="black" xml:space="preserve" style="white-space: pre" font-family="Trebuchet MS" font-size="14.6666" letter-spacing="0em"><tspan x="444.757" y="47.7696">Z</tspan></text>
</svg>
