<svg width="30" height="36" viewBox="0 0 30 36" fill="none" xmlns="http://www.w3.org/2000/svg">
<path d="M0.35 35V-2.38419e-06H16.2C18.4667 -2.38419e-06 20.5 0.483332 22.3 1.45C24.1 2.41667 25.5167 3.75 26.55 5.45C27.6167 7.11667 28.15 9.03333 28.15 11.2C28.15 13.4 27.6167 15.3667 26.55 17.1C25.5167 18.8333 24.1 20.2167 22.3 21.25C20.5 22.25 18.4667 22.75 16.2 22.75H8.5V35H0.35ZM19.8 35L10.9 19.15L19.65 17.9L29.55 35.05L19.8 35ZM8.5 16.1H15.45C16.3167 16.1 17.0667 15.9167 17.7 15.55C18.3667 15.15 18.8667 14.6167 19.2 13.95C19.5667 13.2833 19.75 12.5167 19.75 11.65C19.75 10.75 19.5333 9.96667 19.1 9.3C18.7 8.63333 18.1167 8.11667 17.35 7.75C16.6167 7.35 15.7333 7.15 14.7 7.15H8.5V16.1Z" fill="url(#paint0_linear_32_2)"/>
<defs>
<linearGradient id="paint0_linear_32_2" x1="29" y1="35" x2="0.500001" y2="8" gradientUnits="userSpaceOnUse">
<stop stop-color="#9933FF"/>
<stop offset="1" stop-color="#CC5599"/>
</linearGradient>
</defs>
</svg>
