<svg width="355" height="329" viewBox="0 0 355 329" fill="none" xmlns="http://www.w3.org/2000/svg">
<path fill-rule="evenodd" clip-rule="evenodd" d="M1 303.038L31.0932 7L61.1863 303.038H1Z" stroke="black" stroke-width="1.33332" stroke-miterlimit="10.433"/>
<path d="M82.9728 297.132V12.9067" stroke="black" stroke-width="0.666662" stroke-miterlimit="10.433"/>
<path d="M84.8261 295.798L82.8928 303.038L80.9595 295.798H84.8261Z" fill="black"/>
<path d="M84.8261 14.2133L82.8928 6.99999L80.9595 14.2133H84.8261Z" fill="black"/>
<path d="M313.771 292.238V183.466" stroke="black" stroke-width="0.666662" stroke-miterlimit="10.433"/>
<path d="M315.624 290.918L313.691 298.145L311.758 290.918H315.624Z" fill="black"/>
<path d="M315.624 184.786L313.691 177.572L311.758 184.786H315.624Z" fill="black"/>
<path fill-rule="evenodd" clip-rule="evenodd" d="M214.505 298.465H295.105V177.572H214.505V298.465Z" stroke="black" stroke-width="1.33332" stroke-miterlimit="10.433"/>
<path d="M14.9139 324.2L15.6014 323.097C16.0693 323.613 16.6613 323.871 17.3774 323.871C18.7047 323.871 19.3683 323.221 19.3683 321.923C19.3683 321.331 19.1749 320.851 18.7882 320.483C18.4015 320.111 17.8883 319.925 17.2485 319.925H17.1339V318.764H17.1984C18.4111 318.764 19.0174 318.23 19.0174 317.16C19.0174 316.043 18.4469 315.485 17.3058 315.485C16.6852 315.485 16.191 315.692 15.8234 316.108L15.186 315.134C15.63 314.556 16.3724 314.267 17.4132 314.267C18.3299 314.267 19.0771 314.513 19.6547 315.005C20.2324 315.492 20.5213 316.117 20.5213 316.881C20.5213 317.463 20.359 317.979 20.0343 318.428C19.7144 318.877 19.3373 319.177 18.9028 319.33C19.5044 319.526 19.9818 319.86 20.3351 320.333C20.6932 320.801 20.8722 321.369 20.8722 322.037C20.8722 323.011 20.5642 323.763 19.9484 324.293C19.3325 324.823 18.4683 325.088 17.3559 325.088C16.8881 325.088 16.4297 325.002 15.9809 324.83C15.5322 324.654 15.1765 324.443 14.9139 324.2Z" fill="black"/>
<path d="M32.673 317.898L31.9998 318.858C31.8614 318.719 31.6155 318.588 31.2622 318.464C30.9137 318.34 30.5699 318.277 30.231 318.277C29.491 318.277 28.9037 318.538 28.4693 319.058C28.0348 319.574 27.8176 320.283 27.8176 321.185C27.8176 322.083 28.0396 322.768 28.4836 323.24C28.9276 323.708 29.5435 323.942 30.3312 323.942C30.9423 323.942 31.5582 323.706 32.1789 323.233L32.716 324.379C31.9855 324.852 31.0808 325.088 30.0018 325.088C28.9562 325.088 28.0921 324.737 27.4094 324.035C26.7267 323.333 26.3853 322.383 26.3853 321.185C26.3853 319.963 26.7386 318.982 27.4452 318.242C28.1565 317.502 29.1281 317.132 30.3599 317.132C30.7561 317.132 31.1858 317.215 31.6489 317.382C32.112 317.549 32.4534 317.721 32.673 317.898ZM43.0284 324.945V320.089C43.0284 318.881 42.5056 318.277 41.4601 318.277C41.1306 318.277 40.8227 318.38 40.5362 318.585C40.2498 318.786 40.054 319.015 39.949 319.273V324.945H38.5883V319.495C38.5883 319.118 38.4451 318.822 38.1587 318.607C37.877 318.387 37.5022 318.277 37.0343 318.277C36.7622 318.277 36.4709 318.383 36.1606 318.593C35.8551 318.803 35.6378 319.034 35.5089 319.287V324.945H34.1483V317.275H35.0363L35.4874 318.163C36.0126 317.475 36.6691 317.132 37.4568 317.132C38.5549 317.132 39.3236 317.473 39.7628 318.156C39.9156 317.865 40.1997 317.621 40.615 317.425C41.0304 317.23 41.4577 317.132 41.8969 317.132C42.6894 317.132 43.3029 317.368 43.7374 317.841C44.1719 318.309 44.3891 318.967 44.3891 319.817V324.945H43.0284Z" fill="black"/>
<path d="M96.8651 138.93V139.524C95.9198 140.889 95.4471 142.883 95.4471 145.504C95.4471 148.617 95.9198 150.717 96.8651 151.806V152.558C95.9007 151.885 95.1511 150.918 94.6164 149.657C94.0865 148.402 93.8215 147.012 93.8215 145.489C93.8215 144.191 94.1247 142.88 94.731 141.558C95.3373 140.231 96.0487 139.354 96.8651 138.93Z" fill="black"/>
<path d="M103.468 149.159L101.187 146.112L99.1476 149.159H97.4132L100.452 144.878L97.6632 140.792H99.3351L101.21 143.667L103.312 140.792H104.952L101.913 144.878L105.241 149.159H103.468Z" fill="black"/>
<path fill-rule="evenodd" clip-rule="evenodd" d="M112.519 140.826H113.853V144.826H117.853V146.159H113.853V150.159H112.519V146.159H108.519V144.826H112.519V140.826Z" fill="black"/>
<path d="M125.298 149.493V141.45L123.164 142.782V141.443C123.704 141.171 124.276 140.796 124.883 140.319C125.494 139.841 125.967 139.388 126.301 138.958H126.73V149.493H125.298ZM129.917 149.493V149.206L133.204 144.172C133.892 143.117 134.236 142.221 134.236 141.486C134.236 140.517 133.689 140.032 132.596 140.032C132.209 140.032 131.846 140.135 131.507 140.34C131.168 140.541 130.922 140.796 130.769 141.107L129.846 140.347C130.008 139.88 130.325 139.507 130.798 139.23C131.276 138.953 131.851 138.815 132.524 138.815C133.531 138.815 134.319 139.049 134.887 139.517C135.455 139.98 135.74 140.636 135.74 141.486C135.74 142.274 135.362 143.267 134.608 144.465L132.252 148.204H136.363V149.493H129.917ZM138.497 152.558V151.806C139.442 150.717 139.915 148.617 139.915 145.504C139.915 142.883 139.442 140.889 138.497 139.524V138.93C139.313 139.354 140.024 140.231 140.631 141.558C141.237 142.88 141.54 144.191 141.54 145.489C141.54 147.012 141.273 148.402 140.738 149.657C140.208 150.918 139.461 151.885 138.497 152.558Z" fill="black"/>
<path d="M152.512 142.446L151.839 143.405C151.701 143.267 151.455 143.136 151.102 143.012C150.753 142.887 150.409 142.825 150.07 142.825C149.33 142.825 148.743 143.086 148.309 143.606C147.874 144.122 147.657 144.831 147.657 145.733C147.657 146.63 147.879 147.316 148.323 147.788C148.767 148.256 149.383 148.49 150.171 148.49C150.782 148.49 151.398 148.254 152.018 147.781L152.555 148.927C151.825 149.4 150.92 149.636 149.841 149.636C148.796 149.636 147.931 149.285 147.249 148.583C146.566 147.881 146.225 146.931 146.225 145.733C146.225 144.511 146.578 143.53 147.285 142.79C147.996 142.05 148.967 141.68 150.199 141.68C150.595 141.68 151.025 141.763 151.488 141.93C151.951 142.097 152.293 142.269 152.512 142.446ZM162.868 149.493V144.637C162.868 143.429 162.345 142.825 161.299 142.825C160.97 142.825 160.662 142.928 160.376 143.133C160.089 143.334 159.893 143.563 159.788 143.821V149.493H158.428V144.043C158.428 143.666 158.284 143.37 157.998 143.155C157.716 142.935 157.342 142.825 156.874 142.825C156.602 142.825 156.31 142.93 156 143.14C155.694 143.351 155.477 143.582 155.348 143.835V149.493H153.988V141.823H154.876L155.327 142.711C155.852 142.023 156.508 141.68 157.296 141.68C158.394 141.68 159.163 142.021 159.602 142.704C159.755 142.412 160.039 142.169 160.454 141.973C160.87 141.777 161.297 141.68 161.736 141.68C162.529 141.68 163.142 141.916 163.577 142.388C164.011 142.856 164.228 143.515 164.228 144.365V149.493H162.868Z" fill="black"/>
<path d="M230.091 314.688V315.283C229.146 316.648 228.673 318.641 228.673 321.262C228.673 324.375 229.146 326.476 230.091 327.565V328.316C229.127 327.643 228.377 326.677 227.843 325.416C227.313 324.16 227.048 322.771 227.048 321.248C227.048 319.95 227.351 318.639 227.957 317.317C228.564 315.989 229.275 315.113 230.091 314.688ZM233.579 319.415C233.135 319.176 232.772 318.844 232.49 318.419C232.209 317.995 232.068 317.555 232.068 317.102C232.068 316.324 232.33 315.708 232.856 315.254C233.386 314.801 234.068 314.574 234.904 314.574C235.806 314.574 236.506 314.801 237.002 315.254C237.499 315.708 237.747 316.326 237.747 317.109C237.747 317.567 237.596 318.035 237.296 318.513C236.995 318.985 236.646 319.334 236.25 319.558C237.511 320.265 238.141 321.193 238.141 322.344C238.141 323.313 237.849 324.065 237.267 324.6C236.685 325.13 235.885 325.395 234.868 325.395C232.748 325.395 231.688 324.378 231.688 322.344C231.688 321.757 231.87 321.179 232.233 320.611C232.595 320.043 233.044 319.644 233.579 319.415ZM235.333 318.971C235.983 318.36 236.307 317.727 236.307 317.073C236.307 316.682 236.176 316.371 235.914 316.142C235.656 315.908 235.319 315.791 234.904 315.791C233.968 315.791 233.5 316.223 233.5 317.087C233.5 317.727 234.111 318.355 235.333 318.971ZM234.696 320.038C233.646 320.606 233.121 321.375 233.121 322.344C233.121 322.864 233.283 323.301 233.608 323.654C233.932 324.003 234.352 324.177 234.868 324.177C235.403 324.177 235.842 324.005 236.186 323.662C236.534 323.318 236.708 322.879 236.708 322.344C236.708 321.957 236.589 321.594 236.35 321.255C236.112 320.912 235.56 320.506 234.696 320.038Z" fill="black"/>
<path fill-rule="evenodd" clip-rule="evenodd" d="M242.332 321.905H248.999V320.571H242.332V321.905Z" fill="black"/>
<path d="M261.373 324.905L259.092 321.858L257.053 324.905H255.319L258.358 320.624L255.569 316.538H257.241L259.116 319.413L261.217 316.538H262.858L259.819 320.624L263.147 324.905H261.373Z" fill="black"/>
<path d="M263.701 328.303V327.551C264.646 326.463 265.118 324.362 265.118 321.249C265.118 318.628 264.646 316.635 263.701 315.269V314.675C264.517 315.1 265.228 315.976 265.835 317.303C266.441 318.626 266.744 319.936 266.744 321.235C266.744 322.758 266.477 324.147 265.942 325.403C265.412 326.663 264.665 327.63 263.701 328.303Z" fill="black"/>
<path d="M278.058 318.191L277.385 319.151C277.247 319.012 277.001 318.881 276.648 318.757C276.299 318.633 275.955 318.571 275.616 318.571C274.876 318.571 274.289 318.831 273.855 319.351C273.42 319.867 273.203 320.576 273.203 321.478C273.203 322.376 273.425 323.061 273.869 323.534C274.313 324.002 274.929 324.236 275.717 324.236C276.328 324.236 276.944 323.999 277.564 323.527L278.101 324.672C277.371 325.145 276.466 325.381 275.387 325.381C274.342 325.381 273.477 325.03 272.795 324.329C272.112 323.627 271.771 322.677 271.771 321.478C271.771 320.256 272.124 319.275 272.831 318.535C273.542 317.795 274.513 317.425 275.745 317.425C276.142 317.425 276.571 317.509 277.034 317.676C277.497 317.843 277.839 318.015 278.058 318.191ZM288.414 325.238V320.383C288.414 319.175 287.891 318.571 286.845 318.571C286.516 318.571 286.208 318.673 285.922 318.879C285.635 319.079 285.439 319.308 285.334 319.566V325.238H283.974V319.788C283.974 319.411 283.83 319.115 283.544 318.9C283.262 318.681 282.888 318.571 282.42 318.571C282.148 318.571 281.856 318.676 281.546 318.886C281.24 319.096 281.023 319.328 280.894 319.581V325.238H279.534V317.568H280.422L280.873 318.456C281.398 317.769 282.054 317.425 282.842 317.425C283.94 317.425 284.709 317.766 285.148 318.449C285.301 318.158 285.585 317.914 286 317.719C286.416 317.523 286.843 317.425 287.282 317.425C288.075 317.425 288.688 317.661 289.123 318.134C289.557 318.602 289.774 319.261 289.774 320.111V325.238H288.414Z" fill="black"/>
<path d="M327.797 232.068L328.492 232.834C328.072 233.001 327.463 233.567 326.666 234.531C325.873 235.491 325.434 236.231 325.348 236.751C325.744 236.369 326.296 236.178 327.002 236.178C327.929 236.178 328.671 236.474 329.23 237.066C329.788 237.658 330.068 238.472 330.068 239.508C330.068 240.535 329.779 241.361 329.201 241.986C328.628 242.612 327.907 242.924 327.038 242.924C324.737 242.924 323.586 241.399 323.586 238.348C323.586 237.078 324.035 235.78 324.933 234.452C325.835 233.12 326.79 232.325 327.797 232.068ZM325.09 239.465C325.09 240.96 325.704 241.707 326.931 241.707C327.446 241.707 327.852 241.514 328.148 241.127C328.449 240.735 328.599 240.22 328.599 239.58C328.599 238.916 328.442 238.386 328.127 237.99C327.812 237.594 327.406 237.396 326.909 237.396C325.697 237.396 325.09 238.086 325.09 239.465Z" fill="black"/>
<path d="M341.524 235.698L340.851 236.658C340.713 236.52 340.467 236.388 340.113 236.264C339.765 236.14 339.421 236.078 339.082 236.078C338.342 236.078 337.755 236.338 337.32 236.859C336.886 237.374 336.669 238.083 336.669 238.986C336.669 239.883 336.891 240.568 337.335 241.041C337.779 241.509 338.395 241.743 339.182 241.743C339.794 241.743 340.409 241.506 341.03 241.034L341.567 242.18C340.837 242.652 339.932 242.889 338.853 242.889C337.807 242.889 336.943 242.538 336.261 241.836C335.578 241.134 335.236 240.184 335.236 238.986C335.236 237.763 335.59 236.782 336.296 236.042C337.008 235.302 337.979 234.932 339.211 234.932C339.607 234.932 340.037 235.016 340.5 235.183C340.963 235.35 341.305 235.522 341.524 235.698ZM351.88 242.745V237.89C351.88 236.682 351.357 236.078 350.311 236.078C349.982 236.078 349.674 236.181 349.387 236.386C349.101 236.587 348.905 236.816 348.8 237.073V242.745H347.44V237.295C347.44 236.918 347.296 236.622 347.01 236.407C346.728 236.188 346.353 236.078 345.886 236.078C345.613 236.078 345.322 236.183 345.012 236.393C344.706 236.603 344.489 236.835 344.36 237.088V242.745H342.999V235.075H343.887L344.339 235.963C344.864 235.276 345.52 234.932 346.308 234.932C347.406 234.932 348.175 235.274 348.614 235.956C348.767 235.665 349.051 235.422 349.466 235.226C349.882 235.03 350.309 234.932 350.748 234.932C351.541 234.932 352.154 235.169 352.589 235.641C353.023 236.109 353.24 236.768 353.24 237.618V242.745H351.88Z" fill="black"/>
</svg>
