<svg width="189" height="397" viewBox="0 0 189 397" fill="none" xmlns="http://www.w3.org/2000/svg">
<path d="M114.973 339.558L114.906 340.438L114.679 341.305L114.319 342.158L113.813 342.998L113.186 343.825L112.413 344.638L111.519 345.425L110.493 346.198L109.359 346.958L108.093 347.691L106.733 348.411L105.239 349.104L103.653 349.771L101.959 350.411L100.173 351.038L98.2794 351.624L96.3061 352.198L94.2394 352.731L92.0794 353.238L89.8528 353.718L87.5328 354.158L85.1594 354.571L82.6928 354.944L80.1728 355.291L77.5862 355.584L74.9329 355.864L72.2262 356.091L69.4796 356.278L66.6662 356.424L63.8129 356.531L60.9196 356.598L57.9863 356.624C26.5198 356.624 1 348.985 1 339.558C1 330.131 26.5198 322.491 57.9863 322.491C89.4661 322.491 114.973 330.131 114.973 339.558Z" fill="#7F7F7F"/>
<path fill-rule="evenodd" clip-rule="evenodd" d="M114.973 339.558L114.906 340.438L114.679 341.305L114.319 342.158L113.813 342.998L113.186 343.825L112.413 344.638L111.519 345.425L110.493 346.198L109.359 346.958L108.093 347.691L106.733 348.411L105.239 349.104L103.653 349.771L101.959 350.411L100.173 351.038L98.2794 351.624L96.3061 352.198L94.2394 352.731L92.0794 353.238L89.8528 353.718L87.5328 354.158L85.1594 354.571L82.6928 354.944L80.1728 355.291L77.5862 355.584L74.9329 355.864L72.2262 356.091L69.4796 356.278L66.6662 356.424L63.8129 356.531L60.9196 356.598L57.9863 356.624C26.5198 356.624 1 348.985 1 339.558C1 330.131 26.5198 322.491 57.9863 322.491C89.4661 322.491 114.973 330.131 114.973 339.558Z" stroke="black" stroke-width="1.33332" stroke-miterlimit="10.433" stroke-linejoin="round"/>
<path d="M109.439 375.851H7.29333" stroke="black" stroke-width="0.666662" stroke-miterlimit="10.433" stroke-linecap="round"/>
<path d="M108.119 373.984L115.346 375.931L108.119 377.864V373.984Z" fill="black"/>
<path d="M8.62666 373.984L1.40002 375.931L8.62666 377.864V373.984Z" fill="black"/>
<path d="M1.14661 338.305L57.9596 1.37336L114.906 338.705" stroke="black" stroke-width="1.33332" stroke-miterlimit="10.433" stroke-linejoin="round"/>
<path d="M59.1996 339.531V339.478L59.1863 339.411V339.358L59.1729 339.291L59.1596 339.238L59.1463 339.184L59.1196 339.118L59.1063 339.065L59.0796 339.011L59.0529 338.958L59.0263 338.918L58.9863 338.865L58.9596 338.811L58.9196 338.771L58.8796 338.731L58.8396 338.678L58.7996 338.638L58.7596 338.611L58.7062 338.571L58.6662 338.531L58.6129 338.505L58.5596 338.478L58.5063 338.451L58.4529 338.425L58.3996 338.398L58.3463 338.385L58.2929 338.371L58.2396 338.358L58.1729 338.345L58.1196 338.331H58.0529H57.9863C57.3196 338.331 56.7863 338.865 56.7863 339.531C56.7863 340.198 57.3196 340.745 57.9863 340.745C58.6529 340.745 59.1996 340.198 59.1996 339.531Z" fill="black"/>
<path fill-rule="evenodd" clip-rule="evenodd" d="M59.1996 339.531V339.478L59.1863 339.411V339.358L59.1729 339.291L59.1596 339.238L59.1463 339.184L59.1196 339.118L59.1063 339.065L59.0796 339.011L59.0529 338.958L59.0263 338.918L58.9863 338.865L58.9596 338.811L58.9196 338.771L58.8796 338.731L58.8396 338.678L58.7996 338.638L58.7596 338.611L58.7062 338.571L58.6662 338.531L58.6129 338.505L58.5596 338.478L58.5063 338.451L58.4529 338.425L58.3996 338.398L58.3463 338.385L58.2929 338.371L58.2396 338.358L58.1729 338.345L58.1196 338.331H58.0529H57.9863C57.3196 338.331 56.7863 338.865 56.7863 339.531C56.7863 340.198 57.3196 340.745 57.9863 340.745C58.6529 340.745 59.1996 340.198 59.1996 339.531Z" stroke="black" stroke-width="0.666662" stroke-miterlimit="10.433" stroke-linecap="round" stroke-linejoin="round"/>
<path d="M143.919 6.90669V334.531" stroke="black" stroke-width="0.666662" stroke-miterlimit="10.433" stroke-linecap="round"/>
<path d="M141.986 8.22668L143.919 1L145.866 8.22668H141.986Z" fill="black"/>
<path d="M141.986 333.211L143.919 340.438L145.866 333.211H141.986Z" fill="black"/>
<text fill="black" xml:space="preserve" style="white-space: pre" font-family="Trebuchet MS" font-size="14.6666" letter-spacing="0em"><tspan x="39.3197" y="392.901">20</tspan></text>
<text fill="black" xml:space="preserve" style="white-space: pre" font-family="Trebuchet MS" font-size="14.6666" letter-spacing="0em"><tspan x="58.7996" y="392.901">cm</tspan></text>
<text fill="black" xml:space="preserve" style="white-space: pre" font-family="Trebuchet MS" font-size="14.6666" letter-spacing="0em"><tspan x="148.919" y="169.902">60</tspan></text>
<text fill="black" xml:space="preserve" style="white-space: pre" font-family="Trebuchet MS" font-size="14.6666" letter-spacing="0em"><tspan x="168.399" y="169.902">cm</tspan></text>
</svg>
