<svg width="410" height="395" viewBox="0 0 410 395" fill="none" xmlns="http://www.w3.org/2000/svg">
<path d="M262.518 250.305L262.292 250.252L262.065 250.225L261.838 250.198L261.625 250.185H261.398H261.172L260.958 250.212L260.745 250.238L260.532 250.278L260.318 250.332L260.105 250.398L259.905 250.465L259.705 250.545L259.505 250.638L259.318 250.732L259.132 250.852L258.958 250.958L258.772 251.092L258.612 251.225L258.452 251.372L258.292 251.518L258.145 251.678L257.998 251.838L257.865 252.012L257.745 252.185L257.625 252.372L257.518 252.572L257.425 252.772L257.332 252.972L257.252 253.185L257.185 253.412L257.118 253.625C256.545 256.025 258.038 258.452 260.452 259.025C262.852 259.598 265.265 258.105 265.838 255.705C266.412 253.292 264.932 250.878 262.518 250.305Z" fill="black"/>
<path fill-rule="evenodd" clip-rule="evenodd" d="M293.705 119.239L286.691 117.759L279.691 116.653L272.705 115.893L265.758 115.506L258.838 115.452L251.985 115.746L245.185 116.386L238.452 117.346L231.812 118.626L225.265 120.226L218.812 122.146L212.479 124.359L206.279 126.866L200.199 129.666L194.279 132.759L188.505 136.119L182.905 139.759L177.479 143.666L172.239 147.826L167.199 152.239L162.372 156.892L157.759 161.786L153.386 166.919L149.239 172.266L145.359 177.839L141.732 183.625L138.372 189.612L135.306 195.812L132.532 202.199L130.052 208.772L127.892 215.519L126.066 222.452C108.266 297.238 154.466 372.291 229.265 390.077C304.051 407.877 379.118 361.678 396.904 286.878C414.691 212.092 368.491 137.039 293.705 119.239Z" stroke="black" stroke-width="1.33332" stroke-miterlimit="10.433"/>
<path d="M395.637 217.425L176.212 144.546" stroke="black" stroke-width="1.33332" stroke-miterlimit="10.433"/>
<path d="M176.292 144.532L346.544 365.291" stroke="black" stroke-width="1.33332" stroke-miterlimit="10.433"/>
<path d="M12.5066 270.798L343.638 15.4265" stroke="black" stroke-width="1.33332" stroke-miterlimit="10.433"/>
<path d="M261.425 254.705L395.637 217.425" stroke="black" stroke-width="1.33332" stroke-miterlimit="10.433"/>
<path d="M346.544 365.291L395.637 217.425" stroke="black" stroke-width="1.33332" stroke-miterlimit="10.433"/>
<path d="M295.571 245.145L295.731 245.718L295.878 246.292L296.011 246.878L296.145 247.465L296.251 248.052L296.358 248.652L296.465 249.238L296.545 249.838L296.625 250.438L296.691 251.052L296.758 251.652L296.798 252.265L296.838 252.878L296.865 253.492L296.878 254.118V254.745C296.878 266.678 292.038 276.451 282.985 282.878" stroke="black" stroke-width="0.666662" stroke-miterlimit="10.433"/>
<text fill="black" xml:space="preserve" style="white-space: pre" font-family="Trebuchet MS" font-size="14.6666" letter-spacing="0em"><tspan x="0" y="277.075">A</tspan></text>
<text fill="black" xml:space="preserve" style="white-space: pre" font-family="Trebuchet MS" font-size="14.6666" letter-spacing="0em"><tspan x="347.718" y="13.7565">B</tspan></text>
<text fill="black" xml:space="preserve" style="white-space: pre" font-family="Trebuchet MS" font-size="14.6666" letter-spacing="0em"><tspan x="163.786" y="138.489">C</tspan></text>
<text fill="black" xml:space="preserve" style="white-space: pre" font-family="Trebuchet MS" font-size="14.6666" letter-spacing="0em"><tspan x="244.412" y="268.875">O</tspan></text>
<text fill="black" xml:space="preserve" style="white-space: pre" font-family="Trebuchet MS" font-size="14.6666" letter-spacing="0em"><tspan x="347.718" y="379.101">D</tspan></text>
<text fill="black" xml:space="preserve" style="white-space: pre" font-family="Trebuchet MS" font-size="14.6666" letter-spacing="0em"><tspan x="401.904" y="219.115">E</tspan></text>
<text fill="black" xml:space="preserve" style="white-space: pre" font-family="Trebuchet MS" font-size="14.6666" letter-spacing="0em"><tspan x="273.078" y="265.088">68</tspan></text>
</svg>
